<?xml version="1.0" encoding="UTF-8" standalone="no"?><!DOCTYPE svg PUBLIC "-//W3C//DTD SVG 1.1//EN" "http://www.w3.org/Graphics/SVG/1.1/DTD/svg11.dtd"><svg width="100%" height="100%" viewBox="0 0 2441 1563" version="1.1" xmlns="http://www.w3.org/2000/svg" xmlns:xlink="http://www.w3.org/1999/xlink" xml:space="preserve" style="fill-rule:evenodd;clip-rule:evenodd;stroke-linejoin:round;stroke-miterlimit:1.41421;"><g><path id="Frame" d="M2440.21,0l0,1562.73l-2440.21,0l0,-1562.73l2440.21,0Zm-48.643,0l-2342.93,0c-26.848,0 -48.644,21.797 -48.644,48.644l0,1465.44c0,26.847 21.796,48.644 48.644,48.644l2342.93,0c26.847,0 48.643,-21.797 48.643,-48.644l0,-1465.44c0,-26.847 -21.796,-48.644 -48.643,-48.644Z"/><g id="Treasure"><path d="M1810.37,1413.22c0,0 22.378,18.374 33.346,22.946c4.253,1.773 9.146,-0.24 10.919,-4.494c1.773,-4.253 -0.241,-9.146 -4.494,-10.919c-10.968,-4.572 -39.771,-7.533 -39.771,-7.533Z" style="fill:#9d5d37;fill-opacity:0.701961;"/><path d="M1917.62,1296.09c0,0 5.9,34.648 11.521,48.216c1.651,3.983 6.225,5.877 10.208,4.227c3.983,-1.651 5.877,-6.225 4.227,-10.208c-5.622,-13.568 -25.956,-42.235 -25.956,-42.235Z" style="fill:#9d5d37;fill-opacity:0.701961;"/><path d="M1870.77,1325.86c0,0 11.833,30.451 19.932,41.225c2.931,3.899 8.476,4.685 12.375,1.755c3.899,-2.931 4.685,-8.476 1.754,-12.375c-8.099,-10.775 -34.061,-30.605 -34.061,-30.605Z" style="fill:#9d5d37;fill-opacity:0.701961;"/><path d="M1971.84,1284.43c0,0 -7.413,31.817 -6.807,45.282c0.219,4.873 4.354,8.651 9.227,8.431c4.872,-0.219 8.65,-4.353 8.431,-9.226c-0.607,-13.465 -10.851,-44.487 -10.851,-44.487Z" style="fill:#9d5d37;fill-opacity:0.701961;"/><path d="M1827.13,1362.43c0,0 21.665,28.675 33.225,38.203c3.556,2.931 8.823,2.423 11.754,-1.133c2.931,-3.556 2.423,-8.823 -1.133,-11.754c-11.561,-9.528 -43.846,-25.316 -43.846,-25.316Z" style="fill:#9d5d37;fill-opacity:0.701961;"/><path d="M1841.16,1477.17c12.443,-1.135 22.863,1.423 23.254,5.709c0.391,4.287 -9.394,8.688 -21.837,9.823c-12.443,1.136 -22.862,-1.422 -23.253,-5.709c-0.391,-4.286 9.393,-8.687 21.836,-9.823Z" style="fill:#9d5d37;fill-opacity:0.701961;"/><path d="M1928.88,1521.93c12.491,-0.273 22.709,2.998 22.803,7.301c0.095,4.303 -9.97,8.018 -22.462,8.292c-12.492,0.273 -22.71,-2.998 -22.804,-7.301c-0.094,-4.303 9.971,-8.018 22.463,-8.292Z" style="fill:#9d5d37;fill-opacity:0.701961;"/><path d="M1923.31,1492.99c12.494,-0.092 22.664,3.327 22.696,7.631c0.032,4.303 -10.086,7.873 -22.58,7.965c-12.495,0.093 -22.664,-3.326 -22.696,-7.63c-0.032,-4.304 10.086,-7.873 22.58,-7.966Z" style="fill:#9d5d37;fill-opacity:0.701961;"/><path d="M1991.7,1476.91c12.494,-0.093 22.664,3.327 22.696,7.63c0.031,4.304 -10.086,7.874 -22.581,7.966c-12.494,0.093 -22.663,-3.327 -22.695,-7.63c-0.032,-4.304 10.086,-7.874 22.58,-7.966Z" style="fill:#9d5d37;fill-opacity:0.701961;"/><path d="M1990.88,1508.47c12.494,-0.092 22.663,3.327 22.695,7.631c0.032,4.304 -10.086,7.873 -22.58,7.965c-12.494,0.093 -22.664,-3.326 -22.695,-7.63c-0.032,-4.304 10.085,-7.873 22.58,-7.966Z" style="fill:#9d5d37;fill-opacity:0.701961;"/><path d="M2013.33,1535.55c12.377,-1.709 22.904,0.365 23.492,4.629c0.589,4.263 -8.982,9.112 -21.359,10.821c-12.377,1.709 -22.903,-0.365 -23.492,-4.628c-0.589,-4.264 8.982,-9.113 21.359,-10.822Z" style="fill:#9d5d37;fill-opacity:0.701961;"/><path d="M2070.74,1528.72c12.488,0.419 22.509,4.251 22.365,8.552c-0.144,4.302 -10.4,7.455 -22.887,7.036c-12.488,-0.418 -22.509,-4.25 -22.365,-8.552c0.144,-4.301 10.399,-7.454 22.887,-7.036Z" style="fill:#9d5d37;fill-opacity:0.701961;"/><path d="M2145.91,1540.88c12.488,0.418 22.509,4.25 22.365,8.552c-0.144,4.301 -10.4,7.454 -22.887,7.035c-12.488,-0.418 -22.509,-4.25 -22.365,-8.552c0.144,-4.301 10.4,-7.454 22.887,-7.035Z" style="fill:#9d5d37;fill-opacity:0.701961;"/><path d="M2220.37,1540.95c12.475,-0.698 22.798,2.225 23.039,6.522c0.24,4.297 -9.693,8.353 -22.168,9.05c-12.475,0.698 -22.798,-2.224 -23.039,-6.521c-0.24,-4.298 9.693,-8.353 22.168,-9.051Z" style="fill:#9d5d37;fill-opacity:0.701961;"/><path d="M2290.9,1525.95c12.476,-0.677 22.795,2.263 23.028,6.56c0.233,4.298 -9.707,8.337 -22.183,9.014c-12.476,0.676 -22.795,-2.263 -23.028,-6.561c-0.233,-4.298 9.707,-8.336 22.183,-9.013Z" style="fill:#9d5d37;fill-opacity:0.701961;"/><path d="M2268.94,1487.39c11.289,5.356 18.993,12.783 17.193,16.576c-1.799,3.793 -12.425,2.524 -23.714,-2.831c-11.288,-5.356 -18.992,-12.783 -17.193,-16.576c1.8,-3.793 12.425,-2.524 23.714,2.831Z" style="fill:#9d5d37;fill-opacity:0.701961;"/><path d="M2342.32,1504.91c11.289,5.356 18.993,12.783 17.193,16.576c-1.799,3.793 -12.425,2.524 -23.714,-2.831c-11.288,-5.356 -18.992,-12.783 -17.193,-16.576c1.8,-3.793 12.426,-2.524 23.714,2.831Z" style="fill:#9d5d37;fill-opacity:0.701961;"/><path d="M2204.65,1509.45c13.013,-0.728 23.773,2.17 24.013,6.467c0.24,4.298 -10.129,8.377 -23.142,9.105c-13.013,0.728 -23.772,-2.17 -24.013,-6.467c-0.24,-4.297 10.129,-8.377 23.142,-9.105Z" style="fill:#9d5d37;fill-opacity:0.701961;"/><path d="M2278.08,1460.76c13.033,0.031 23.606,3.551 23.595,7.855c-0.01,4.304 -10.6,7.772 -23.633,7.741c-13.033,-0.031 -23.606,-3.551 -23.595,-7.855c0.01,-4.304 10.6,-7.773 23.633,-7.741Z" style="fill:#9d5d37;fill-opacity:0.701961;"/><path d="M2238.96,1432.25c13.033,0.031 23.606,3.551 23.596,7.855c-0.01,4.304 -10.6,7.772 -23.633,7.741c-13.033,-0.031 -23.606,-3.551 -23.596,-7.855c0.011,-4.304 10.6,-7.773 23.633,-7.741Z" style="fill:#9d5d37;fill-opacity:0.701961;"/><path d="M2183,1478.99c13.031,-0.176 23.659,3.175 23.717,7.479c0.058,4.303 -10.475,7.94 -23.507,8.116c-13.032,0.176 -23.659,-3.175 -23.717,-7.478c-0.058,-4.304 10.475,-7.941 23.507,-8.117Z" style="fill:#9d5d37;fill-opacity:0.701961;"/><path d="M2074.44,1495.63c11.82,4.05 20.284,10.643 18.889,14.714c-1.395,4.072 -12.124,4.09 -23.944,0.041c-11.82,-4.049 -20.284,-10.642 -18.889,-14.714c1.394,-4.071 12.123,-4.09 23.944,-0.041Z" style="fill:#9d5d37;fill-opacity:0.701961;"/><path d="M2150.93,1502.26c13.168,-3.638 24.79,-3.225 25.936,0.924c1.146,4.148 -8.614,10.471 -21.782,14.11c-13.169,3.638 -24.79,3.225 -25.937,-0.924c-1.146,-4.148 8.614,-10.471 21.783,-14.11Z" style="fill:#9d5d37;fill-opacity:0.701961;"/><path d="M2101.05,1475.04c12.459,0.949 22.308,5.205 21.981,9.496c-0.327,4.292 -10.708,7.005 -23.166,6.055c-12.458,-0.949 -22.308,-5.205 -21.98,-9.496c0.327,-4.292 10.707,-7.005 23.165,-6.055Z" style="fill:#9d5d37;fill-opacity:0.701961;"/></g><g id="Water"><path d="M483.076,442.639c33.271,7.018 68.421,6.508 105.556,-1.959c52.16,-3.761 99.659,3.179 145.291,14.404c-34.259,-0.888 -66.988,3.068 -96.944,15.805c-63.396,14.067 -118.176,11.405 -153.903,-28.25Z" style="fill:#00baef;fill-opacity:0.701961;"/><path d="M608.5,517.352c41.083,10.569 74.431,7.626 100.624,-7.819c37.473,-8.962 78.473,-3.265 122.426,14.703c-29.926,0.2 -57.783,3.35 -83.702,9.265c-70.518,15.458 -111.575,6.32 -139.348,-16.149Z" style="fill:#00baef;fill-opacity:0.701961;"/><path d="M831.55,496.423c38.003,7.206 76.732,9.806 105.496,-3.257c45.643,-25.291 84.622,-25.573 125.097,7.126c-32.768,-5.789 -62.619,-3.951 -88.127,9.241c-62.367,27.083 -108.314,19.454 -142.466,-13.11" style="fill:#00baef;fill-opacity:0.701961;"/><path d="M2145.87,345.074c23.157,2.696 45.823,2.208 67.12,-7.146c36.423,-12.519 65.057,-10.178 95.722,3.572c-21.576,1.137 -46.96,7.462 -68.906,16.429c-33.893,13.85 -65.241,9.814 -93.936,-12.855Z" style="fill:#00baef;fill-opacity:0.701961;"/><path d="M2338.17,357.618c22.365,-2.217 38.278,-4.935 51.115,-18.675c11.314,-12.11 32.975,-17.203 50.929,-11.26l0,28.053c-14.933,-7.019 -32.303,-4.803 -50.704,1.317c-16.905,7.88 -34.024,7.861 -51.34,0.565Z" style="fill:#00baef;fill-opacity:0.701961;"/><path d="M2203.31,483.439c19.284,-14.505 51.177,-16.437 95.678,-5.795c34.655,14.558 68.722,17.797 102.237,10.399c-28.905,21.615 -62.068,27.893 -110.136,14.386c-27.429,-9.858 -60.884,-18.157 -87.779,-18.99Z" style="fill:#00baef;fill-opacity:0.701961;"/><path d="M0,400.903c27.547,-18.44 60.14,-23.615 98.186,-11.837c38.563,20.257 65.012,22.052 86.474,16.246c-44.585,30.005 -83.023,30.413 -112.29,13.214c-27.445,-13.357 -49.867,-19.338 -72.37,-17.623Z" style="fill:#00baef;fill-opacity:0.701961;"/><path d="M0,478.33c31.694,4.465 56.146,2.094 73.007,-7.441c44.424,-15.274 82.622,-8.895 108.617,4.542c-33.388,0.164 -62.785,8.129 -89.294,21.739c-33.164,15.572 -63.922,19.604 -92.33,12.363l0,-31.203" style="fill:#00baef;fill-opacity:0.701961;"/><path d="M0,589.344c26.434,-10.673 53.412,-8.138 90.812,2.256c19.435,3.939 48.506,2.325 72.828,-7.211c-34.148,36.988 -85.886,50.958 -163.64,33.412l0,-28.457" style="fill:#00baef;fill-opacity:0.701961;"/><path d="M90.812,710.44c29.702,-29.689 76.517,-30.124 135.476,-9.797c34.369,15.837 66.634,13.65 98.472,7.808c-28.517,30.222 -69.199,41.711 -135.7,13.445c-26.808,-11.664 -59.024,-16.187 -98.248,-11.456Z" style="fill:#00baef;fill-opacity:0.701961;"/><path d="M81.82,855.993c52.69,-12.469 102.648,-10.991 150.473,1.383c27.708,14.319 54.617,20.586 80.777,19.305c-32.936,14.786 -74.322,21.882 -128.41,5.792c-29.378,-8.739 -71.227,-23.954 -102.84,-26.48Z" style="fill:#00baef;fill-opacity:0.701961;"/><path d="M222.416,992.644c32.621,5.379 63.15,5.19 90.654,-3.048c33.722,-8.966 64.345,-1.787 87.096,17.415c-20.819,-2.786 -44.093,-5.323 -64.958,-0.302c-39.397,9.863 -77.142,6.365 -112.792,-14.065" style="fill:#00baef;fill-opacity:0.701961;"/><path d="M1225.61,348.796c-1.887,-0.527 -3.065,-2.403 -2.719,-4.332c0.346,-1.929 2.101,-3.279 4.055,-3.118c25.716,1.671 43.347,4.091 74.709,5.958c41.387,2.464 66.326,-5.747 99.215,-5.078c44.989,0.916 71.897,2.875 92.29,2.866c31.773,-0.015 61.331,-7.674 98.965,-11.522c62.241,-6.362 126.28,11.703 192.481,12.576c57.761,0.761 127.272,-19.023 182.521,-18.451c34.647,0.359 75.918,4.956 110.186,12.629c1.476,0.35 2.507,1.683 2.476,3.199c-0.031,1.517 -1.115,2.806 -2.604,3.096c-37.919,8.175 -71.552,25.964 -100.247,28.198c-44.662,-1.848 -85.425,-21.526 -110.313,-20.326c-31.838,2.007 -57.58,8.974 -52.031,17.596c1.603,6.471 12.897,8.501 23.405,10.89c0,0 17.493,4.74 28.844,7.817c1.686,0.456 2.938,1.871 3.187,3.599c0.249,1.729 -0.554,3.439 -2.043,4.352c-43.079,22.656 -146.968,20.768 -185.718,3.548c-2.684,-1.224 -4.318,-3.994 -4.092,-6.935c0.227,-2.941 2.265,-5.428 5.105,-6.228c19.953,-5.567 38.266,-8.457 55.558,-9.677c16.938,-4.919 19.425,-14.139 2.819,-20.54c-19.834,-6.615 -40.327,-9.765 -61.487,-9.407c-48.37,4.82 -89.537,27.021 -141.062,28.082c-39.083,1.388 -77.851,-7.969 -117.236,-16.258c-28.768,-6.054 -41.172,2 -45.493,8.252c2.161,15.51 12.677,18.697 33.587,20.84c13.273,1.361 24.063,4.806 32.602,8.526c2.918,1.298 4.646,4.348 4.261,7.518c-0.386,3.17 -2.795,5.717 -5.939,6.278c-63.119,10.272 -139.966,-6.685 -198.884,-19.733c-1.403,-0.306 -2.416,-1.531 -2.455,-2.967c-0.038,-1.436 0.908,-2.713 2.293,-3.094c12.765,-3.385 25.654,-5.503 38.577,-7.28c12.359,-5.826 7.848,-16.596 -9.036,-19.658c-16.045,-2.91 -30.783,-6.888 -45.777,-11.216Z" style="fill:#00baef;fill-opacity:0.701961;"/><path d="M10.435,346.989c-0.768,0.09 -1.487,-0.397 -1.688,-1.144c-0.201,-0.748 0.179,-1.524 0.886,-1.837c46.224,-20.496 104.583,-32.125 188.589,0.861c18.835,5.703 45.793,3.445 66.891,-1.601c1.205,-0.316 2.465,0.271 2.998,1.396c0.534,1.126 0.172,2.447 -0.816,3.206c-53.444,41.065 -112.502,18.865 -172.858,0.504c-24.689,-7.511 -56.375,-4.569 -84.002,-1.385Z" style="fill:#0094bd;fill-opacity:0.701961;"/><path d="M309.767,387.71c13.726,-0.667 27.298,-3.333 40.068,-7.061c27.168,-7.932 16.239,-28.013 -1.414,-28.493l-35.635,0.141c-7.021,-0.184 -12.949,-2.809 -16.153,-7.537c-1.165,-1.742 -1.198,-4.006 -0.085,-5.782c1.113,-1.776 3.165,-2.733 5.241,-2.444c35.713,4.967 85.67,10.675 117.591,2.311c49.909,-13.078 76.714,-2.428 129.061,0.892c22.875,1.45 53.462,-4.76 77.024,-8.088c36.715,-5.185 104.804,10.848 142.863,15.995c12.404,1.678 31.154,0.506 55.715,-8.051c47.209,-16.448 118.069,-1.234 165.905,4.895c61.208,7.283 106.643,5.534 167.847,-3.783c14.348,-1.782 23.445,-0.987 26.568,2.741c2.533,3.745 -0.147,6.69 -8.972,8.692c-7.345,1.538 -14.491,3.338 -20.728,6.337c-10.495,8.77 -6.764,14.3 5.36,17.917c11.255,3.952 22.613,4.363 34.004,3.641c7.195,1.413 12.89,3.536 13.537,8.05c-3.321,2.863 -13.578,4.509 -19.862,3.624c-27.869,-3.928 -30.941,14.671 -78.293,5.719c-4.424,-0.179 -6.765,-1.938 -7.498,-4.917c-3.156,-3.165 1.13,-5.555 8.443,-8.561l14.205,-5.445c4.383,-1.989 5.466,-4.545 4.812,-7.398c-3.221,-4.521 -15.318,-6.321 -21.065,-6.155c-25.262,4.121 -43.161,5.612 -68.92,2.201c-9.286,0.799 -18.857,2.64 -20.031,7.228c3.372,6.347 8.547,8.647 12.644,9.571l10.086,4.292c6.025,4.152 6.706,6.44 5.916,8.215c-0.936,6.343 -23.309,0.132 -31.789,-1.747c-56.66,-12.556 -95.64,-13.575 -134.411,0.655c-19.02,5.149 -38.269,3.141 -53.294,-5.235c-1.18,-0.669 -1.863,-1.964 -1.75,-3.316c0.113,-1.353 1.003,-2.515 2.278,-2.979c24.108,-8.765 47.12,-15.576 67.617,-17.968c6.679,-1.427 9.629,-3.846 8.849,-7.258c-4.405,-5.671 -9.024,-6.333 -13.847,-8.059c-38.327,-7.387 -71.51,-1.854 -100.15,15.085c-39.191,20.527 -77.064,14.485 -114.197,-6.474c-9.689,-5.203 -20.405,2.595 -21.449,6.622c-1.383,1.469 -2.538,3.786 -1.128,5.322c1.918,2.09 7.269,3.626 9.98,7.195c-7.937,6.173 -21.893,-1.314 -33.732,-7.195c-18.42,-4.839 -38.395,-3.024 -59.627,3.859c-38.224,3.024 -62.357,-5.251 -86.421,-13.582c-19.078,-3.186 -33.366,-3.051 -34.306,6.336c1.206,12.636 8.196,18.503 8.196,18.503c13.008,6.491 21.12,5.292 29.079,5.887c4.73,0.353 14.121,2.331 15.208,7.405c-2.541,2.658 -6.808,4.483 -13.079,3.061c-30.446,7.022 -65.498,7.352 -100.053,3.524c-16.736,-1.854 -33.356,-6.668 -49.28,-8.38c-9.346,-1.005 -18.452,-1.834 -27.201,-2.31c-8.843,-1.347 -8.01,-6.32 -3.727,-7.698Z" style="fill:#00baef;fill-opacity:0.701961;"/><path d="M371.477,918.793c40.846,9.473 79.634,11.704 115.424,3.385c53.435,-6.635 91.754,8.594 111.747,31.902c-30.482,-8.252 -64.785,-15.091 -95.834,-7.937c-59.095,13.586 -100.963,1.637 -131.337,-27.35Z" style="fill:#00baef;fill-opacity:0.701961;"/><path d="M547.12,862.378c39.189,14.805 77.308,14.548 114.378,-0.465c59.596,-14.507 101.479,-3.973 126.974,29.73c-37.435,-12.272 -72.474,-13.905 -104.014,0c-58.32,13.559 -103.938,3.505 -137.338,-29.265Z" style="fill:#00baef;fill-opacity:0.701961;"/><path d="M793.655,824.901c41.346,12.495 81.575,12.323 120.622,-1.24c47.384,-15.227 83.764,-8.533 112.984,12.423c-29.053,-3.828 -70.028,9.969 -102.442,19.479c-60.474,17.744 -98.292,1.51 -131.164,-30.662Z" style="fill:#00baef;fill-opacity:0.701961;"/><path d="M1830.92,943.126c31.879,-25.509 69.545,-22.753 111.203,-6.689c45.061,17.376 85.953,10.676 109.608,5.804c-38.1,27.518 -88.444,31.947 -131.985,15.804c-27.664,-10.255 -58.942,-12.854 -88.826,-14.919Z" style="fill:#00baef;fill-opacity:0.701961;"/><path d="M1644.71,964.409c32.743,12.412 62.944,14.272 95.46,6.118c36.036,-9.037 78.389,2.943 113.569,28.092c-26.616,-6.145 -52.352,-5.292 -77.62,-0.702c-57.168,11.883 -105.179,0.902 -131.409,-33.508Z" style="fill:#00baef;fill-opacity:0.701961;"/><path d="M1678.97,1144.38c32.174,13.129 61.146,12.246 97.145,1.173c44.939,-13.824 91.899,-6.643 126.725,24.038c-28.816,-6.129 -57.397,-4.473 -85.727,5.485c-53.038,14.395 -100.94,10.694 -138.143,-30.696Z" style="fill:#00baef;fill-opacity:0.701961;"/><path d="M1435.13,1112.06c28.654,6.016 55.325,1.513 80.561,-10.603c43.71,-11.967 81.169,-3.496 112.808,24.011c-27.613,-3.148 -52.677,1.207 -76.05,7.771c-43.635,12.254 -83.879,10.045 -117.319,-21.179Z" style="fill:#00baef;fill-opacity:0.701961;"/></g><g id="Wreck"><path d="M2366.45,1083.97c0,0 -3.497,-90.399 -4.679,-120.941c-0.046,-1.204 0.722,-2.29 1.873,-2.646c1.151,-0.356 2.398,0.106 3.04,1.126c7.998,12.72 22.234,35.36 22.234,35.36c0.966,32.514 2.757,64.932 5.421,97.248c-9.114,-5.005 -18.289,-9.469 -27.889,-10.147Z" style="fill:#8f6c68;fill-opacity:0.701961;"/><path d="M2439.87,1010.5c-27.328,-14.465 -47.948,-35.489 -55.359,-65.965c18.649,3.891 37.147,3.648 55.279,-4.404l0.08,70.369Z" style="fill:#8f6c68;fill-opacity:0.701961;"/><path d="M2331.51,945.114c-15.458,36.338 -14.589,71.868 -4.321,102.454c-14.09,-8.488 -26.395,-21.328 -36.484,-34.459c-10.347,21.852 -18.288,35.96 -23.854,41.008c-15.051,-12.251 -25.014,-31.023 -35.731,-48.498c-0.925,-1.483 -2.419,-2.52 -4.131,-2.87c-1.712,-0.349 -3.493,0.02 -4.926,1.022c-12.583,8.969 -24.488,20.445 -32.509,34.275c-34.988,-0.888 -51.115,-45.533 -46.442,-72.441c8.799,8.293 18.449,14.146 31.189,11.139c25.415,-6.022 47.439,-19.26 67.359,-36.977c15.624,15.18 31.626,23.244 42.237,23.212c18.956,0.588 34.142,-6.821 47.613,-17.865Z" style="fill:#8f6c68;fill-opacity:0.701961;"/><path d="M2439.53,895.593c0,0 -38.933,5.326 -53.568,7.329c-1.445,0.197 -2.75,0.966 -3.625,2.133c-0.874,1.167 -1.244,2.636 -1.027,4.078c0.962,6.393 2.424,16.118 2.424,16.118l-23.895,3.306c0,0 -0.493,-9.889 -0.816,-16.365c-0.069,-1.394 -0.732,-2.693 -1.821,-3.566c-1.089,-0.874 -2.5,-1.24 -3.877,-1.006c-66.227,11.261 -133.001,21.402 -200.804,29.435c-3.801,0.172 -6.35,-1.373 -7.068,-5.428c0.775,-4.324 2.577,-7.23 8.18,-8.097c0,0 173.936,-32.231 200.306,-37.117c1.919,-0.356 3.292,-2.056 3.237,-4.006c-0.291,-10.349 -1.151,-40.842 -1.151,-40.842c0.24,-14.913 7.903,-21.584 20.646,-22.614c-0.43,18.68 0.638,37.211 2.702,56.701c0.186,1.742 1.083,3.329 2.478,4.387c1.395,1.059 3.164,1.495 4.892,1.206c17.662,-2.9 35.254,-5.485 52.729,-11.385l0.058,25.733Z" style="fill:#8f6c68;fill-opacity:0.701961;"/><path d="M2439.96,798.415c-9.635,1.133 -18.367,9.014 -26.841,18.837c-12.082,-11.979 -24.635,-22.195 -41.38,-16.683c-21.217,5.384 -39.691,27.962 -57.525,54.558c-18.276,-0.976 -31.613,-12.974 -43.625,-28.165c-14.577,29.586 -32.606,46.556 -51.705,47.785c-0.364,0.015 -0.703,-0.186 -0.864,-0.512c-0.162,-0.327 -0.116,-0.718 0.116,-0.999c14.271,-18.101 11.804,-50.565 7.769,-75.179c-0.172,-1.032 0.246,-2.073 1.082,-2.7c0.837,-0.627 1.953,-0.735 2.895,-0.281c1.199,0.603 2.36,1.309 3.213,2.221c7.648,8.165 17.623,13.212 31.135,11.693c6.123,-0.471 11.574,-9.254 13.811,-18.183c0.142,-0.584 0.611,-1.031 1.201,-1.143c0.59,-0.113 1.192,0.13 1.539,0.62c9.075,12.818 18.272,21.763 27.73,20.742c30.171,-2.513 64.395,-23.826 94.998,-43.168c14.967,9.826 26.477,18.759 36.706,18.796l-0.255,11.761Z" style="fill:#8f6c68;fill-opacity:0.701961;"/><path d="M2440.21,747.837c0,0 -49.258,7.203 -63.423,9.274c-2.19,0.321 -3.85,2.143 -3.964,4.354c-0.15,2.897 -0.332,6.393 -0.332,6.393l-19.087,10.202c0,0 -0.911,-7.769 -1.551,-13.219c-0.16,-1.366 -0.868,-2.609 -1.962,-3.443c-1.094,-0.835 -2.479,-1.189 -3.839,-0.983c-23.758,3.608 -120.983,18.371 -120.983,18.371c-3.67,0.767 -6.298,0.064 -7.012,-3.893c-0.642,-3.558 1.379,-5.777 7.163,-7.771c0,0 96.511,-16.24 120.944,-20.351c3.179,-0.535 5.459,-3.358 5.314,-6.578c-0.894,-19.809 -3.836,-85.002 -3.836,-85.002l18.449,9.11c0,0 2.938,51.307 4.015,70.106c0.097,1.706 0.932,3.286 2.287,4.328c1.356,1.042 3.097,1.444 4.771,1.1c17.438,-3.581 63.046,-12.945 63.046,-12.945l0,20.947Z" style="fill:#8f6c68;fill-opacity:0.701961;"/><path d="M2440.21,655.191c-56.245,4.236 -94.504,-17.676 -111.678,-65.39c17.05,15 34.874,23.986 54.787,16.769c19.741,-7.813 23.822,-15.637 34.953,-30.714c6.833,-5.262 14.77,-9.036 21.938,-11.054l0,90.389Z" style="fill:#8f6c68;fill-opacity:0.701961;"/><path d="M2310.45,595.666c6.564,42.222 -9.935,78.602 -59.147,107.667c-7.719,4.657 -14.018,10.637 -19.965,16.945c2.667,-9.73 1.684,-26.897 -0.16,-38.096c-10.551,-16.219 -13.339,-32.623 -14.262,-40.203c-1.501,-12.323 6.154,-28.382 11.652,-31.725c3.307,-2.01 2.576,-8.739 5.688,-11.77c2.197,18.271 10.496,27.739 17.94,29.231c19.597,2.171 38.987,-10.482 58.254,-32.049Z" style="fill:#8f6c68;fill-opacity:0.701961;"/><path d="M2440.08,540.292c0,0 -56.687,11.317 -75.689,15.111c-3.527,0.704 -6.017,3.87 -5.871,7.463c0.385,9.495 1.074,26.478 1.074,26.478c-5.563,-0.571 -12.558,-3.625 -15.723,-8.853c0,0 0.196,-4.882 0.402,-10.006c0.113,-2.791 -1.067,-5.479 -3.197,-7.286c-2.13,-1.808 -4.974,-2.533 -7.71,-1.968c-28.652,5.926 -101.525,20.996 -101.525,20.996c-4.474,-0.794 -6.232,-2.798 -5.008,-6.13c-1.168,-3.127 1.663,-4.872 7.028,-6.074c0,0 78.176,-18.418 101.381,-23.886c3.728,-0.878 6.311,-4.274 6.162,-8.101c-0.58,-14.852 -1.98,-50.714 -2.518,-64.488c-0.121,-3.103 -2.629,-5.579 -5.733,-5.661c-3.971,-0.104 -9.375,-0.245 -13.75,-0.359c-4.301,-0.113 -7.916,-3.266 -8.612,-7.512c-4.232,-25.115 -15.783,-45.403 -28.021,-60.197c-1.981,-2.392 -2.623,-5.621 -1.707,-8.588c0.917,-2.968 3.267,-5.273 6.252,-6.131c12.733,-3.511 26.371,-6.034 40.534,-7.529c3.214,-0.33 5.652,-3.045 5.636,-6.275c-0.047,-10.402 -0.151,-31.321 -0.151,-31.321c-0.35,-3.199 2.432,-4.544 6.263,-5.268c2.624,-0.082 4.458,1.843 5.826,4.952c0,0 0.757,20.691 1.166,31.874c0.064,1.75 0.873,3.389 2.222,4.505c1.35,1.116 3.112,1.603 4.843,1.337c14.204,-1.902 29.859,-0.72 44.059,2.229c2.053,0.451 3.736,1.916 4.464,3.888c0.729,1.972 0.403,4.18 -0.864,5.858c-21.356,28.286 -24.477,52.528 -23.917,72.993c0.068,2.269 -1.526,4.25 -3.757,4.668c-4.124,0.775 -10.658,1.999 -15.297,2.868c-3.135,0.587 -5.345,3.414 -5.157,6.598c0.736,12.516 2.526,42.93 3.402,57.81c0.123,2.085 1.173,4.006 2.862,5.236c1.689,1.229 3.84,1.638 5.862,1.113c20.991,-5.441 74.901,-19.418 74.901,-19.418l-0.132,19.074Zm-113.619,-88.951c-1.377,0.529 -2.919,0.413 -4.201,-0.317c-1.283,-0.729 -2.17,-1.995 -2.419,-3.45c-2.752,-15.228 -8.412,-29.351 -16.543,-42.264c-1.169,-1.817 -1.332,-4.104 -0.431,-6.068c0.901,-1.964 2.741,-3.332 4.88,-3.631c20.326,-2.781 41.109,-4.348 61.51,-5.146c2.949,-0.109 5.737,1.346 7.333,3.828c1.597,2.483 1.764,5.623 0.44,8.261c-6.773,13.292 -10.44,26.931 -10.404,40.34c0.014,1.826 -0.787,3.563 -2.185,4.737c-1.397,1.175 -3.246,1.665 -5.042,1.337c-11.379,-2.091 -22.589,-1.56 -32.938,2.373Z" style="fill:#8f6c68;fill-opacity:0.701961;"/><path d="M2440.21,1163.88c-64.454,-31.171 -147.587,-53.585 -261.692,-61.479c-18.096,-1.776 -28.245,5.278 -20.859,25.245c14.409,44.115 26.155,83.867 31.942,119.067l-27.717,-6.304c-17.775,-49.899 -47.347,-121.156 -102.142,-161.055c-25.313,-18.432 -53.248,-29.213 -74.956,-44.947c-9.142,-5.345 -11.865,-11.955 -5.81,-20.295c4.884,-5.52 11.919,-4.848 20.373,-0.09c65.465,37.396 137.397,54.54 214.855,61.229c69.245,5.98 146.226,27.3 226.006,63.608l0,25.021Z" style="fill:#8f6c68;fill-opacity:0.701961;"/><path d="M2060.87,1209.47c4.957,-28.886 17.686,-53.275 31.292,-68.608l-20.743,-21.548c-20.787,23.501 -31.573,51.327 -29.398,84.758l18.849,5.398Z" style="fill:#8f6c68;fill-opacity:0.701961;"/><path d="M2109.6,1226.94c3.047,-8.673 9.378,-16.142 14.866,-22.865c-5.461,-10.041 -9.86,-20.74 -13.007,-32.217c-13.609,10.242 -17.394,28.123 -19.295,51.083l17.436,3.999Z" style="fill:#8f6c68;fill-opacity:0.701961;"/><path d="M2282.55,1562.73c3.911,-6.444 62.852,-4.767 88.785,-6.007c16.584,-0.794 25.586,-17.778 28.019,-27.956c-3.19,-9.063 -1.415,-27.016 -44.658,-42.121c-44.763,-27.125 -71.198,-63.008 -71.916,-62.238l13.223,-18.5c3.898,5.105 27.818,23.776 56.11,33.202c14.772,4.921 40.3,9.857 50.748,10.459c8.364,0.482 20.763,3.879 37.352,2.877l-0.297,67.048c-4.43,27.164 -20.771,40.637 -46.573,43.236l-110.793,0Z" style="fill:#8f6c68;fill-opacity:0.701961;"/><path d="M2440.21,1379.04c-43.146,-12.24 -98.61,-15.184 -140.084,-4.604c1.225,-10.965 0.108,-21.08 -2.153,-30.329c46.706,-6.559 94.056,-2.916 142.237,13.896l0,21.037Z" style="fill:#8f6c68;fill-opacity:0.701961;"/><path d="M2440.21,1327.52c-51.12,-20.775 -102.697,-28.424 -154.83,-20.107c-6.419,-11.272 -14.407,-20.872 -23.799,-28.974c55.625,-5.439 114.195,0.358 178.629,28.528l0,20.553" style="fill:#8f6c68;fill-opacity:0.8;"/><path d="M2440.21,1271.28c-76.067,-35.402 -150.554,-44.585 -223.313,-25.115l-9.865,-30.891c76.634,-14.556 154.406,-1.118 233.178,36.924l0,19.082" style="fill:#8f6c68;fill-opacity:0.701961;"/><path d="M2440.21,1221.04c-82.916,-44.103 -164.002,-59.978 -243.102,-45.209l-9.155,-31.347c81.466,-2.905 165.599,15.384 252.257,53.74l0,22.816" style="fill:#8f6c68;fill-opacity:0.701961;"/></g><g id="Chest"><path d="M1904.36,1489.46l-14.33,-36.262l119.986,-76.946l54.352,-134.324l163.077,49.422c29.822,16.67 39.127,44.267 35.568,78.716c-17.027,32.049 -39.146,47.444 -66.124,46.946l18.366,51.411c-23.236,-8.358 -44.476,-4.367 -62.926,15.121c-20.773,-21.022 -45.631,-30.609 -82.392,-6.876c-49.864,-18.995 -88.61,-9.367 -118.669,17.091c-15.03,-4.674 -30.57,-7.155 -46.908,-4.299Z" style="fill:#8f6c68;fill-opacity:0.701961;"/><path d="M1951.51,1484.07c-0.7,0.6 -1.602,0.911 -2.523,0.871c-5.135,-0.256 -9.168,-2.515 -12.005,-6.965c-0.647,-0.981 -0.837,-2.194 -0.521,-3.325c0.316,-1.132 1.107,-2.071 2.169,-2.573c6.875,-3.288 21.552,-10.241 28.176,-13.378c0.85,-0.403 1.485,-1.153 1.743,-2.058c0.258,-0.905 0.113,-1.877 -0.398,-2.667c-2.717,-4.206 -7.524,-11.647 -10.275,-15.907c-0.554,-0.856 -0.743,-1.898 -0.527,-2.894c0.217,-0.996 0.821,-1.866 1.68,-2.416c2.984,-1.911 7.376,-4.723 10.285,-6.586c0.752,-0.481 1.677,-0.61 2.532,-0.351c0.855,0.259 1.553,0.878 1.912,1.696c2.04,4.647 5.769,13.142 7.934,18.073c0.419,0.955 1.236,1.679 2.234,1.982c0.999,0.302 2.08,0.152 2.959,-0.41c4.896,-3.132 13.743,-8.792 18.872,-12.074c1.053,-0.674 2.33,-0.901 3.551,-0.632c1.221,0.269 2.285,1.012 2.958,2.066c2.816,4.412 7.398,11.591 10.69,16.748c0.766,1.201 0.814,2.725 0.126,3.972c-0.689,1.247 -2.004,2.018 -3.429,2.01c-24.225,-0.01 -48.484,8.081 -68.143,24.818Zm-29.162,-5.769c0,0 -8.722,-16.586 -12.9,-24.533c-1.225,-2.329 -0.419,-5.209 1.837,-6.563c15.886,-9.535 74.222,-44.55 90.753,-54.473c1.157,-0.694 2.544,-0.893 3.849,-0.553c1.306,0.34 2.419,1.192 3.089,2.363c7.757,13.547 30.929,54.021 36.881,64.417c0.907,1.584 2.353,2.789 4.075,3.396c3.138,1.107 8.56,3.018 13.602,4.796c1.876,0.661 3.965,0.093 5.248,-1.427c1.282,-1.521 1.491,-3.676 0.523,-5.414c-10.177,-18.268 -30.219,-54.248 -38.573,-69.244c-0.672,-1.207 -0.575,-2.696 0.25,-3.804c0.824,-1.109 2.222,-1.631 3.571,-1.334c28.792,6.331 130.225,28.636 147.608,32.459c1.6,0.352 2.936,1.444 3.599,2.942c3.144,7.109 12.448,28.138 15.749,35.6c0.725,1.639 2.295,2.744 4.083,2.874c2.132,0.155 5.166,0.375 8.151,0.591c1.966,0.143 3.848,-0.82 4.883,-2.497c1.034,-1.678 1.05,-3.792 0.04,-5.485c-4.244,-7.114 -10.187,-17.074 -14.275,-23.926c-0.958,-1.606 -1.035,-3.588 -0.204,-5.263c0.831,-1.675 2.455,-2.814 4.313,-3.024c26.174,-3.192 49.253,-23.54 59.336,-54.27c4.561,-32.537 -3.56,-60.717 -37.506,-80.026c0,0 -139.618,-46.262 -167.098,-55.368c-2.616,-0.867 -5.454,0.462 -6.463,3.026c-7.853,19.961 -39.221,99.681 -49.881,126.774c-2.319,5.893 -6.436,10.905 -11.767,14.323c-23.239,14.905 -88.906,57.02 -105.168,67.45c-2.07,1.328 -2.758,4.032 -1.574,6.188c5.125,9.329 17.838,32.472 17.838,32.472c5.479,1.19 10.837,-0.01 16.131,-2.467Zm155.785,-28.458c-1.993,-0.306 -3.735,-1.507 -4.729,-3.261c-1.349,-2.379 -3.307,-5.835 -4.824,-8.511c-0.413,-0.729 -0.368,-1.631 0.115,-2.316c0.483,-0.685 1.318,-1.029 2.143,-0.884c9.171,1.611 30.09,5.285 41.901,7.359c1.483,0.261 2.98,-0.381 3.814,-1.635c0.834,-1.254 0.847,-2.883 0.033,-4.15c-3.762,-5.858 -8.954,-13.94 -12.287,-19.13c-0.556,-0.864 -0.538,-1.978 0.044,-2.824c0.582,-0.847 1.616,-1.261 2.622,-1.052c4.654,0.968 10.793,2.244 13.6,2.828c0.967,0.201 1.803,0.803 2.301,1.656c2.856,4.902 12.735,21.86 16.045,27.541c0.686,1.177 1.889,1.959 3.243,2.109c4.164,0.46 13.479,1.489 19.929,2.201c1.038,0.115 1.893,0.866 2.14,1.881c0.247,1.015 -0.167,2.076 -1.036,2.655c-3.111,2.073 -6.743,4.493 -8.8,5.864c-1.058,0.705 -2.342,0.989 -3.599,0.797c-10.439,-1.599 -59.655,-9.137 -72.655,-11.128Zm-7.798,-69.382c-0.811,-0.184 -1.406,-0.878 -1.462,-1.708c-0.057,-0.83 0.437,-1.599 1.216,-1.891c25.086,-9.525 42.979,-25.629 48.191,-45.467c5.585,-23.388 0.443,-49.735 -17.652,-73.299c-0.552,-0.709 -0.573,-1.697 -0.053,-2.43c0.521,-0.732 1.46,-1.037 2.312,-0.75c26.488,8.918 121.905,41.102 121.905,41.102c26.388,12.832 34.167,47.399 31.117,69.489c-12.675,28.834 -32.733,45.488 -64.855,42.234c0,0 -94.983,-21.464 -120.719,-27.28Zm49.216,-34.509c8.911,-6.423 13.521,-22.175 10.202,-35.967c0,0 24.279,9.158 31.841,12.011c1.319,0.497 2.158,1.799 2.065,3.206c-0.249,3.781 -0.708,10.76 -0.708,10.76c0,0 11.056,3.211 16.407,4.765c0.728,0.212 1.513,0.096 2.149,-0.318c0.635,-0.415 1.059,-1.085 1.159,-1.837c0.84,-6.162 0.615,-10.965 -1.62,-13.214c-1.046,-1.038 -1.67,-2.428 -1.749,-3.9c-0.692,-10.901 -4.586,-20.796 -9.287,-29.492c-0.51,-0.932 -0.402,-2.08 0.274,-2.9c0.676,-0.82 1.783,-1.145 2.795,-0.821c6.285,2 15.379,4.909 18.585,5.934c0.782,0.25 1.448,0.773 1.877,1.472c5.137,8.716 5.499,20.691 4.275,33.935l-5.013,1.606c0,0 -0.492,7.675 -0.73,11.397c-0.072,1.132 0.705,2.143 1.817,2.364c3.622,0.719 11.406,2.265 15.5,3.078c0.773,0.154 1.576,-0.01 2.227,-0.454c0.651,-0.444 1.097,-1.132 1.236,-1.908c0.137,-1.112 0.212,-2.214 0.133,-3.313c-0.081,-0.914 0.298,-1.809 1.011,-2.387c0.713,-0.577 1.667,-0.762 2.545,-0.493c8.436,2.483 24.842,7.52 24.842,7.52c5.157,5.039 5.145,8.559 4.289,16.104c-1.789,5.895 -4.136,10.633 -7.547,12.814c0,0 -21.058,-4.361 -30.081,-6.23c-0.881,-0.183 -1.623,-0.772 -2,-1.589c-0.377,-0.817 -0.344,-1.765 0.088,-2.554c1.341,-2.337 2.138,-4.774 2.318,-7.307c0.064,-1.374 -0.894,-2.584 -2.246,-2.838c-3.535,-0.709 -10.469,-2.01 -14.356,-2.739c-1.602,-0.301 -3.174,0.649 -3.652,2.207c-1.033,3.363 -2.745,8.936 -3.531,11.498c-0.266,0.866 -0.143,1.805 0.337,2.573c0.553,0.885 1.312,2.1 1.939,3.104c0.719,1.15 0.761,2.597 0.111,3.787c-3.884,7.057 -8.295,12.957 -13.182,17.816c-0.987,0.965 -2.402,1.351 -3.742,1.021c-4.247,-1.04 -13.839,-3.4 -19.476,-4.788c-0.814,-0.201 -1.446,-0.843 -1.632,-1.661c-0.187,-0.817 0.103,-1.67 0.749,-2.205c6.577,-5.501 12.435,-11.851 17.21,-19.478c0.602,-0.971 1.7,-1.518 2.837,-1.414c0.388,0.031 0.804,0.069 1.218,0.107c1.719,0.157 3.332,-0.845 3.954,-2.455c1.102,-2.85 2.837,-7.344 4.051,-10.485c0.356,-0.922 0.308,-1.952 -0.132,-2.837c-0.441,-0.885 -1.233,-1.544 -2.183,-1.816c-5.121,-1.464 -13.739,-3.928 -13.739,-3.928c0,0 -5.603,6.342 -8.517,9.641c-1.05,1.188 -2.688,1.671 -4.214,1.241c-7.723,-2.171 -30.704,-8.633 -30.704,-8.633Zm-88.476,17.417c-1.886,0.223 -3.749,-0.572 -4.892,-2.089c-1.144,-1.517 -1.396,-3.526 -0.663,-5.278c4.411,-10.544 12.366,-29.551 15.984,-38.194c0.498,-1.191 1.451,-2.134 2.646,-2.62c1.196,-0.487 2.536,-0.478 3.725,0.026c8.989,3.813 28.348,12.023 28.348,12.023c4.806,1.594 8.811,0.32 11.719,-4.878c0.619,-6.199 -2.63,-9.385 -7.836,-11.047c0,0 -16.896,-6.322 -26.14,-9.78c-1.543,-0.577 -2.785,-1.754 -3.445,-3.263c-0.66,-1.509 -0.681,-3.22 -0.057,-4.744c3.511,-8.587 10.077,-24.643 13.845,-33.856c0.655,-1.602 2.074,-2.765 3.773,-3.093c1.699,-0.328 3.449,0.224 4.653,1.467c19.438,20.209 26.279,43.941 21.36,67.51c-4.995,23.939 -44.657,35.604 -63.02,37.816Z" style="fill:#181616;"/></g><path id="Boat" d="M235.18,366.803c-7.83,-15.305 -14.306,-32.125 -17.089,-53.075c-3.357,-10.939 3.812,-15.542 15.348,-16.048l476.912,-1.851c72.828,1.217 139.445,-5.527 199.722,-20.397c-2.685,22.776 -13.882,47.801 -33.202,74.973c-22.56,16.782 -42.665,15.475 -62.126,10.362c-48.068,-12.629 -93.824,-15.623 -135.494,-2.341c-48.488,18.633 -100.831,17.303 -157.482,-6.344c-37.208,-16.29 -74.892,-17.311 -113.149,0.099c-24.72,16.937 -55.28,19.709 -93.243,4.527c-22.973,-1.087 -46.758,2.594 -72.031,15.015c-38.501,90.365 -56.37,220.124 -43.877,284.944c14.026,97.467 40.974,162.87 65.595,215.358c33.235,70.85 25.162,151.273 5.627,231.543c-1.099,1.864 -2.228,2.005 -4.371,1.359c-1.784,-0.539 -2.346,-1.94 -1.684,-4.981c29.968,-112.374 11.028,-196.841 -35.62,-290.4c-58.983,-155.947 -46.223,-260.619 -21.363,-354.265l27.527,-88.478" style="fill:#8f6c68;fill-opacity:0.701961;"/><g id="Ground"><path d="M0,989.982c3.897,0 11.615,1.752 15.555,3.296c10.061,3.943 10.626,14.849 11.457,22.734c0.368,3.49 -0.176,12.808 -1.49,16.296c-1.544,4.097 -4.071,7.754 -6.031,11.668c-5.846,11.671 -17.607,31.317 -0.155,39.356c6.313,2.909 12.452,0.059 16.42,-4.299c0.8,-0.878 7.306,-11.316 7.86,-13.549c0.746,-3.003 0.376,-7.369 0.162,-10.457c-1.297,-18.676 10.971,-37.166 31.448,-34.914c2.092,0.23 4.152,0.818 6.113,1.58c13.3,5.17 13.277,20.432 6.377,31.25c-2.169,3.4 -5.192,7.829 -8.296,10.403c-11.067,9.177 -24.897,10.04 -27.517,26.614c-0.697,4.409 -0.477,9.272 2.303,12.93c6.146,8.087 18.39,7.669 25.657,1.532c4.939,-4.171 8.009,-8.287 8.361,-14.577c0.423,-7.562 13.689,-24.355 25.73,-25.963c21.837,-2.915 33.18,23.029 13.194,38.747c-14.375,11.305 -23.478,2.496 -48.913,21.356c-4.962,3.679 -13.021,8.939 -11.86,16.371c1.452,9.289 12.111,18.764 22.003,13.656c3.365,-1.738 10.516,-5.763 11.578,-6.285c2.728,-1.342 8.946,-4.03 12.02,-4.346c5.87,-0.603 15.966,-1.344 18.407,8.332c0.852,3.378 0.715,6.979 0.358,10.445c-1.047,10.157 -12.863,14.072 -23.206,15.576c-1.257,0.183 -17.624,-0.974 -19.085,-1.885c-5.469,-3.408 -11.671,-4.668 -15.112,-4.416c-2.054,0.151 -9.055,1.117 -12.354,2.949c-4.1,2.277 -7.395,5.02 -10.308,7.675c-7.157,6.524 -7.952,15.606 -9.624,25.362c-1.504,8.778 -1.766,17.572 -5.998,25.775c-1.582,3.067 -20.325,5.18 -26.399,7.235c-1.906,0.645 -8.655,1.694 -8.655,0.323" style="fill:#48992e;fill-opacity:0.701961;"/><path d="M1036.78,1542.62c-4.269,5.268 -10.351,-9.143 -12.675,-31.76c-2.42,-23.548 -13.351,-45.789 -21.405,-65.707c-28.436,-47.105 -28.138,-86.155 11.662,-111.157c16.053,-10.204 21.984,-26.179 14.797,-49.635c0.289,-31.365 13.889,-48.053 30.169,-59.361c-4.069,12.161 -6.202,25.094 -0.82,39.206c13.523,50.343 -1.838,85.626 -26.661,116.688c-18.233,16.123 -9.001,104.071 4.811,141.43c2.864,7.747 6.286,14.705 0.122,20.296Z" style="fill:#48992e;fill-opacity:0.701961;"/><path d="M1063.54,1538.24c14.091,-43.847 7.242,-67.054 0,-89.874c-10.605,-30.112 -10.914,-57.814 6.92,-81.268c14.634,-15.562 26.139,-35.2 34.796,-58.549c0.417,11.389 -0.629,22.785 -4.895,34.194c-10.715,23.663 -10.635,46.338 -2.662,68.291c12.831,28.327 11.307,51.771 -2.833,70.922c-8.858,20.482 -14.027,41.069 -15.938,61.749c-1.953,6.544 -4.458,11.726 -10.209,8.903c-6.118,-1.765 -7.389,-6.868 -5.179,-14.368Z" style="fill:#48992e;fill-opacity:0.701961;"/><path d="M1398.19,1550.91c0,-8.009 1.395,-14.063 2.653,-21.556c0.643,-3.828 -0.427,-10.47 0.411,-15.053c1.947,-10.64 11.2,-20.296 3.597,-28.905c-3.671,-4.157 -7.266,-5.109 -13.218,-3.631c-4.156,1.032 -9.816,4.339 -13.329,5.724c-8.113,3.2 -15.419,6.477 -24.006,4.316c-4.349,-1.095 -10.775,-13.832 -8.122,-18.584c8.397,-15.037 27.001,-9.305 37.004,-8.05c7.267,0.911 16.844,-0.86 19.587,-9.18c3.919,-11.887 -13.57,-19.783 -23.72,-21.902c-3.194,-0.667 -7.313,-2.759 -10.476,-3.555c-3.395,-0.855 -9.398,-8.672 -11.713,-10.986c-4.442,-4.442 -3.846,-19.688 -3.138,-21.763c0.73,-2.14 7.112,-7.791 9.107,-8.756c2.656,-1.285 10.06,-1.33 13.797,-1.127c9.307,0.506 16.23,11.223 20.999,18.871c6.075,9.742 17.885,16.478 25.213,10.349c6.876,-5.751 6.909,-11.937 6.987,-19.192c0.015,-1.447 -5.338,-30.098 0.547,-41.321c2.648,-5.049 5.602,-12.164 14.087,-15.208c4.099,-1.471 13.781,-0.713 17.982,1.747c6.997,4.096 9.501,12.812 9.501,20.182c0,4.606 -1.365,8.703 -2.467,13.876c-2.433,11.418 -12.684,19.387 -14.688,22.779c-3.539,5.992 -7.436,14.224 -3.788,21.323c6.243,12.148 22.606,-2.291 32.33,-9.429c12.267,-9.006 22.937,-6.092 26.702,-3.542c5.883,3.984 10.594,9.237 9.37,17.902c-2.034,14.393 -10.38,18.694 -21.318,19.248c-5.009,0.254 -11.555,0.079 -15.398,-0.889c-3.202,-0.806 -5.457,-1.376 -8.72,-2.234c-5.594,-1.471 -19.538,-0.049 -24.792,1.696c-8.353,2.772 -13.123,3.869 -18.011,12.389c-0.762,1.327 0.911,6.7 1.535,8.349c1.019,2.695 1.477,3.953 4.94,5.119c10.638,3.582 15.8,0.633 22.217,-3.142c3.347,-1.969 13.846,-5.117 18.589,-4.433c10.151,1.465 13.919,3.191 19.026,10.001c5.396,7.194 1.234,17.013 -3.147,23.124c-2.415,3.369 -10.922,4.815 -15.432,5.563c-16.628,2.76 -23.288,-10.727 -33.196,-12.899c-2.361,-0.518 -5.866,0.015 -8.243,0.289c-8.087,0.932 -11.473,5.495 -12.53,8.839c-0.599,1.897 -9.337,18.269 -7.745,23.382c0.784,2.519 2.536,4.796 3.31,7.281c1.327,4.263 0.557,13.142 -0.719,17.179c-2.326,7.361 -13.544,16.395 -20.241,9.699" style="fill:#48992e;fill-opacity:0.701961;"/><path d="M346.513,1272.4c0,0 3.187,-7.382 3.873,-8.926c4.239,-9.53 5.339,-19.564 -2.935,-27.582c-3.504,-3.396 -6.486,-3.784 -10.58,-5.173c-5.226,-1.772 -8.229,-3.56 -13.047,-6.253c-4.947,-2.765 -10.202,-7.996 -6.375,-12.642c8.911,-10.821 21.534,5.313 27.922,7.247c2.764,0.837 8.633,-1.61 11.701,-6.913c8.093,-13.984 -7.037,-20.35 -11.792,-33.189c-4.503,-12.157 1.415,-25.969 17.184,-23.505c16.891,2.638 10.693,25.801 11.541,34.441c0.623,6.348 2.899,11.613 9.918,11.539c9.601,-0.102 10.856,-4.883 15.834,-13.084c3.574,-5.887 3,-16.645 7.861,-21.786c4.709,-4.98 9.61,-9.346 23.334,-8.472c10.765,0.686 16.814,18.553 7.89,32.062c-7.792,11.796 -19.133,14.231 -29.921,16.37c-3.121,0.618 -7.388,4.811 -8.359,7.36c-1.006,2.638 -1.068,5.697 -0.749,8.401c0.514,4.369 8.529,7.031 11.388,7.59c2.791,0.546 7.327,-2.712 11.819,-3.967c4.938,-1.38 12.101,-0.878 12.101,-0.878c2.421,-0.305 14.367,6.177 11.657,13.136c-0.626,1.606 -3.068,6.164 -4.499,7.124c-13.808,9.268 -21.844,0.475 -34.211,-3.882c-10.048,-3.539 -16.696,-0.299 -24.986,3.295c-5.552,2.408 -12.249,6.899 -17.074,10.273c-1.921,1.342 -3.405,3.734 -4.528,5.791c-1.991,3.646 -5.361,10.63 -6.496,14.627" style="fill:#48992e;fill-opacity:0.701961;"/><path d="M585.778,1438.51c6.253,-11.877 8.061,-21.466 8.379,-35.594c0.133,-5.88 -3.237,-24.542 -5.745,-30.176c-2.858,-6.42 -8.085,-15.876 -15.435,-18.236c-8.981,-2.883 -11.962,-1.648 -19.455,-7.492c-5.153,-4.019 -10.538,-11.94 -6.604,-18.85c7.867,-13.82 22.199,-1.464 30.067,4.837c3.539,2.834 6.542,6.355 10.324,8.856c1.928,1.275 4.231,2.237 6.541,2.296c8.885,0.223 15.539,-12.364 14.299,-20.936c-1.422,-9.819 -5.998,-13.126 -11.066,-20.203c-2.549,-3.56 -6.713,-5.119 -11.319,-6.91c-2.041,-0.793 -10.245,-3.631 -12.423,-3.415c-6.888,0.684 -15.62,0.424 -22.915,-2.187c-10.941,-3.916 -19.512,-17.498 -11.221,-30.01c4.411,-6.654 18.6,-7.681 24.421,-5.395c10.084,3.961 16.893,15.094 27.813,16.842c5.688,0.911 13.518,0.062 16.348,-5.895c1.794,-3.776 3.264,-8.81 3.827,-12.953c1.881,-13.83 -6.896,-22.058 -17.116,-30.918c-3.577,-3.102 -9.998,-8.273 -13.802,-9.828c-6.02,-2.462 -11.283,-3.139 -16.713,-4.414c-7.815,-1.835 -7.652,-2.403 -14.048,-7.217c-1.942,-1.462 -5.353,-10.387 -5.736,-17.593c-0.722,-13.602 1.488,-20.532 10.911,-27.941c2.869,-2.256 10.178,-3.719 13.768,-3.069c9.731,1.762 15.326,9.758 18.149,17.563c1.32,3.649 17.151,24.483 24.797,24.962c5.842,0.366 14.92,-6.509 17.46,-12.73c6.404,-15.685 -1.484,-26.419 -3.789,-40.455c-0.151,-0.919 -0.432,-13.97 4.007,-19.635c4.605,-5.878 9.412,-10.487 16.527,-12.753c4.471,-1.424 16.109,-1.165 21.371,0.973c3.445,1.4 7.93,5.402 10.221,8.143c7.179,8.588 11.396,18.054 7.515,30.295c-1.201,3.791 -7.419,16.751 -9.675,20.026c-10.295,14.945 -18.493,19.282 -29.458,33.605c-3.941,5.149 -6.871,6.08 -11.763,10.715c-6.011,5.695 -9.252,9.462 -6.366,18.618c3.027,9.601 8.871,9.56 16.672,6.023c3.021,-1.369 5.888,-3.107 8.556,-5.078c5.662,-4.181 10.04,-12.574 15.44,-17.089c3.618,-3.026 6.496,-5.592 10.801,-7.641c7.037,-3.351 21.019,-0.16 24.562,7.641c8.868,19.525 -5.895,44.812 -23.267,45.563c-11.602,0.501 -19.468,-4.444 -30.633,-0.745c-11.086,3.672 -15.222,6.531 -24.075,16.881c-1.68,1.964 -4.418,11.634 -4.513,13.748c-0.626,13.922 7.804,17.79 11.382,19.386c4.202,1.874 19.429,-3.662 30.236,-9.062c19.348,-9.669 27.377,-8.583 34.933,0.137c8.22,9.485 4.044,26.469 -6.343,33.459c-6.048,4.07 -13.173,7.095 -20.252,6.665c-15.857,-0.963 -24.268,-3.653 -32.344,-1.47c-11.863,3.206 -16.843,4.019 -25.703,23.928c-6.343,14.254 -4.415,19.93 -4.388,35.629c0.031,18.343 0.761,19.271 -1.125,39.039c-0.742,7.769 -2.84,15.043 -5.857,21.236c-0.993,2.04 -10.344,9.97 -12.321,11.195c-5.08,3.148 -9.862,7.201 -14.549,3.102c-1.317,-1.151 -3.479,-7.55 -3.479,-12.433" style="fill:#48992e;fill-opacity:0.701961;"/><path d="M209.066,1262.57c-1.781,-0.352 -3.312,-1.482 -4.174,-3.08c-0.861,-1.598 -0.963,-3.498 -0.278,-5.179c4.008,-9.837 11.347,-27.846 15.204,-37.313c0.647,-1.585 0.594,-3.37 -0.144,-4.915c-0.738,-1.545 -2.094,-2.707 -3.734,-3.201c-3.567,-1.074 -7.936,-2.389 -11.203,-3.372c-2.775,-0.836 -4.575,-3.515 -4.3,-6.4c0.011,-0.105 0.021,-0.211 0.031,-0.317c0.177,-1.852 1.192,-3.522 2.755,-4.531c1.564,-1.008 3.503,-1.246 5.264,-0.644c3.705,1.267 8.385,2.866 12.961,4.43c2.489,0.851 5.244,0.005 6.825,-2.098c1.582,-2.102 1.632,-4.983 0.124,-7.139c-3.634,-5.196 -7.283,-10.413 -9.297,-13.292c-1.008,-1.442 -2.592,-2.377 -4.342,-2.562c-2.091,-0.221 -4.871,-0.516 -6.478,-0.686c-0.854,-0.09 -1.718,0.001 -2.535,0.269c-2.212,0.726 -6.894,2.261 -9.939,3.26c-1.799,0.59 -3.221,1.985 -3.845,3.772c-1.555,4.451 -4.577,13.099 -6.378,18.254c-0.866,2.48 -3.228,4.123 -5.855,4.073c-10.087,-0.19 -34.01,-0.642 -34.01,-0.642c0,0 3.537,-7.173 4.798,-9.731c0.291,-0.591 0.484,-1.225 0.572,-1.879c0.223,-1.659 0.678,-5.048 0.979,-7.29c0.178,-1.326 1.131,-2.417 2.42,-2.772c0.001,0 0.001,0 0.001,0c1.407,-0.388 2.914,-0.127 4.108,0.713c1.194,0.839 1.951,2.168 2.062,3.623c0.071,0.93 0.148,1.925 0.226,2.952c0.189,2.455 1.839,4.554 4.18,5.316c2.341,0.763 4.911,0.038 6.509,-1.836c1.83,-2.146 3.664,-4.296 5.236,-6.139c1.13,-1.325 1.637,-3.07 1.394,-4.794c-0.243,-1.725 -1.213,-3.262 -2.665,-4.222c-5.323,-3.522 -13.125,-8.683 -17.887,-11.834c-2.433,-1.609 -5.665,-1.265 -7.703,0.821c-1.61,1.647 -3.47,3.551 -4.885,4.998c-1.305,1.335 -3.358,1.596 -4.956,0.629c0,0 0,0 -0.001,0c-1.522,-0.921 -2.234,-2.751 -1.735,-4.458c0.778,-2.663 1.919,-6.565 2.649,-9.063c0.452,-1.546 0.272,-3.209 -0.501,-4.622c-1.554,-2.842 -4.168,-7.625 -5.132,-9.388c-0.247,-0.452 -0.436,-0.932 -0.561,-1.431c-0.629,-2.495 -2.609,-10.351 -2.609,-10.351c0,0 28.532,16.893 49.054,29.043c2.391,1.417 5.439,1.03 7.402,-0.937c1.963,-1.968 2.341,-5.017 0.919,-7.405c-5.996,-10.07 -12.592,-21.147 -15.722,-26.404c-1.137,-1.909 -3.225,-3.046 -5.446,-2.965c-7.105,0.261 -22.239,0.815 -22.239,0.815c0,0 4.629,-7.064 6.929,-10.575c0.816,-1.246 1.147,-2.748 0.929,-4.221c-0.305,-2.065 -0.761,-5.147 -1.123,-7.598c-0.325,-2.201 1.079,-4.287 3.241,-4.815c0,0 0,0 0.001,0c2.061,-0.503 4.176,0.602 4.94,2.582c0.555,1.441 1.25,3.242 2.015,5.226c0.997,2.584 3.614,4.168 6.366,3.852c2.751,-0.315 4.942,-2.451 5.328,-5.193c0.462,-3.287 0.876,-6.229 1.159,-8.241c0.247,-1.754 -0.283,-3.528 -1.452,-4.859c-3.265,-3.719 -10.03,-11.424 -13.249,-15.091c-1.09,-1.242 -1.386,-2.992 -0.764,-4.522c0,0 0,-0.001 0,-0.001c0.556,-1.367 1.665,-2.435 3.052,-2.937c1.388,-0.503 2.923,-0.393 4.225,0.302c4.063,2.167 9.627,5.136 13.099,6.988c1.989,1.062 4.403,0.935 6.27,-0.328c3.041,-2.058 7.657,-5.182 10.423,-7.053c1.452,-0.983 3.307,-1.149 4.91,-0.439c0.001,0 0.001,0 0.001,0c1.535,0.679 2.688,2.006 3.146,3.62c0.459,1.614 0.176,3.349 -0.773,4.734c-4.327,6.317 -11.063,16.152 -13.396,19.557c-0.544,0.795 -0.892,1.707 -1.014,2.663c-0.587,4.576 -2.396,18.688 -3.057,23.841c-0.159,1.243 0.069,2.504 0.654,3.611c1.737,3.292 5.614,10.638 8.22,15.575c1.465,2.777 4.803,3.981 7.703,2.78c2.125,-0.881 4.462,-1.849 6.057,-2.509c1.136,-0.47 2.445,-0.102 3.169,0.89c0.001,0 0.001,0.001 0.001,0.001c0.654,0.897 0.922,2.018 0.745,3.114c-0.177,1.096 -0.786,2.075 -1.69,2.719c-0.354,0.253 -0.726,0.518 -1.109,0.791c-1.817,1.296 -2.73,3.518 -2.35,5.716c0.381,2.199 1.988,3.984 4.134,4.594c0.798,0.226 1.565,0.444 2.274,0.645c2.455,0.697 5.083,-0.213 6.582,-2.279c1.858,-2.56 4.379,-6.036 6.215,-8.566c1.453,-2.002 1.547,-4.685 0.239,-6.785c-2.259,-3.628 -5.814,-9.334 -8.295,-13.318c-0.699,-1.121 -1.86,-1.873 -3.169,-2.05c-1.31,-0.178 -2.63,0.237 -3.601,1.132c-0.001,0.001 -0.001,0.001 -0.001,0.001c-0.924,0.851 -2.172,1.26 -3.421,1.12c-1.248,-0.14 -2.374,-0.815 -3.087,-1.849c-0.423,-0.614 -0.855,-1.241 -1.265,-1.837c-1.403,-2.035 -1.433,-4.717 -0.077,-6.784c3.851,-5.87 11.7,-17.833 15.786,-24.061c1.525,-2.324 1.247,-5.393 -0.672,-7.405c-0.529,-0.555 -1.024,-1.074 -1.394,-1.462c-0.407,-0.427 -0.59,-1.021 -0.492,-1.603c0,0 0,0 0,-0.001c0.25,-1.502 1.179,-2.806 2.518,-3.534c1.339,-0.727 2.938,-0.797 4.335,-0.189c2.422,1.052 5.098,2.216 6.964,3.027c1.521,0.662 3.246,0.673 4.776,0.032c3.623,-1.52 10.498,-4.403 14.501,-6.082c1.732,-0.726 3.729,0.049 4.516,1.755c0,0.001 0.001,0.002 0.001,0.003c0.416,0.901 0.454,1.932 0.104,2.861c-0.349,0.929 -1.057,1.68 -1.964,2.083c-3.395,1.511 -8.448,3.759 -11.069,4.925c-1.118,0.498 -2.06,1.321 -2.703,2.362c-2.581,4.182 -9.602,15.557 -13.476,21.835c-1.54,2.494 -1.081,5.732 1.092,7.7c1.677,1.519 3.675,3.328 5.465,4.949c1.255,1.137 2.927,1.698 4.614,1.55c1.686,-0.148 3.235,-0.993 4.272,-2.331c2.168,-2.795 4.743,-6.117 6.464,-8.335c1.209,-1.559 1.586,-3.608 1.012,-5.495c-0.482,-1.583 -1.073,-3.529 -1.57,-5.161c-0.631,-2.076 -0.108,-4.331 1.372,-5.917c0.244,-0.261 0.494,-0.529 0.745,-0.799c1.993,-2.135 5.223,-2.552 7.693,-0.992c1.753,1.108 3.7,2.338 5.107,3.227c1.27,0.802 2.792,1.106 4.272,0.853c2.919,-0.499 8.006,-1.368 11.592,-1.981c2.351,-0.402 4.646,0.965 5.412,3.224c0,0.001 0,0.001 0,0.001c0.829,2.443 -0.355,5.112 -2.722,6.137c-4.929,2.136 -12.864,5.574 -16.18,7.01c-1.003,0.435 -1.871,1.133 -2.511,2.019c-2.042,2.828 -6.89,9.539 -10.76,14.897c-1.205,1.668 -1.484,3.833 -0.741,5.753c0.742,1.92 2.405,3.333 4.419,3.757c4.547,0.956 9.638,2.026 12.358,2.598c1.277,0.268 2.433,0.94 3.299,1.917c1.813,2.045 5.106,5.76 7.508,8.469c1.736,1.958 1.991,4.819 0.631,7.053c-0.001,0.001 -0.001,0.002 -0.002,0.003c-0.981,1.612 -2.662,2.669 -4.539,2.856c-1.878,0.187 -3.734,-0.518 -5.014,-1.905c-1.552,-1.682 -3.105,-3.364 -4.146,-4.492c-0.823,-0.891 -1.893,-1.516 -3.074,-1.794c-3.481,-0.82 -11.226,-2.645 -16.467,-3.879c-3.005,-0.708 -6.063,0.948 -7.112,3.851c-0.899,2.487 -2.012,5.568 -3.07,8.495c-0.74,2.049 -0.328,4.336 1.08,5.997c1.408,1.662 3.597,2.443 5.739,2.049c4.483,-0.825 9.328,-1.717 12.126,-2.231c1.519,-0.28 3.088,0.029 4.387,0.864c2.594,1.667 7.111,4.57 10.074,6.475c1.805,1.159 4.087,1.282 6.006,0.323c4.027,-2.014 11.02,-5.509 15.015,-7.507c1.883,-0.941 3.145,-2.79 3.336,-4.887c0.456,-5.011 1.318,-14.498 1.884,-20.713c0.302,-3.324 -2.132,-6.27 -5.453,-6.6c-2.667,-0.266 -5.606,-0.558 -7.415,-0.738c-1.135,-0.113 -2.215,-0.543 -3.117,-1.24c-0.695,-0.537 -1.592,-1.23 -2.548,-1.97c-0.996,-0.769 -1.41,-2.076 -1.038,-3.279c0.371,-1.202 1.45,-2.048 2.706,-2.121c7.398,-0.435 18.211,-1.071 24.952,-1.467c1.629,-0.096 3.151,-0.842 4.224,-2.072c1.073,-1.229 1.607,-2.839 1.481,-4.466c-0.093,-1.202 -0.19,-2.46 -0.282,-3.652c-0.119,-1.536 0.393,-3.054 1.418,-4.204c1.025,-1.151 2.474,-1.834 4.013,-1.893c0.001,0 0.002,0 0.003,0c1.541,-0.059 3.039,0.513 4.149,1.584c1.11,1.07 1.735,2.547 1.732,4.089c-0.012,5.161 -0.027,12.341 -0.035,15.683c-0.002,1.205 0.353,2.383 1.021,3.385c1.886,2.83 5.716,8.575 5.716,8.575c0,0 -6.803,-1.369 -12.469,-2.51c-1.818,-0.367 -3.704,0.117 -5.122,1.314c-1.417,1.197 -2.211,2.975 -2.155,4.829c0.211,7.007 0.514,17.032 0.667,22.116c0.061,2.014 1.116,3.867 2.816,4.948c2.839,1.804 7.326,4.656 10.611,6.743c1.049,0.667 1.759,1.754 1.947,2.983c0.188,1.229 -0.163,2.479 -0.964,3.429c-0.001,0.001 -0.001,0.001 -0.002,0.002c-0.902,1.07 -2.439,1.346 -3.656,0.655c-3.16,-1.794 -9.146,-5.191 -12.709,-7.213c-1.793,-1.018 -3.979,-1.057 -5.807,-0.106c-4.234,2.203 -12.118,6.305 -17.297,9.001c-2.839,1.477 -4.047,4.902 -2.763,7.833c2.636,6.015 6.877,15.692 8.976,20.481c0.79,1.804 0.658,3.878 -0.354,5.567c-2.485,4.144 -7.262,12.112 -10.155,16.938c-1.417,2.364 -4.249,3.479 -6.898,2.716c-0.958,-0.276 -1.992,-0.574 -3.021,-0.871c-1.749,-0.504 -3.181,-1.766 -3.901,-3.437c-0.72,-1.672 -0.653,-3.579 0.183,-5.196c2.451,-4.742 5.636,-10.907 7.467,-14.45c0.92,-1.781 0.903,-3.9 -0.045,-5.667c-2.306,-4.296 -6.824,-12.714 -10.561,-19.676c-1.116,-2.08 -3.335,-3.326 -5.692,-3.196c-2.357,0.13 -4.426,1.612 -5.306,3.802c-7.963,20.962 -12.782,43.929 -19.366,65.887c-0.91,2.984 -3.931,4.795 -6.992,4.19c-4.522,-0.891 -11.029,-2.177 -16.009,-3.16Z" style="fill:#d29580;fill-opacity:0.701961;"/><path d="M637.373,1515.69c0,-4.241 1.845,-8.313 2.127,-12.544c0.639,-9.591 -0.33,-24.887 -8.421,-31.85c-1.628,-1.401 -5.392,-4.07 -7.434,-4.734c-6.265,-2.037 -15.625,-3.12 -12.596,-11.762c0.816,-2.329 3.709,-5.214 9.108,-3.241c7.433,2.716 11.124,8.772 18.495,9.312c2.222,0.163 5.022,0.154 5.591,-2.908c0.626,-3.361 -3.348,-5.444 -5.126,-7.765c-5.023,-6.561 -14.288,-9.711 -16.792,-11.707c-3.929,-3.132 -5.895,-11.293 -0.658,-14.924c10.414,-7.22 21.264,14.479 24.699,19.586c2.127,3.162 8.586,9.779 13.244,7.216c3.502,-1.927 0.16,-8.163 -0.582,-10.045c-3.504,-8.881 -8.493,-17.565 -6.01,-25.418c1.768,-5.591 6.095,-8.108 10.82,-5.826c3.154,1.522 6.054,5.734 6.479,8.608c1.222,8.259 -0.916,14.518 0.115,22.803c0.313,2.521 2.198,10.94 8.437,8.415c10.179,-4.12 4.735,-17.479 7.153,-26.032c1.54,-5.45 6.572,-10.026 12.365,-8.007c5.986,2.087 6.714,12.964 3.759,18.332c-1.905,3.461 -3.133,5.114 -4.715,8.862c-1.439,3.411 -3.448,7.781 -0.788,10.356c2.6,2.516 10.209,-2.595 11.514,-3.511c4.819,-3.38 10.289,-12.58 17.528,-11.43c4.96,0.788 8.656,6.731 6.82,12.848c-1.735,5.781 -10.73,8.065 -15.079,9.507c-11.161,3.699 -21.399,6.145 -27.017,17.297c-4.41,8.755 -0.312,16.849 2.392,25.397c0.678,2.145 3.603,10.247 2.463,12.495" style="fill:#bc6143;fill-opacity:0.701961;"/><path d="M454.343,1314.82c-0.623,-5.111 -1.314,-10.225 -2.367,-15.265c-1.006,-4.813 -2.053,-9.657 -3.801,-14.252c-0.927,-2.438 -5.551,-6.242 -6.721,-8.477c-2.193,-4.193 -2.03,-13.454 5.258,-12.945c7.316,0.512 7.145,16.812 10.504,20.871c1.066,1.288 3.358,1.746 7.222,-0.596c3.749,-2.274 -0.601,-21.698 3.189,-28.64c1.394,-2.553 7.575,-6.044 11.591,-3.112c1.569,1.146 3.499,3.592 3.39,5.293c-0.731,11.418 -2.307,10.952 -4.732,22.271c-0.625,2.914 -1.017,8.512 3.031,9.845c3.248,1.069 5.921,-3.145 6.537,-4.84c2.364,-6.511 8.884,-28.947 21.727,-19.205c3.811,2.891 1.856,10.511 0.763,12.27c-3.039,4.89 -7.756,8.312 -11.334,12.823c-2.089,2.634 -5.601,4.068 -4.125,8.167c0.965,2.68 6.559,-0.192 7.46,-0.875c7.49,-5.679 7.223,-6.3 12.858,-6.53c1.996,-0.082 7.489,2.206 8.358,4.451c2.14,5.53 1.421,7.628 -1.721,9.469c-3.525,2.065 -9.527,1.222 -13.666,1.54c-3.038,0.234 -6.259,2.978 -6.834,5.263c-0.747,2.969 0.753,6.716 4.453,6.955c3.115,0.202 7.364,1.104 10.321,3.215c3.725,2.661 5.988,8.873 2.843,11.408c-2.317,1.868 -5.784,0.951 -7.64,0.383c-3.979,-1.217 -6.561,-4.085 -8.887,-5.998c-1.51,-1.242 -4.478,-4.323 -5.845,-5.009c-9.414,-4.722 -14.174,-1.518 -21.914,-2.067c-0.952,-0.068 -3.187,0.725 -4.13,-0.218" style="fill:#bc6143;fill-opacity:0.701961;"/><path d="M0,1313.69l0,-86.089c11.142,-1.705 30.106,-22.691 49.349,-23.53c22.089,1.086 51.911,23.559 78.347,24.274c19.823,1.485 43.729,-7.289 69.018,-7.227c27.647,0.068 60.52,37.75 77.089,41.758c10.881,2.632 26.912,2.071 49.839,-1.641c13.763,-2.228 30.315,-5.745 46.645,-2.68c22.322,3.85 39.053,21.545 56.216,37.804c12.331,6.841 26.278,3.213 40.597,9.246c13.147,7.033 21.518,26.192 23.404,44.374c11.156,34.057 27.082,43.747 32.951,46.881c18.702,9.988 34.231,13.702 44.508,38.976c7.03,17.291 18.297,44.644 34.775,54.108c25.774,14.804 50.692,13.582 75.323,0.242c12.122,0.201 23.438,2.018 37.732,0.006c64.423,-9.069 130.342,-8.52 179.241,22.971c33.072,11.493 56.141,-5.406 77.499,-8.786c26.077,-4.126 53.334,2.062 78.367,6.953c41.941,-1.014 89.334,-1.123 142.357,-0.991c11.316,0.122 26.304,0.891 40.454,5.553c19.016,2.599 29.224,0.472 42.644,-3.959c13.432,-4.434 32.115,-2.146 39.12,2.934c37.77,27.39 60.943,24.665 88.476,13.229c7.703,-3.2 17.649,-1.615 25.827,-1.543c50.956,0.453 88.275,-5.465 121.757,-18.259c15.698,-1.043 26.328,-4.373 42.306,-6.781c6.569,-0.989 16.577,-3.062 24.906,-1.98c20.82,0.443 41.119,9.806 69.427,14.85c47.033,0.328 90.593,-0.526 138.143,-0.132c53.1,0.44 94.811,36.99 131.531,48.473l-1531.12,0l0,-219.069c0,-16.538 -13.426,-29.965 -29.965,-29.965l-396.768,0Z" style="fill:#4e3b39;fill-opacity:0.701961;"/></g></g></svg>