<?xml version="1.0" encoding="UTF-8" standalone="no"?><!DOCTYPE svg PUBLIC "-//W3C//DTD SVG 1.1//EN" "http://www.w3.org/Graphics/SVG/1.1/DTD/svg11.dtd"><svg width="100%" height="100%" viewBox="0 0 148 97" version="1.1" xmlns="http://www.w3.org/2000/svg" xmlns:xlink="http://www.w3.org/1999/xlink" xml:space="preserve" style="fill-rule:evenodd;clip-rule:evenodd;stroke-linejoin:round;stroke-miterlimit:1.41421;"><path d="M13.406,75.611c4.029,0 7.3,3.105 7.3,6.929c0,2.026 -0.917,3.849 -2.378,5.116c-0.259,-0.474 -0.282,-5.106 -0.679,-7.203c-0.126,-0.668 -0.735,-0.516 -1.415,-0.674l-5.279,0c-2.648,-0.371 -2.364,2.893 -2.752,3.15c0,0 0.669,4.172 0.668,4.182c-0.32,-0.236 -0.831,0.126 -0.831,0.126c-1.2,-1.235 -1.934,-2.885 -1.934,-4.697c0,-3.824 3.271,-6.929 7.3,-6.929Zm4.677,6.832c0,0 0.794,-0.141 1.521,-0.197c0.07,-0.006 0.14,0.017 0.192,0.064c0.052,0.047 0.083,0.113 0.086,0.183c0.03,0.914 -0.106,1.735 -0.42,2.544l-1.204,-0.395l-0.175,-2.199Zm-1.567,-3.065c0,0 0.277,-0.619 0.715,-1.271c0.036,-0.053 0.092,-0.088 0.155,-0.096c0.063,-0.009 0.127,0.009 0.175,0.05c0.896,0.777 1.585,1.861 1.971,2.913c0.026,0.074 0.015,0.155 -0.029,0.219c-0.044,0.065 -0.118,0.089 -0.194,0.106c-1.129,0.246 -1.325,-0.661 -1.325,-0.661c-0.279,-0.593 -0.74,-1.036 -1.468,-1.26l0,0Z" style="fill:#ff3ea4;"/><path d="M9.95,76.025l-2.123,-1.923l0.003,-1.168l11.126,-0.02l-0.047,1.054l-2.389,2.161c-2.201,-1.381 -4.168,-1.533 -6.472,0" style="fill:#ff3ea4;"/><path d="M4.348,92.476l18.113,0c0,0 -0.009,-2.004 -0.014,-3.228c-0.003,-0.511 -0.418,-0.925 -0.929,-0.925c-0.874,0 -2.163,0 -2.949,0c-0.183,0 -0.357,0.073 -0.486,0.202c-0.128,0.129 -0.2,0.305 -0.199,0.487c0.005,0.756 0.012,1.863 0.012,1.863l-9.128,0.009c0,0 0.032,-1.127 0.054,-1.886c0.005,-0.177 -0.062,-0.349 -0.185,-0.476c-0.124,-0.127 -0.294,-0.199 -0.471,-0.199c-0.641,0 -1.623,0 -2.42,0c-0.735,0 -1.334,0.589 -1.347,1.323c-0.022,1.216 -0.051,2.83 -0.051,2.83l0,0Z" style="fill:#045f7a;"/><path d="M7.276,86.261l0.521,-4.951c0.032,-0.839 0.702,-1.378 1.556,-1.79l1.906,-0.724l0.092,-0.633c1.373,-0.363 2.717,-0.356 3.975,-0.106l0.104,0.68c1.352,0.22 2.918,1.052 3.295,1.695c0.326,1.917 0.513,3.695 0.654,5.887c-0.481,0.026 -0.794,0.322 -1.017,0.763l-1.154,-0.078c-1.046,-0.987 -2.642,-1.887 -3.933,-1.716c-0.955,0.127 -3.356,0.117 -4.37,1.993c-4.997,-3.046 -1.629,-1.02 -1.629,-1.02l0,0Zm1.807,-1.346c-0.062,0.014 -0.126,-0.001 -0.174,-0.042c-0.048,-0.041 -0.074,-0.103 -0.069,-0.166c0.064,-0.823 0.255,-3.282 0.308,-3.957c0.008,-0.106 0.078,-0.197 0.179,-0.231c1.09,-0.364 2.164,-0.533 3.224,-0.539c0.06,0 0.117,0.024 0.159,0.067c0.042,0.042 0.065,0.1 0.065,0.16c-0.011,0.743 -0.044,3.111 -0.054,3.846c-0.002,0.125 -0.096,0.23 -0.22,0.246c-1.135,0.146 -2.274,0.346 -3.418,0.616l0,0Zm8.618,0c0.061,0.014 0.125,-0.001 0.173,-0.042c0.048,-0.041 0.074,-0.103 0.069,-0.166c-0.064,-0.823 -0.255,-3.282 -0.308,-3.957c-0.008,-0.106 -0.078,-0.197 -0.179,-0.231c-1.09,-0.364 -2.164,-0.533 -3.224,-0.539c-0.06,0 -0.117,0.024 -0.159,0.067c-0.042,0.042 -0.065,0.1 -0.064,0.16c0.01,0.743 0.043,3.111 0.053,3.846c0.002,0.125 0.096,0.23 0.22,0.246c1.135,0.146 2.274,0.346 3.419,0.616Z" style="fill:#045f7a;"/><path d="M6.686,85.603c0.832,0 1.508,0.676 1.508,1.508c0,0.833 -0.676,1.509 -1.508,1.509c-0.833,0 -1.508,-0.676 -1.508,-1.509c0,-0.832 0.675,-1.508 1.508,-1.508Zm-0.011,0.949c0.306,0 0.554,0.249 0.554,0.555c0,0.306 -0.248,0.554 -0.554,0.554c-0.306,0 -0.555,-0.248 -0.555,-0.554c0,-0.306 0.249,-0.555 0.555,-0.555Z" style="fill:#dbaf87;"/><path d="M19.455,85.603c0.832,0 1.508,0.676 1.508,1.508c0,0.833 -0.676,1.509 -1.508,1.509c-0.832,0 -1.508,-0.676 -1.508,-1.509c0,-0.832 0.676,-1.508 1.508,-1.508Zm0.027,0.949c0.306,0 0.554,0.249 0.554,0.555c0,0.306 -0.248,0.554 -0.554,0.554c-0.306,0 -0.555,-0.248 -0.555,-0.554c0,-0.306 0.249,-0.555 0.555,-0.555Z" style="fill:#dbaf87;"/><path d="M6.686,84.978c1.177,0 2.133,0.956 2.133,2.133c0,1.178 -0.956,2.134 -2.133,2.134c-1.178,0 -2.134,-0.956 -2.134,-2.134c0,-1.177 0.956,-2.133 2.134,-2.133Zm0.039,0.632c0.82,0 1.486,0.665 1.486,1.485c0,0.82 -0.666,1.485 -1.486,1.485c-0.819,0 -1.485,-0.665 -1.485,-1.485c0,-0.82 0.666,-1.485 1.485,-1.485Z"/><path d="M19.455,84.978c1.178,0 2.133,0.956 2.133,2.133c0,1.178 -0.955,2.134 -2.133,2.134c-1.177,0 -2.133,-0.956 -2.133,-2.134c0,-1.177 0.956,-2.133 2.133,-2.133Zm0.04,0.632c0.819,0 1.485,0.665 1.485,1.485c0,0.82 -0.666,1.485 -1.485,1.485c-0.82,0 -1.486,-0.665 -1.486,-1.485c0,-0.82 0.666,-1.485 1.486,-1.485Z"/><path d="M12.773,90.752l-3.569,0.001c-0.11,0 -0.2,-0.089 -0.2,-0.199c-0.001,-0.765 -0.006,-3.493 -0.007,-4.084c0,-0.071 0.037,-0.136 0.098,-0.172c2.675,-1.58 5.485,-1.595 8,-0.005c0.058,0.037 0.093,0.1 0.093,0.168c0.001,0.581 0.006,3.321 0.007,4.088c0,0.053 -0.021,0.104 -0.058,0.142c-0.038,0.037 -0.089,0.059 -0.142,0.059l-3.367,0.001l0,-4.581c0,-0.236 -0.192,-0.428 -0.427,-0.428c-0.236,0 -0.428,0.192 -0.428,0.428l0,4.582Zm-0.698,-0.97c0,-0.103 -0.083,-0.186 -0.185,-0.186l-1.98,0c-0.103,0 -0.186,0.083 -0.186,0.186c0,0.102 0.083,0.185 0.186,0.185l1.98,0c0.102,0 0.185,-0.083 0.185,-0.185Zm4.244,0.182c0.102,0 0.185,-0.083 0.185,-0.185c0,-0.102 -0.083,-0.185 -0.185,-0.185l-1.98,0c-0.103,0 -0.186,0.083 -0.186,0.185c0,0.102 0.083,0.185 0.186,0.185l1.98,0Zm-4.244,-1.273c0,-0.102 -0.083,-0.185 -0.185,-0.185l-1.98,0c-0.103,0 -0.186,0.083 -0.186,0.185c0,0.102 0.083,0.185 0.186,0.185l1.98,0c0.102,0 0.185,-0.083 0.185,-0.185Zm4.244,0.183c0.102,0 0.185,-0.083 0.185,-0.186c0,-0.102 -0.083,-0.185 -0.185,-0.185l-1.98,0c-0.103,0 -0.186,0.083 -0.186,0.185c0,0.103 0.083,0.186 0.186,0.186l1.98,0Zm-4.244,-1.274c0,-0.102 -0.083,-0.185 -0.185,-0.185l-1.98,0c-0.103,0 -0.186,0.083 -0.186,0.185c0,0.103 0.083,0.186 0.186,0.186l1.98,0c0.102,0 0.185,-0.083 0.185,-0.186Zm4.244,0.183c0.102,0 0.185,-0.083 0.185,-0.185c0,-0.103 -0.083,-0.186 -0.185,-0.186l-1.98,0c-0.103,0 -0.186,0.083 -0.186,0.186c0,0.102 0.083,0.185 0.186,0.185l1.98,0Zm-4.244,-1.358c0,-0.103 -0.083,-0.186 -0.185,-0.186l-1.465,0c-0.102,0 -0.185,0.083 -0.185,0.186c0,0.102 0.083,0.185 0.185,0.185l1.465,0c0.102,0 0.185,-0.083 0.185,-0.185Zm3.728,0.183c0.102,0 0.185,-0.084 0.185,-0.186c0,-0.102 -0.083,-0.185 -0.185,-0.185l-1.464,0c-0.103,0 -0.186,0.083 -0.186,0.185c0,0.102 0.083,0.186 0.186,0.186l1.464,0Z"/><path d="M4.419,91.054l17.752,-0.01c0.52,0.133 0.756,0.497 0.849,0.977c0.063,0.497 -0.136,0.924 -0.584,1.146c0,0 -0.26,0.005 -0.51,0.01c-0.12,0.002 -0.235,0.052 -0.318,0.139c-0.083,0.087 -0.128,0.204 -0.124,0.324c0.006,0.242 0.014,0.55 0.022,0.841c0.006,0.248 -0.088,0.488 -0.26,0.667c-0.173,0.178 -0.411,0.279 -0.659,0.28c-0.819,0.003 -1.991,0.007 -2.767,0.01c-0.448,0.002 -0.815,-0.357 -0.822,-0.805c-0.008,-0.417 -0.016,-0.894 -0.021,-1.158c-0.002,-0.115 -0.093,-0.208 -0.207,-0.213c-0.137,-0.006 -0.294,-0.014 -0.294,-0.014l-0.129,0.238l-1.584,0.017l-0.32,0.597l-2.542,-0.004l-0.447,-0.592l-1.394,0.005l-0.123,-0.2c0,0 -0.125,-0.003 -0.259,-0.006c-0.182,-0.004 -0.334,0.137 -0.344,0.319c-0.017,0.299 -0.041,0.752 -0.062,1.131c-0.021,0.386 -0.34,0.688 -0.727,0.688c-0.677,0 -1.727,0 -2.558,0c-0.335,0 -0.655,-0.136 -0.888,-0.378c-0.232,-0.241 -0.357,-0.566 -0.345,-0.901c0.011,-0.28 0.021,-0.555 0.029,-0.766c0.007,-0.193 -0.14,-0.358 -0.333,-0.374c-0.498,-0.029 -0.898,-0.316 -0.887,-0.972c-0.001,-0.514 0.389,-0.851 0.856,-0.996l0,0Zm0.56,0.612l16.547,-0.056c0.421,0.061 0.641,0.249 0.622,0.586c0.053,0.345 -0.16,0.532 -0.65,0.552l-16.444,-0.046c-0.335,0.004 -0.548,-0.162 -0.635,-0.421c-0.005,-0.364 0.204,-0.564 0.56,-0.615l0,0Z"/><path d="M9.433,80.812l-0.052,2.722l2.809,-3.289c-0.97,0.059 -1.898,0.224 -2.757,0.567l0,0Z" style="fill:#0270b6;"/><path d="M14.435,80.245l-0.067,2.866l2.534,-2.427c-0.808,-0.31 -1.63,-0.451 -2.467,-0.439Z" style="fill:#0270b6;"/><path d="M9.665,84.395l2.754,-3.101l-0.039,2.783c-1.037,-0.102 -1.991,0.203 -2.715,0.318Z" style="fill:#0270b6;"/><path d="M14.818,83.951l2.592,-2.273l0.239,2.964c-0.942,-0.48 -1.886,-0.669 -2.831,-0.691Z" style="fill:#0270b6;"/><path d="M135.057,75.626c-4.029,0 -7.301,3.105 -7.301,6.929c0,2.025 0.918,3.849 2.379,5.116c0.259,-0.475 0.282,-5.107 0.679,-7.204c0.126,-0.667 0.735,-0.515 1.415,-0.673l5.279,0c2.648,-0.372 2.364,2.893 2.752,3.15c0,0 -0.669,4.172 -0.668,4.182c0.32,-0.236 0.831,0.126 0.831,0.126c1.2,-1.236 1.934,-2.886 1.934,-4.697c0,-3.824 -3.271,-6.929 -7.3,-6.929l0,0Zm-4.677,6.831c0,0 -0.794,-0.14 -1.521,-0.197c-0.07,-0.005 -0.14,0.018 -0.192,0.065c-0.052,0.047 -0.083,0.113 -0.086,0.183c-0.03,0.913 0.106,1.735 0.42,2.544l1.204,-0.396l0.175,-2.199Zm1.567,-3.065c0,0 -0.277,-0.619 -0.715,-1.27c-0.036,-0.053 -0.092,-0.088 -0.155,-0.097c-0.063,-0.009 -0.127,0.01 -0.175,0.051c-0.896,0.777 -1.585,1.861 -1.971,2.913c-0.026,0.073 -0.015,0.155 0.029,0.219c0.044,0.064 0.118,0.089 0.194,0.105c1.129,0.247 1.325,-0.66 1.325,-0.66c0.279,-0.593 0.74,-1.036 1.468,-1.261l0,0Z" style="fill:#ff3ea4;"/><path d="M138.513,76.039l2.122,-1.922l-0.002,-1.168l-11.126,-0.02l0.047,1.054l2.389,2.161c2.201,-1.382 4.168,-1.533 6.472,-0.001" style="fill:#ff3ea4;"/><path d="M144.115,92.491l-18.113,0c0,0 0.009,-2.004 0.014,-3.228c0.003,-0.512 0.418,-0.925 0.929,-0.925c0.874,0 2.163,0 2.949,0c0.183,0 0.357,0.072 0.486,0.202c0.128,0.129 0.2,0.304 0.199,0.486c-0.005,0.756 -0.012,1.864 -0.012,1.864l9.128,0.009c0,0 -0.032,-1.128 -0.054,-1.887c-0.005,-0.177 0.062,-0.348 0.185,-0.475c0.124,-0.128 0.294,-0.199 0.471,-0.199c0.641,0 1.623,0 2.42,0c0.735,0 1.334,0.588 1.347,1.323c0.022,1.216 0.051,2.83 0.051,2.83l0,0Z" style="fill:#045f7a;"/><path d="M141.187,86.276l-0.521,-4.951c-0.032,-0.84 -0.703,-1.378 -1.556,-1.791l-1.906,-0.723l-0.092,-0.634c-1.373,-0.362 -2.717,-0.355 -3.975,-0.106l-0.104,0.681c-1.352,0.22 -2.918,1.052 -3.295,1.694c-0.326,1.918 -0.513,3.696 -0.654,5.888c0.481,0.026 0.794,0.322 1.017,0.762l1.154,-0.077c1.046,-0.988 2.642,-1.888 3.933,-1.716c0.955,0.127 3.356,0.117 4.37,1.993c4.997,-3.046 1.629,-1.02 1.629,-1.02l0,0Zm-1.807,-1.347c0.062,0.015 0.126,-0.001 0.174,-0.042c0.048,-0.041 0.074,-0.102 0.069,-0.165c-0.064,-0.823 -0.255,-3.282 -0.308,-3.957c-0.008,-0.106 -0.078,-0.197 -0.179,-0.231c-1.09,-0.364 -2.164,-0.534 -3.224,-0.539c-0.06,0 -0.117,0.024 -0.159,0.066c-0.042,0.043 -0.065,0.101 -0.065,0.16c0.011,0.744 0.044,3.112 0.054,3.846c0.002,0.126 0.096,0.231 0.22,0.247c1.135,0.146 2.274,0.346 3.418,0.615l0,0Zm-8.618,0c-0.061,0.015 -0.125,-0.001 -0.173,-0.042c-0.048,-0.041 -0.074,-0.102 -0.069,-0.165c0.064,-0.823 0.255,-3.282 0.308,-3.957c0.008,-0.106 0.078,-0.197 0.179,-0.231c1.09,-0.364 2.164,-0.534 3.224,-0.539c0.06,0 0.117,0.024 0.159,0.066c0.042,0.043 0.065,0.101 0.064,0.16c-0.01,0.744 -0.043,3.112 -0.053,3.846c-0.002,0.126 -0.096,0.231 -0.221,0.247c-1.134,0.146 -2.273,0.346 -3.418,0.615l0,0Z" style="fill:#045f7a;"/><path d="M129.008,85.618c-0.833,0 -1.508,0.675 -1.508,1.508c0,0.832 0.675,1.508 1.508,1.508c0.832,0 1.508,-0.676 1.508,-1.508c0,-0.833 -0.676,-1.508 -1.508,-1.508Zm-0.021,0.992c0.306,0 0.555,0.248 0.555,0.555c0,0.306 -0.249,0.554 -0.555,0.554c-0.306,0 -0.554,-0.248 -0.554,-0.554c0,-0.307 0.248,-0.555 0.554,-0.555Z" style="fill:#dbaf87;"/><path d="M141.777,85.618c-0.832,0 -1.508,0.675 -1.508,1.508c0,0.832 0.676,1.508 1.508,1.508c0.833,0 1.508,-0.676 1.508,-1.508c0,-0.833 -0.675,-1.508 -1.508,-1.508Zm0.017,0.992c0.306,0 0.555,0.248 0.555,0.555c0,0.306 -0.249,0.554 -0.555,0.554c-0.306,0 -0.554,-0.248 -0.554,-0.554c0,-0.307 0.248,-0.555 0.554,-0.555Z" style="fill:#dbaf87;"/><path d="M141.777,84.992c-1.177,0 -2.133,0.956 -2.133,2.134c0,1.177 0.956,2.133 2.133,2.133c1.178,0 2.134,-0.956 2.134,-2.133c0,-1.178 -0.956,-2.134 -2.134,-2.134Zm-0.039,0.632c-0.82,0 -1.486,0.666 -1.486,1.486c0,0.819 0.666,1.485 1.486,1.485c0.819,0 1.485,-0.666 1.485,-1.485c0,-0.82 -0.666,-1.486 -1.485,-1.486Z"/><path d="M129.008,84.992c-1.178,0 -2.134,0.956 -2.134,2.134c0,1.177 0.956,2.133 2.134,2.133c1.177,0 2.133,-0.956 2.133,-2.133c0,-1.178 -0.956,-2.134 -2.133,-2.134Zm-0.04,0.632c-0.819,0 -1.485,0.666 -1.485,1.486c0,0.819 0.666,1.485 1.485,1.485c0.82,0 1.486,-0.666 1.486,-1.485c0,-0.82 -0.666,-1.486 -1.486,-1.486Z"/><path d="M135.69,90.766l3.569,0.002c0.11,0 0.2,-0.089 0.2,-0.2c0.001,-0.764 0.006,-3.493 0.007,-4.083c0,-0.071 -0.037,-0.136 -0.098,-0.172c-2.675,-1.581 -5.485,-1.595 -8,-0.005c-0.058,0.036 -0.093,0.1 -0.093,0.168c-0.001,0.581 -0.006,3.321 -0.007,4.088c0,0.053 0.021,0.104 0.058,0.141c0.038,0.038 0.089,0.059 0.142,0.059l3.367,0.002l0,-4.582c0,-0.236 0.192,-0.427 0.427,-0.427c0.236,0 0.428,0.191 0.428,0.427l0,4.582Zm0.698,-0.97c0,-0.102 0.083,-0.185 0.185,-0.185l1.98,0c0.103,0 0.186,0.083 0.186,0.185c0,0.103 -0.083,0.186 -0.186,0.186l-1.98,0c-0.102,0 -0.185,-0.083 -0.185,-0.186Zm-4.244,0.183c-0.102,0 -0.185,-0.083 -0.185,-0.185c0,-0.103 0.083,-0.186 0.185,-0.186l1.98,0c0.103,0 0.186,0.083 0.186,0.186c0,0.102 -0.083,0.185 -0.186,0.185l-1.98,0Zm4.244,-1.273c0,-0.103 0.083,-0.186 0.185,-0.186l1.98,0c0.103,0 0.186,0.083 0.186,0.186c0,0.102 -0.083,0.185 -0.186,0.185l-1.98,0c-0.102,0 -0.185,-0.083 -0.185,-0.185Zm-4.244,0.182c-0.102,0 -0.185,-0.083 -0.185,-0.185c0,-0.102 0.083,-0.185 0.185,-0.185l1.98,0c0.103,0 0.186,0.083 0.186,0.185c0,0.102 -0.083,0.185 -0.186,0.185l-1.98,0Zm4.244,-1.273c0,-0.102 0.083,-0.185 0.185,-0.185l1.98,0c0.103,0 0.186,0.083 0.186,0.185c0,0.102 -0.083,0.185 -0.186,0.185l-1.98,0c-0.102,0 -0.185,-0.083 -0.185,-0.185Zm-4.244,0.183c-0.102,0 -0.185,-0.083 -0.185,-0.186c0,-0.102 0.083,-0.185 0.185,-0.185l1.98,0c0.103,0 0.186,0.083 0.186,0.185c0,0.103 -0.083,0.186 -0.186,0.186l-1.98,0Zm4.244,-1.359c0,-0.102 0.083,-0.185 0.185,-0.185l1.465,0c0.102,0 0.185,0.083 0.185,0.185c0,0.103 -0.083,0.186 -0.185,0.186l-1.465,0c-0.102,0 -0.185,-0.083 -0.185,-0.186Zm-3.728,0.183c-0.102,0 -0.185,-0.083 -0.185,-0.185c0,-0.103 0.083,-0.186 0.185,-0.186l1.464,0c0.103,0 0.186,0.083 0.186,0.186c0,0.102 -0.083,0.185 -0.186,0.185l-1.464,0Z"/><path d="M144.044,91.069l-17.752,-0.01c-0.52,0.133 -0.756,0.496 -0.849,0.976c-0.063,0.498 0.136,0.925 0.584,1.147c0,0 0.26,0.005 0.51,0.01c0.12,0.002 0.235,0.052 0.318,0.139c0.083,0.087 0.128,0.203 0.124,0.323c-0.006,0.243 -0.014,0.55 -0.022,0.842c-0.006,0.248 0.088,0.488 0.26,0.666c0.173,0.178 0.411,0.279 0.659,0.28c0.819,0.003 1.991,0.008 2.767,0.011c0.448,0.001 0.814,-0.357 0.822,-0.805c0.008,-0.418 0.016,-0.894 0.021,-1.159c0.002,-0.114 0.093,-0.207 0.207,-0.212c0.137,-0.007 0.293,-0.014 0.293,-0.014l0.13,0.238l1.584,0.017l0.32,0.597l2.542,-0.004l0.447,-0.593l1.394,0.005l0.123,-0.2c0,0 0.125,-0.002 0.259,-0.005c0.182,-0.004 0.334,0.137 0.344,0.319c0.017,0.299 0.041,0.752 0.062,1.131c0.021,0.385 0.34,0.688 0.727,0.688c0.677,0 1.727,0 2.557,0c0.336,0 0.656,-0.137 0.889,-0.378c0.232,-0.241 0.357,-0.567 0.345,-0.902c-0.011,-0.279 -0.021,-0.554 -0.029,-0.765c-0.007,-0.194 0.14,-0.359 0.333,-0.374c0.497,-0.029 0.898,-0.317 0.887,-0.972c0.001,-0.515 -0.389,-0.851 -0.856,-0.996l0,0Zm-0.56,0.612l-16.547,-0.057c-0.421,0.062 -0.641,0.25 -0.622,0.587c-0.053,0.345 0.16,0.532 0.65,0.552l16.444,-0.046c0.335,0.003 0.548,-0.162 0.635,-0.421c0.005,-0.364 -0.204,-0.564 -0.56,-0.615l0,0Z"/><path d="M139.03,80.827l0.052,2.722l-2.809,-3.29c0.97,0.059 1.898,0.225 2.757,0.568l0,0Z" style="fill:#0270b6;"/><path d="M134.028,80.259l0.067,2.867l-2.534,-2.427c0.808,-0.31 1.63,-0.451 2.467,-0.44l0,0Z" style="fill:#0270b6;"/><path d="M138.733,84.406l-2.689,-3.097l0.039,2.782c1.037,-0.102 1.926,0.2 2.65,0.315Z" style="fill:#0270b6;"/><path d="M133.645,83.965l-2.592,-2.273l-0.239,2.964c0.942,-0.479 1.886,-0.668 2.831,-0.691l0,0Z" style="fill:#0270b6;"/><path d="M34.839,65.029l0,1.844l-3.342,0l0,-1.844l3.342,0Zm-1.09,0.5c0.24,0 0.434,0.195 0.434,0.434c0,0.239 -0.194,0.433 -0.434,0.433c-0.239,0 -0.433,-0.194 -0.433,-0.433c0,-0.239 0.194,-0.434 0.433,-0.434Z" style="fill:#ff3ea4;"/><path d="M43.753,83.206l14.562,0l0,1.734l-14.562,0l0,-1.734l0,0Zm1.113,0.428c0.239,0 0.433,0.194 0.433,0.433c0,0.24 -0.194,0.434 -0.433,0.434c-0.239,0 -0.434,-0.194 -0.434,-0.434c0,-0.239 0.195,-0.433 0.434,-0.433Zm9.171,0c0.239,0 0.434,0.194 0.434,0.433c0,0.24 -0.195,0.434 -0.434,0.434c-0.239,0 -0.434,-0.194 -0.434,-0.434c0,-0.239 0.195,-0.433 0.434,-0.433Zm3.351,0c0.239,0 0.433,0.194 0.433,0.433c0,0.24 -0.194,0.434 -0.433,0.434c-0.24,0 -0.434,-0.194 -0.434,-0.434c0,-0.239 0.194,-0.433 0.434,-0.433Z" style="fill:#ff3ea4;"/><path d="M54.964,85.263l-0.04,2.898l1.92,-1.563l0.023,-1.335l1.448,0l0,10.88l-1.447,0l0,-1.887l-1.809,-1.471l0.019,3.358l-1.614,0l0,-10.88l1.5,0Zm2.424,7.933c0.239,0 0.433,0.194 0.433,0.434c0,0.239 -0.194,0.433 -0.433,0.433c-0.24,0 -0.434,-0.194 -0.434,-0.433c0,-0.24 0.194,-0.434 0.434,-0.434Zm-2.464,-3.51l1.944,-1.525l0,4.528l-1.944,-1.531l0,-1.472Zm-0.642,1.536c0.239,0 0.433,0.194 0.433,0.434c0,0.239 -0.194,0.433 -0.433,0.433c-0.24,0 -0.434,-0.194 -0.434,-0.433c0,-0.24 0.194,-0.434 0.434,-0.434Zm0,-2.507c0.239,0 0.433,0.195 0.433,0.434c0,0.239 -0.194,0.434 -0.433,0.434c-0.24,0 -0.434,-0.195 -0.434,-0.434c0,-0.239 0.194,-0.434 0.434,-0.434Zm3.106,-1.909c0.239,0 0.433,0.195 0.433,0.434c0,0.239 -0.194,0.433 -0.433,0.433c-0.24,0 -0.434,-0.194 -0.434,-0.433c0,-0.239 0.194,-0.434 0.434,-0.434Z" style="fill:#ff3ea4;"/><path d="M43.448,84.94l-3.745,0l0,-10.811l3.545,0l4.959,-7.256l-4.41,0l0,-1.844l14.285,0l0,1.844l-8.662,0l-5.972,8.737l0,9.33Zm-0.852,-10.137c0.239,0 0.434,0.194 0.434,0.433c0,0.24 -0.195,0.434 -0.434,0.434c-0.239,0 -0.433,-0.194 -0.433,-0.434c0,-0.239 0.194,-0.433 0.433,-0.433Zm2.121,-9.274c0.24,0 0.434,0.195 0.434,0.434c0,0.239 -0.194,0.433 -0.434,0.433c-0.239,0 -0.433,-0.194 -0.433,-0.433c0,-0.239 0.194,-0.434 0.433,-0.434Zm4.284,0c0.239,0 0.434,0.195 0.434,0.434c0,0.239 -0.195,0.433 -0.434,0.433c-0.239,0 -0.434,-0.194 -0.434,-0.433c0,-0.239 0.195,-0.434 0.434,-0.434Zm8.1,-0.014c0.239,0 0.433,0.195 0.433,0.434c0,0.239 -0.194,0.434 -0.433,0.434c-0.24,0 -0.434,-0.195 -0.434,-0.434c0,-0.239 0.194,-0.434 0.434,-0.434Z" style="fill:#ff3ea4;"/><path d="M43.448,65.029l0,8.04c0,0.321 -0.261,0.582 -0.582,0.582l-2.976,0l-4.756,-6.777l-0.033,-1.845l8.347,0Zm-1.021,7.355c0.24,0 0.434,0.194 0.434,0.433c0,0.239 -0.194,0.434 -0.434,0.434c-0.239,0 -0.433,-0.195 -0.433,-0.434c0,-0.239 0.194,-0.433 0.433,-0.433Zm-1.917,0c0.239,0 0.434,0.194 0.434,0.433c0,0.239 -0.195,0.434 -0.434,0.434c-0.239,0 -0.433,-0.195 -0.433,-0.434c0,-0.239 0.194,-0.433 0.433,-0.433Zm-4.389,-6.855c0.24,0 0.434,0.195 0.434,0.434c0,0.239 -0.194,0.433 -0.434,0.433c-0.239,0 -0.433,-0.194 -0.433,-0.433c0,-0.239 0.194,-0.434 0.433,-0.434Zm6.042,0c0.239,0 0.433,0.195 0.433,0.434c0,0.239 -0.194,0.433 -0.433,0.433c-0.24,0 -0.434,-0.194 -0.434,-0.433c0,-0.239 0.194,-0.434 0.434,-0.434Z" style="fill:#ff3ea4;"/><path d="M95.299,96.143l-1.634,0l0,-1.423l-1.518,1.151l0,0.272l-1.702,0l0,-22.492l1.702,0.018l0,2.4l1.518,-1.362l0,-1.056l1.634,0l0,22.492Zm-3.83,-1.248c0.24,0 0.434,0.194 0.434,0.433c0,0.24 -0.194,0.434 -0.434,0.434c-0.239,0 -0.433,-0.194 -0.433,-0.434c0,-0.239 0.194,-0.433 0.433,-0.433Zm0.678,-0.583l0,-4.46l1.518,1.27l0,1.94l-1.518,1.25Zm2.16,-1.274c0.239,0 0.433,0.194 0.433,0.433c0,0.24 -0.194,0.434 -0.433,0.434c-0.24,0 -0.434,-0.194 -0.434,-0.434c0,-0.239 0.194,-0.433 0.434,-0.433Zm0,-2.816c0.239,0 0.433,0.194 0.433,0.434c0,0.239 -0.194,0.433 -0.433,0.433c-0.24,0 -0.434,-0.194 -0.434,-0.433c0,-0.24 0.194,-0.434 0.434,-0.434Zm-0.642,-0.73l-1.518,-1.141l0,-1.658l1.518,-1.159l0,3.958Zm-2.196,-1.069c0.24,0 0.434,0.194 0.434,0.433c0,0.239 -0.194,0.434 -0.434,0.434c-0.239,0 -0.433,-0.195 -0.433,-0.434c0,-0.239 0.194,-0.433 0.433,-0.433Zm0,-2.678c0.24,0 0.434,0.195 0.434,0.434c0,0.239 -0.194,0.434 -0.434,0.434c-0.239,0 -0.433,-0.195 -0.433,-0.434c0,-0.239 0.194,-0.434 0.433,-0.434Zm0.678,-0.482l0,-4.385l1.518,1.272l0,1.82l-1.518,1.293Zm2.16,-1.358c0.239,0 0.433,0.194 0.433,0.433c0,0.239 -0.194,0.434 -0.433,0.434c-0.24,0 -0.434,-0.195 -0.434,-0.434c0,-0.239 0.194,-0.433 0.434,-0.433Zm0,-2.794c0.239,0 0.433,0.194 0.433,0.433c0,0.24 -0.194,0.434 -0.433,0.434c-0.24,0 -0.434,-0.194 -0.434,-0.434c0,-0.239 0.194,-0.433 0.434,-0.433Zm-2.16,-1.773l0,-1.709l1.518,-1.341l0,4.316l-1.518,-1.266Zm-0.678,0.087c0.24,0 0.434,0.194 0.434,0.433c0,0.239 -0.194,0.434 -0.434,0.434c-0.239,0 -0.433,-0.195 -0.433,-0.434c0,-0.239 0.194,-0.433 0.433,-0.433Zm0,-2.879c0.24,0 0.434,0.194 0.434,0.433c0,0.24 -0.194,0.434 -0.434,0.434c-0.239,0 -0.433,-0.194 -0.433,-0.434c0,-0.239 0.194,-0.433 0.433,-0.433Zm2.838,-1.555c0.239,0 0.433,0.194 0.433,0.433c0,0.239 -0.194,0.434 -0.433,0.434c-0.24,0 -0.434,-0.195 -0.434,-0.434c0,-0.239 0.194,-0.433 0.434,-0.433Z" style="fill:#ff3ea4;"/><path d="M95.229,73.526l-4.802,0l0,-8.43l8.704,0.004l-0.007,2.028l-3.895,6.398l0,0Zm-3.777,-1.208c0.239,0 0.433,0.194 0.433,0.434c0,0.239 -0.194,0.433 -0.433,0.433c-0.239,0 -0.434,-0.194 -0.434,-0.433c0,-0.24 0.195,-0.434 0.434,-0.434Zm2.817,0c0.24,0 0.434,0.194 0.434,0.434c0,0.239 -0.194,0.433 -0.434,0.433c-0.239,0 -0.433,-0.194 -0.433,-0.433c0,-0.24 0.194,-0.434 0.433,-0.434Zm-2.817,-6.559c0.239,0 0.433,0.195 0.433,0.434c0,0.239 -0.194,0.433 -0.433,0.433c-0.239,0 -0.434,-0.194 -0.434,-0.433c0,-0.239 0.195,-0.434 0.434,-0.434Zm6.394,0c0.239,0 0.433,0.195 0.433,0.434c0,0.239 -0.194,0.433 -0.433,0.433c-0.239,0 -0.434,-0.194 -0.434,-0.433c0,-0.239 0.195,-0.434 0.434,-0.434Z" style="fill:#ff3ea4;"/><path d="M116.231,66.94l-9.821,0l0,3.372l-1.907,0l0,-3.372l-4.937,0l0,-1.844l16.665,0l0,1.844Zm-15.693,-1.181c0.239,0 0.433,0.195 0.433,0.434c0,0.239 -0.194,0.433 -0.433,0.433c-0.239,0 -0.434,-0.194 -0.434,-0.433c0,-0.239 0.195,-0.434 0.434,-0.434Zm4.794,0c0.24,0 0.434,0.195 0.434,0.434c0,0.239 -0.194,0.433 -0.434,0.433c-0.239,0 -0.433,-0.194 -0.433,-0.433c0,-0.239 0.194,-0.434 0.433,-0.434Zm9.869,0c0.239,0 0.434,0.195 0.434,0.434c0,0.239 -0.195,0.433 -0.434,0.433c-0.239,0 -0.434,-0.194 -0.434,-0.433c0,-0.239 0.195,-0.434 0.434,-0.434Z" style="fill:#ff3ea4;"/><path d="M48.588,33.072l-26.476,0l0.042,-1.58l1.186,0.002l-1.981,-2.601l-12.219,-0.08l-0.017,-1.495l39.403,0l-0.022,1.434l-0.823,-0.02l-1.931,2.754l2.768,0.041l0.07,1.545Zm-3.965,-1.285c0.178,0 0.323,0.145 0.323,0.324c0,0.178 -0.145,0.323 -0.323,0.323c-0.179,0 -0.323,-0.145 -0.323,-0.323c0,-0.179 0.144,-0.324 0.323,-0.324Zm-2.109,0c0.178,0 0.323,0.145 0.323,0.324c0,0.178 -0.145,0.323 -0.323,0.323c-0.179,0 -0.324,-0.145 -0.324,-0.323c0,-0.179 0.145,-0.324 0.324,-0.324Zm-6.979,0c0.179,0 0.323,0.145 0.323,0.324c0,0.178 -0.144,0.323 -0.323,0.323c-0.178,0 -0.323,-0.145 -0.323,-0.323c0,-0.179 0.145,-0.324 0.323,-0.324Zm-2.109,0c0.179,0 0.323,0.145 0.323,0.324c0,0.178 -0.144,0.323 -0.323,0.323c-0.178,0 -0.323,-0.145 -0.323,-0.323c0,-0.179 0.145,-0.324 0.323,-0.324Zm-7.046,0c0.179,0 0.323,0.145 0.323,0.324c0,0.178 -0.144,0.323 -0.323,0.323c-0.178,0 -0.323,-0.145 -0.323,-0.323c0,-0.179 0.145,-0.324 0.323,-0.324Zm-2.109,0c0.178,0 0.323,0.145 0.323,0.324c0,0.178 -0.145,0.323 -0.323,0.323c-0.178,0 -0.323,-0.145 -0.323,-0.323c0,-0.179 0.145,-0.324 0.323,-0.324Zm3.456,-2.974l-4.911,0l2.129,2.666l0.704,0l2.078,-2.666Zm2.644,0l-0.885,0l-2.064,2.666l4.924,0l-1.975,-2.666Zm6.73,0l-5.344,0l2.293,2.666l0.881,0l2.17,-2.666Zm2.198,0l-0.588,0l-2.087,2.666l4.862,0l-2.187,-2.666Zm6.699,0l-5.089,0l2.263,2.666l1.017,0l1.809,-2.666Zm-35.886,-0.924c0.179,0 0.324,0.145 0.324,0.323c0,0.178 -0.145,0.323 -0.324,0.323c-0.178,0 -0.323,-0.145 -0.323,-0.323c0,-0.178 0.145,-0.323 0.323,-0.323Zm5.604,0c0.178,0 0.323,0.145 0.323,0.323c0,0.178 -0.145,0.323 -0.323,0.323c-0.178,0 -0.323,-0.145 -0.323,-0.323c0,-0.178 0.145,-0.323 0.323,-0.323Zm6.151,0c0.179,0 0.323,0.145 0.323,0.323c0,0.178 -0.144,0.323 -0.323,0.323c-0.178,0 -0.323,-0.145 -0.323,-0.323c0,-0.178 0.145,-0.323 0.323,-0.323Zm6.897,0c0.178,0 0.323,0.145 0.323,0.323c0,0.178 -0.145,0.323 -0.323,0.323c-0.178,0 -0.323,-0.145 -0.323,-0.323c0,-0.178 0.145,-0.323 0.323,-0.323Zm2.363,0c0.178,0 0.323,0.145 0.323,0.323c0,0.178 -0.145,0.323 -0.323,0.323c-0.179,0 -0.324,-0.145 -0.324,-0.323c0,-0.178 0.145,-0.323 0.324,-0.323Zm6.843,0c0.179,0 0.323,0.145 0.323,0.323c0,0.178 -0.144,0.323 -0.323,0.323c-0.178,0 -0.323,-0.145 -0.323,-0.323c0,-0.178 0.145,-0.323 0.323,-0.323Zm2.157,0c0.178,0 0.323,0.145 0.323,0.323c0,0.178 -0.145,0.323 -0.323,0.323c-0.179,0 -0.324,-0.145 -0.324,-0.323c0,-0.178 0.145,-0.323 0.324,-0.323Zm6.972,0c0.179,0 0.323,0.145 0.323,0.323c0,0.178 -0.144,0.323 -0.323,0.323c-0.178,0 -0.323,-0.145 -0.323,-0.323c0,-0.178 0.145,-0.323 0.323,-0.323Z" style="fill:#ff3ea4;"/><path d="M6.089,33.072l-5.786,0l-0.006,-5.754l8.554,0l-0.044,1.393l-2.718,4.361Zm-0.54,-1.281c0.178,0 0.323,0.145 0.323,0.323c0,0.178 -0.145,0.323 -0.323,0.323c-0.179,0 -0.323,-0.145 -0.323,-0.323c0,-0.178 0.144,-0.323 0.323,-0.323Zm-4.32,0c0.178,0 0.323,0.145 0.323,0.323c0,0.178 -0.145,0.323 -0.323,0.323c-0.178,0 -0.323,-0.145 -0.323,-0.323c0,-0.178 0.145,-0.323 0.323,-0.323Zm0,-3.902c0.178,0 0.323,0.145 0.323,0.323c0,0.178 -0.145,0.323 -0.323,0.323c-0.178,0 -0.323,-0.145 -0.323,-0.323c0,-0.178 0.145,-0.323 0.323,-0.323Zm6.566,0c0.179,0 0.323,0.145 0.323,0.323c0,0.178 -0.144,0.323 -0.323,0.323c-0.178,0 -0.323,-0.145 -0.323,-0.323c0,-0.178 0.145,-0.323 0.323,-0.323Z" style="fill:#ff3ea4;"/><path d="M57.786,32.959l-8.978,0.098l0.007,-14.18l3.948,-3.113l5.023,-0.102l0,17.297Zm-7.793,-1.18c0.183,0 0.332,0.148 0.332,0.331c0,0.183 -0.149,0.332 -0.332,0.332c-0.182,0 -0.331,-0.149 -0.331,-0.332c0,-0.183 0.149,-0.331 0.331,-0.331Zm6.931,-0.028c0.182,0 0.331,0.148 0.331,0.331c0,0.183 -0.149,0.331 -0.331,0.331c-0.183,0 -0.332,-0.148 -0.332,-0.331c0,-0.183 0.149,-0.331 0.332,-0.331Zm-0.161,-6.935c0.183,0 0.331,0.148 0.331,0.331c0,0.183 -0.148,0.332 -0.331,0.332c-0.183,0 -0.331,-0.149 -0.331,-0.332c0,-0.183 0.148,-0.331 0.331,-0.331Zm-6.77,0c0.183,0 0.332,0.148 0.332,0.331c0,0.183 -0.149,0.332 -0.332,0.332c-0.182,0 -0.331,-0.149 -0.331,-0.332c0,-0.183 0.149,-0.331 0.331,-0.331Zm0,-5.689c0.183,0 0.332,0.149 0.332,0.331c0,0.183 -0.149,0.332 -0.332,0.332c-0.182,0 -0.331,-0.149 -0.331,-0.332c0,-0.182 0.149,-0.331 0.331,-0.331Zm3.522,-2.656c0.183,0 0.331,0.149 0.331,0.332c0,0.183 -0.148,0.331 -0.331,0.331c-0.183,0 -0.331,-0.148 -0.331,-0.331c0,-0.183 0.148,-0.332 0.331,-0.332Zm3.235,0c0.183,0 0.331,0.149 0.331,0.332c0,0.183 -0.148,0.331 -0.331,0.331c-0.183,0 -0.332,-0.148 -0.332,-0.331c0,-0.183 0.149,-0.332 0.332,-0.332Z" style="fill:#ff3ea4;"/><path d="M54.319,15.389l-1.58,0l0,-14.128l1.58,0l0,0.951l1.838,1.269l0,-2.22l1.629,0l0,14.128l-1.629,0l0,-1.09l-1.838,-1.454l0,2.544Zm2.541,-2.127c0.202,0 0.366,0.164 0.366,0.366c0,0.202 -0.164,0.366 -0.366,0.366c-0.202,0 -0.366,-0.164 -0.366,-0.366c0,-0.202 0.164,-0.366 0.366,-0.366Zm-2.541,-3.481l0,1.534l1.838,1.324l0,-4.314l-1.838,1.456Zm-0.68,1.754c0.202,0 0.366,0.164 0.366,0.366c0,0.202 -0.164,0.366 -0.366,0.366c-0.202,0 -0.366,-0.164 -0.366,-0.366c0,-0.202 0.164,-0.366 0.366,-0.366Zm0,-2.778c0.202,0 0.366,0.164 0.366,0.366c0,0.202 -0.164,0.366 -0.366,0.366c-0.202,0 -0.366,-0.164 -0.366,-0.366c0,-0.202 0.164,-0.366 0.366,-0.366Zm0.68,-4.93l0,4.212l1.838,-1.435l0,-1.376l-1.838,-1.401Zm2.541,3.023c0.202,0 0.366,0.164 0.366,0.366c0,0.202 -0.164,0.366 -0.366,0.366c-0.202,0 -0.366,-0.164 -0.366,-0.366c0,-0.202 0.164,-0.366 0.366,-0.366Zm0,-2.574c0.202,0 0.366,0.164 0.366,0.366c0,0.202 -0.164,0.366 -0.366,0.366c-0.202,0 -0.366,-0.164 -0.366,-0.366c0,-0.202 0.164,-0.366 0.366,-0.366Zm-3.221,-1.889c0.202,0 0.366,0.164 0.366,0.366c0,0.202 -0.164,0.366 -0.366,0.366c-0.202,0 -0.366,-0.164 -0.366,-0.366c0,-0.202 0.164,-0.366 0.366,-0.366Z" style="fill:#ff3ea4;"/><path d="M52.637,20.347l1.555,0.02l0.036,5.856l1.423,0l-2.232,3.03l-2.359,-3.028l1.58,-0.005l-0.003,-5.873l0,0Z" style="fill:#dfbe8f;"/><path d="M99.24,33.027l26.959,0l0.004,-1.606l-1.287,0.01l1.971,-2.579l12.54,-0.032l-0.004,-1.742l-40.245,0.207l0.069,1.501l1.114,0.034l2.158,2.716l-3.253,0.01l-0.026,1.481l0,0Zm4.195,-1.191c-0.179,0 -0.323,0.144 -0.323,0.323c0,0.178 0.144,0.323 0.323,0.323c0.178,0 0.323,-0.145 0.323,-0.323c0,-0.179 -0.145,-0.323 -0.323,-0.323Zm2.201,-0.033c-0.178,0 -0.323,0.145 -0.323,0.323c0,0.178 0.145,0.323 0.323,0.323c0.179,0 0.324,-0.145 0.324,-0.323c0,-0.178 -0.145,-0.323 -0.324,-0.323Zm6.931,-0.018c-0.178,0 -0.323,0.145 -0.323,0.324c0,0.178 0.145,0.323 0.323,0.323c0.179,0 0.323,-0.145 0.323,-0.323c0,-0.179 -0.144,-0.324 -0.323,-0.324Zm2.316,-0.025c-0.178,0 -0.323,0.145 -0.323,0.323c0,0.179 0.145,0.324 0.323,0.324c0.178,0 0.323,-0.145 0.323,-0.324c0,-0.178 -0.145,-0.323 -0.323,-0.323Zm6.924,0.062c-0.178,0 -0.323,0.145 -0.323,0.324c0,0.178 0.145,0.323 0.323,0.323c0.179,0 0.324,-0.145 0.324,-0.323c0,-0.179 -0.145,-0.324 -0.324,-0.324Zm2.171,-0.036c-0.179,0 -0.323,0.145 -0.323,0.323c0,0.179 0.144,0.323 0.323,0.323c0.178,0 0.323,-0.144 0.323,-0.323c0,-0.178 -0.145,-0.323 -0.323,-0.323Zm-3.459,-3.013l4.911,0l-2.129,2.665l-0.705,0l-2.077,-2.665Zm-2.675,0.047l0.784,0l2.208,2.617l-5.107,-0.01l2.115,-2.607Zm-6.677,0l5.27,0l-2.241,2.618l-0.882,0l-2.147,-2.618l0,0Zm-2.218,0l0.523,0l2.108,2.616l-4.82,0.002l2.189,-2.618l0,0Zm-7.085,0l5.342,0l-2.133,2.618l-1.017,0l-2.192,-2.618Zm36.417,-1.183c-0.178,0 -0.323,0.145 -0.323,0.323c0,0.178 0.145,0.323 0.323,0.323c0.179,0 0.323,-0.145 0.323,-0.323c0,-0.178 -0.144,-0.323 -0.323,-0.323Zm-5.887,0.012c-0.178,0 -0.323,0.144 -0.323,0.323c0,0.178 0.145,0.323 0.323,0.323c0.178,0 0.323,-0.145 0.323,-0.323c0,-0.179 -0.145,-0.323 -0.323,-0.323Zm-6.089,0.021c-0.178,0 -0.323,0.144 -0.323,0.323c0,0.178 0.145,0.323 0.323,0.323c0.178,0 0.323,-0.145 0.323,-0.323c0,-0.179 -0.145,-0.323 -0.323,-0.323Zm-7.024,0.109c-0.178,0 -0.323,0.145 -0.323,0.323c0,0.179 0.145,0.323 0.323,0.323c0.179,0 0.324,-0.144 0.324,-0.323c0,-0.178 -0.145,-0.323 -0.324,-0.323Zm-2.038,0.022c-0.179,0 -0.323,0.145 -0.323,0.323c0,0.178 0.144,0.323 0.323,0.323c0.178,0 0.323,-0.145 0.323,-0.323c0,-0.178 -0.145,-0.323 -0.323,-0.323Zm-7.045,0.034c-0.178,0 -0.323,0.145 -0.323,0.324c0,0.178 0.145,0.323 0.323,0.323c0.178,0 0.323,-0.145 0.323,-0.323c0,-0.179 -0.145,-0.324 -0.323,-0.324Zm-2.161,0.04c-0.178,0 -0.323,0.145 -0.323,0.323c0,0.178 0.145,0.323 0.323,0.323c0.179,0 0.323,-0.145 0.323,-0.323c0,-0.178 -0.144,-0.323 -0.323,-0.323Zm-7.151,-0.096c-0.178,0 -0.323,0.144 -0.323,0.323c0,0.178 0.145,0.323 0.323,0.323c0.179,0 0.324,-0.145 0.324,-0.323c0,-0.179 -0.145,-0.323 -0.324,-0.323Z" style="fill:#ff3ea4;"/><path d="M142.072,32.832l4.934,0l-0.006,-5.754l-7.301,0l0,1.742l2.373,4.012Zm0.929,-1.281c-0.178,0 -0.323,0.144 -0.323,0.323c0,0.178 0.145,0.323 0.323,0.323c0.179,0 0.323,-0.145 0.323,-0.323c0,-0.179 -0.144,-0.323 -0.323,-0.323Zm3.105,-0.106c-0.179,0 -0.324,0.145 -0.324,0.323c0,0.179 0.145,0.323 0.324,0.323c0.178,0 0.323,-0.144 0.323,-0.323c0,-0.178 -0.145,-0.323 -0.323,-0.323Zm0,-3.902c-0.179,0 -0.324,0.145 -0.324,0.323c0,0.178 0.145,0.323 0.324,0.323c0.178,0 0.323,-0.145 0.323,-0.323c0,-0.178 -0.145,-0.323 -0.323,-0.323Zm-5.351,0.105c-0.179,0 -0.323,0.145 -0.323,0.324c0,0.178 0.144,0.323 0.323,0.323c0.178,0 0.323,-0.145 0.323,-0.323c0,-0.179 -0.145,-0.324 -0.323,-0.324Z" style="fill:#ff3ea4;"/><path d="M89.962,33.027l9.12,0l-0.007,-14.042l-3.948,-3.082l-5.165,-0.004l0,17.128Zm7.934,-1.265c-0.183,0 -0.331,0.147 -0.331,0.328c0,0.181 0.148,0.328 0.331,0.328c0.183,0 0.332,-0.147 0.332,-0.328c0,-0.181 -0.149,-0.328 -0.332,-0.328Zm-6.93,-0.028c-0.183,0 -0.331,0.147 -0.331,0.328c0,0.182 0.148,0.329 0.331,0.329c0.183,0 0.331,-0.147 0.331,-0.329c0,-0.181 -0.148,-0.328 -0.331,-0.328Zm0.161,-6.867c-0.183,0 -0.332,0.147 -0.332,0.328c0,0.181 0.149,0.328 0.332,0.328c0.183,0 0.331,-0.147 0.331,-0.328c0,-0.181 -0.148,-0.328 -0.331,-0.328Zm6.769,0c-0.183,0 -0.331,0.147 -0.331,0.328c0,0.181 0.148,0.328 0.331,0.328c0.183,0 0.332,-0.147 0.332,-0.328c0,-0.181 -0.149,-0.328 -0.332,-0.328Zm0,-5.633c-0.183,0 -0.331,0.147 -0.331,0.328c0,0.181 0.148,0.328 0.331,0.328c0.183,0 0.332,-0.147 0.332,-0.328c0,-0.181 -0.149,-0.328 -0.332,-0.328Zm-3.521,-2.63c-0.183,0 -0.332,0.147 -0.332,0.328c0,0.181 0.149,0.328 0.332,0.328c0.183,0 0.331,-0.147 0.331,-0.328c0,-0.181 -0.148,-0.328 -0.331,-0.328Zm-3.235,0c-0.183,0 -0.331,0.147 -0.331,0.328c0,0.181 0.148,0.328 0.331,0.328c0.183,0 0.331,-0.147 0.331,-0.328c0,-0.181 -0.148,-0.328 -0.331,-0.328Z" style="fill:#ff3ea4;"/><path d="M91.548,15.614l-1.58,0l0,-14.128l1.58,0l0,0.95l1.839,1.269l0,-2.219l1.629,0l0,14.128l-1.629,0l0,-1.09l-1.839,-1.455l0,2.545Zm2.542,-2.128c0.202,0 0.366,0.164 0.366,0.366c0,0.202 -0.164,0.366 -0.366,0.366c-0.202,0 -0.366,-0.164 -0.366,-0.366c0,-0.202 0.164,-0.366 0.366,-0.366Zm-2.542,-3.48l0,1.534l1.839,1.324l0,-4.314l-1.839,1.456Zm-0.68,1.753c0.202,0 0.366,0.164 0.366,0.366c0,0.202 -0.164,0.366 -0.366,0.366c-0.202,0 -0.366,-0.164 -0.366,-0.366c0,-0.202 0.164,-0.366 0.366,-0.366Zm0,-2.777c0.202,0 0.366,0.164 0.366,0.366c0,0.202 -0.164,0.366 -0.366,0.366c-0.202,0 -0.366,-0.164 -0.366,-0.366c0,-0.202 0.164,-0.366 0.366,-0.366Zm0.68,-4.93l0,4.212l1.839,-1.435l0,-1.376l-1.839,-1.401Zm2.542,3.023c0.202,0 0.366,0.164 0.366,0.366c0,0.202 -0.164,0.366 -0.366,0.366c-0.202,0 -0.366,-0.164 -0.366,-0.366c0,-0.202 0.164,-0.366 0.366,-0.366Zm0,-2.574c0.202,0 0.366,0.164 0.366,0.366c0,0.202 -0.164,0.366 -0.366,0.366c-0.202,0 -0.366,-0.164 -0.366,-0.366c0,-0.202 0.164,-0.366 0.366,-0.366Zm-3.222,-1.889c0.202,0 0.366,0.164 0.366,0.366c0,0.202 -0.164,0.366 -0.366,0.366c-0.202,0 -0.366,-0.164 -0.366,-0.366c0,-0.202 0.164,-0.366 0.366,-0.366Z" style="fill:#ff3ea4;"/><path d="M95.232,29.251l-1.555,-0.019l-0.036,-5.857l-1.423,0.001l2.232,-3.031l2.359,3.028l-1.579,0.006l0.002,5.872Z" style="fill:#dfbe8f;"/><path d="M31.395,48.191l26.391,0l0,1.89l-26.391,0l0,-1.89Zm0.965,0.572c0.206,0 0.373,0.167 0.373,0.373c0,0.207 -0.167,0.374 -0.373,0.374c-0.207,0 -0.374,-0.167 -0.374,-0.374c0,-0.206 0.167,-0.373 0.374,-0.373Zm8.033,0c0.206,0 0.374,0.167 0.374,0.373c0,0.207 -0.168,0.374 -0.374,0.374c-0.206,0 -0.374,-0.167 -0.374,-0.374c0,-0.206 0.168,-0.373 0.374,-0.373Zm8.207,0c0.206,0 0.373,0.167 0.373,0.373c0,0.207 -0.167,0.374 -0.373,0.374c-0.207,0 -0.374,-0.167 -0.374,-0.374c0,-0.206 0.167,-0.373 0.374,-0.373Zm8.206,0c0.206,0 0.374,0.167 0.374,0.373c0,0.207 -0.168,0.374 -0.374,0.374c-0.206,0 -0.374,-0.167 -0.374,-0.374c0,-0.206 0.168,-0.373 0.374,-0.373Z" style="fill:#ff3ea4;"/><path d="M90.427,48.331l25.8,0l0,1.89l-25.8,0l0,-1.89l0,0Zm0.965,0.571c0.206,0 0.374,0.168 0.374,0.374c0,0.206 -0.168,0.374 -0.374,0.374c-0.206,0 -0.374,-0.168 -0.374,-0.374c0,-0.206 0.168,-0.374 0.374,-0.374Zm7.916,0c0.206,0 0.374,0.168 0.374,0.374c0,0.206 -0.168,0.374 -0.374,0.374c-0.206,0 -0.373,-0.168 -0.373,-0.374c0,-0.206 0.167,-0.374 0.373,-0.374Zm7.891,0c0.207,0 0.374,0.168 0.374,0.374c0,0.206 -0.167,0.374 -0.374,0.374c-0.206,0 -0.373,-0.168 -0.373,-0.374c0,-0.206 0.167,-0.374 0.373,-0.374Zm8.048,0c0.206,0 0.374,0.168 0.374,0.374c0,0.206 -0.168,0.374 -0.374,0.374c-0.206,0 -0.374,-0.168 -0.374,-0.374c0,-0.206 0.168,-0.374 0.374,-0.374Z" style="fill:#ff3ea4;"/><path d="M22.042,50.499l-4.466,-0.014l-0.094,-4.567l1.79,-1.804c2.058,0.93 2.623,3.437 2.77,6.385Z" style="fill:#045f7a;"/><path d="M0.305,35.99l-0.001,-0.962l4.299,-0.002l0.073,2.59l-2.556,0.012l2.612,3.919l0,2.519l-4.419,0.048l-0.003,-2.481l2.466,-0.046l-2.469,-3.961l-0.001,-0.96c0.031,0.009 0.063,0.013 0.096,0.013c0.194,0 0.352,-0.157 0.352,-0.351c0,-0.194 -0.158,-0.352 -0.352,-0.352c-0.033,0 -0.066,0.005 -0.097,0.014l0,0Zm2.963,6.423c0.239,0 0.433,0.194 0.433,0.433c0,0.238 -0.194,0.432 -0.433,0.432c-0.239,0 -0.433,-0.194 -0.433,-0.432c0,-0.239 0.194,-0.433 0.433,-0.433Z" style="fill:#0270b6;"/><path d="M7.217,35.059l0.083,9.076l3.068,1.696l0.001,3.3l-1.967,0.023l-3.42,-1.786l-0.25,-12.342l2.485,0.033Zm-1.092,11.013c0.185,0 0.335,0.15 0.335,0.336c0,0.185 -0.15,0.335 -0.335,0.335c-0.185,0 -0.336,-0.15 -0.336,-0.335c0,-0.186 0.151,-0.336 0.336,-0.336Zm-0.336,-9.96c0.185,0 0.336,0.15 0.336,0.335c0,0.185 -0.151,0.335 -0.336,0.335c-0.185,0 -0.335,-0.15 -0.335,-0.335c0,-0.185 0.15,-0.335 0.335,-0.335Z" style="fill:#0270b6;"/><path d="M16.952,35.026l0.03,9.088l-1.565,1.441l0.071,4.944l2.088,0l-0.116,-4.558l1.812,-1.827l-0.067,-9.088l-2.253,0" style="fill:#0270b6;"/><path d="M22.27,68.439l-4.788,-0.019l0,-3.522l2.471,-2.407c1.988,0.626 2.113,2.752 2.317,5.948l0,0Z" style="fill:#045f7a;"/><path d="M0.318,55.275l-0.001,-0.962l4.299,-0.002l0.072,2.59l-2.556,0.012l2.604,3.908l0.008,2.53l-4.419,0.048l0.003,-2.653l2.616,-0.022l-2.625,-3.813l-0.001,-0.96c0.031,0.009 0.063,0.013 0.097,0.013c0.194,0 0.351,-0.157 0.351,-0.351c0,-0.194 -0.157,-0.352 -0.351,-0.352c-0.034,0 -0.066,0.005 -0.097,0.014l0,0Zm2.962,6.423c0.239,0 0.433,0.194 0.433,0.433c0,0.238 -0.194,0.432 -0.433,0.432c-0.238,0 -0.432,-0.194 -0.432,-0.432c0,-0.239 0.194,-0.433 0.432,-0.433Z" style="fill:#0270b6;"/><path d="M7.23,54.344l0.116,8.894l3.034,1.878l0.001,3.3l-1.967,0.023l-3.42,-1.787l-0.25,-12.341l2.486,0.033Zm-1.093,11.013c0.185,0 0.335,0.15 0.335,0.335c0,0.186 -0.15,0.336 -0.335,0.336c-0.185,0 -0.335,-0.15 -0.335,-0.336c0,-0.185 0.15,-0.335 0.335,-0.335Zm-0.335,-9.96c0.185,0 0.335,0.15 0.335,0.335c0,0.185 -0.15,0.335 -0.335,0.335c-0.185,0 -0.336,-0.15 -0.336,-0.335c0,-0.185 0.151,-0.335 0.336,-0.335Z" style="fill:#0270b6;"/><path d="M16.965,54.311l0.013,8.669l-1.507,1.684l-0.015,3.806l2.015,-0.031l0.013,-3.547l1.89,-1.907l-0.156,-8.674l-2.253,0" style="fill:#0270b6;"/><path d="M126.511,50.569l4.577,0l0.023,-3.515l-2.471,-2.481c-1.754,0.839 -2.058,3.603 -2.129,5.996Z" style="fill:#045f7a;"/><path d="M147.003,37.857l0.003,-2.599l-3.507,-0.001l-0.022,2.685l2.181,0.031l-2.288,3.805l0.001,2.518l3.626,0.049l0.002,-2.482l0.004,-4.006Zm-2.549,4.623c-0.239,0 -0.433,0.194 -0.433,0.433c0,0.239 0.194,0.433 0.433,0.433c0.239,0 0.433,-0.194 0.433,-0.433c0,-0.239 -0.194,-0.433 -0.433,-0.433Z" style="fill:#0270b6;"/><path d="M140.762,35.257l0.005,8.94l-2.725,2.083l0.002,3.169l2.283,0.023l2.794,-1.874l0.249,-12.341l-2.608,0Zm0.96,10.519c-0.185,0 -0.335,0.15 -0.335,0.335c0,0.185 0.15,0.335 0.335,0.335c0.185,0 0.335,-0.15 0.335,-0.335c0,-0.185 -0.15,-0.335 -0.335,-0.335Zm0.305,-9.549c-0.185,0 -0.335,0.15 -0.335,0.335c0,0.185 0.15,0.335 0.335,0.335c0.185,0 0.335,-0.15 0.335,-0.335c0,-0.185 -0.15,-0.335 -0.335,-0.335Z" style="fill:#0270b6;"/><path d="M130.881,35.257l-0.099,9.088l2.172,2.134l-0.064,4.081l-1.802,0.009l0.023,-3.515l-2.471,-2.481l0.002,-9.316" style="fill:#0270b6;"/><path d="M126.659,68.494l4.508,-0.005l0.001,-3.373l-2.456,-2.534c-2.057,1.354 -1.904,3.425 -2.053,5.912l0,0Z" style="fill:#045f7a;"/><path d="M147,57.284l-0.003,-3.296l-3.545,-0.023l-0.034,2.551l2.555,0.014l-2.612,3.917l0.001,2.518l3.644,0.04l-0.003,-2.366l-2.023,-0.025l2.02,-3.33l0,0Zm-2.346,4.018c-0.239,0 -0.433,0.194 -0.433,0.433c0,0.239 0.194,0.433 0.433,0.433c0.239,0 0.433,-0.194 0.433,-0.433c0,-0.239 -0.194,-0.433 -0.433,-0.433Z" style="fill:#0270b6;"/><path d="M140.876,53.959l-0.1,8.942l-2.632,2.096l-0.037,3.419l1.851,0.078l3.244,-2.44l0.159,-12.089l-2.485,-0.006l0,0Zm0.994,9.997c-0.185,0 -0.335,0.151 -0.335,0.336c0,0.185 0.15,0.335 0.335,0.335c0.185,0 0.335,-0.15 0.335,-0.335c0,-0.185 -0.15,-0.336 -0.335,-0.336Zm0.172,-8.875c-0.185,0 -0.335,0.15 -0.335,0.335c0,0.185 0.15,0.335 0.335,0.335c0.185,0 0.335,-0.15 0.335,-0.335c0,-0.185 -0.15,-0.335 -0.335,-0.335Z" style="fill:#0270b6;"/><path d="M130.942,53.965l0.032,8.635l2.2,2.278l-0.034,3.616l-1.973,0l0.001,-3.397l-2.44,-2.511l-0.016,-8.621" style="fill:#0270b6;"/><rect x="58.659" y="0.277" width="30.171" height="2.904" style="fill:#dbaf87;"/><rect x="59.39" y="93.404" width="30.171" height="2.823" style="fill:#dbaf87;"/><path id="No.-Black" d="M147.006,96.227l-147.006,0l0,-96.225l147.006,0l0,96.225Zm-57.507,-96.225c-0.165,0 -0.304,0.224 -0.304,0.389c0,0.737 0.008,2.689 0.008,2.689c0,0.18 -0.146,0.326 -0.326,0.326l-30.241,0c-0.18,0 -0.326,-0.146 -0.326,-0.326c0,0 0,-1.7 0,-2.478c0,-0.1 -0.025,-0.337 -0.096,-0.408c-0.071,-0.072 -0.184,-0.192 -0.284,-0.192c-4.876,0.005 -54.902,0 -54.902,0c-1.567,0.002 -3.029,1.669 -3.028,3.236l0,90.153c0.002,1.567 1.568,2.837 3.134,2.836c0,0 51.72,0.004 55.771,0c0.138,0 0.243,-0.163 0.243,-0.302c0,-0.685 0,-2.537 0,-2.537c0,-0.18 0.146,-0.326 0.326,-0.326l30.241,0c0.18,0 0.326,0.146 0.326,0.326c0,0 0,1.595 0,2.359c0,0.107 0.042,0.208 0.117,0.283c0.075,0.075 0.191,0.197 0.297,0.197c4.921,-0.004 53.565,-0.002 53.565,-0.002c1.567,-0.001 2.987,-1.481 2.986,-3.048l0,-90.223c-0.002,-1.566 -1.488,-2.953 -3.055,-2.952c0,0 -50.118,-0.004 -54.452,0l0,0Zm-26.742,96.17l1.919,-2.666l-2.946,0.009l-2.089,2.657l3.116,0Zm8.613,-0.007l1.965,-2.635l-3.359,-0.015l-1.992,2.653l3.386,-0.003Zm8.01,-0.008l1.879,-2.651l-3.105,0.009l-1.994,2.645l3.22,-0.003Zm8.266,-0.007l1.911,-2.649l-3.151,0.014l-1.95,2.638l3.19,-0.003Zm-17.461,-93.168l1.39,-2.542l-3.031,0l-1.61,2.542l3.251,0Zm-8.283,0l1.717,-2.542l-3.183,0l-1.803,2.542l3.269,0Zm24.476,0l1.529,-2.542l-2.841,0l-1.563,2.542l2.875,0Zm-7.979,0l1.571,-2.542l-3.261,0l-1.759,2.542l3.449,0Z"/></svg>