<?xml version="1.0" encoding="UTF-8" standalone="no"?><!DOCTYPE svg PUBLIC "-//W3C//DTD SVG 1.1//EN" "http://www.w3.org/Graphics/SVG/1.1/DTD/svg11.dtd"><svg width="100%" height="100%" viewBox="0 0 2533 1727" version="1.1" xmlns="http://www.w3.org/2000/svg" xmlns:xlink="http://www.w3.org/1999/xlink" xml:space="preserve" style="fill-rule:evenodd;clip-rule:evenodd;stroke-linecap:round;stroke-linejoin:round;stroke-miterlimit:1.5;"><g><g><path d="M1108.77,0l-22.325,0l0,262.522c0,6.161 5.001,11.163 11.162,11.163c6.161,0 11.163,-5.002 11.163,-11.163l0,-262.522Z" style="fill:#00bdf5;"/><path d="M1164.48,0l-22.325,0l0,262.522c0,6.161 5.002,11.163 11.163,11.163c6.16,0 11.162,-5.002 11.162,-11.163l0,-262.522Z" style="fill:#00bdf5;"/><path d="M1190.29,0l-126.139,0l-1.048,280.412c0.866,17.215 -14.656,27.291 -30.988,33.92c-1.956,0.788 -3.079,2.852 -2.678,4.922c0.401,2.071 2.214,3.567 4.323,3.567c47.436,0.022 144.16,0.06 178.766,0.074c1.373,0 2.579,-0.912 2.953,-2.234c0.374,-1.321 -0.176,-2.73 -1.346,-3.449c-11.314,-6.826 -22.103,-17.502 -22.138,-36.295c-0.001,-0.357 -0.023,-0.714 -0.028,-1.074l-1.677,-279.843Z" style="fill:#00bdf5;fill-opacity:0.501961;"/><path d="M1192.01,279.843c0.005,0.314 0.019,0.627 0.026,0.94c0.003,0.337 0.005,0.673 0.01,1.009c0.024,1.061 0.078,2.12 0.172,3.177c0.183,2.042 0.509,4.071 0.994,6.063c0.479,1.963 1.112,3.889 1.902,5.75c0.791,1.863 2.235,4.421 3.322,6.128c1.546,2.43 2.876,3.913 4.903,5.957c2.189,2.209 4.606,4.184 7.156,5.961c0.774,0.54 1.561,1.061 2.358,1.566c0.263,0.167 0.527,0.332 0.793,0.495c0.194,0.119 0.391,0.235 0.584,0.357c0.053,0.035 0.106,0.071 0.158,0.108c0.332,0.25 0.615,0.557 0.826,0.917c0.186,0.317 0.315,0.666 0.378,1.028c0.05,0.285 0.059,0.577 0.027,0.864c-0.035,0.316 -0.119,0.627 -0.249,0.917c-0.303,0.677 -0.853,1.23 -1.527,1.538c-0.382,0.175 -0.792,0.264 -1.211,0.277c-28.21,0.292 -56.423,-0.022 -84.635,-0.034c-31.399,-0.013 -62.797,-0.025 -94.195,-0.04c-0.033,0 -0.066,0 -0.099,-0.001c-0.162,-0.005 -0.324,-0.016 -0.485,-0.037c-0.409,-0.055 -0.809,-0.167 -1.187,-0.333c-0.829,-0.365 -1.537,-0.988 -2.003,-1.765c-0.231,-0.384 -0.402,-0.803 -0.507,-1.238c-0.098,-0.41 -0.138,-0.833 -0.117,-1.253c0.026,-0.501 0.138,-0.998 0.33,-1.461c0.203,-0.489 0.493,-0.941 0.855,-1.327c0.281,-0.301 0.604,-0.561 0.958,-0.772c0.167,-0.1 0.341,-0.186 0.52,-0.265c0.412,-0.171 0.825,-0.338 1.238,-0.509c2.031,-0.852 4.043,-1.749 6.021,-2.72c1.466,-0.72 2.913,-1.478 4.334,-2.284c1.163,-0.659 2.308,-1.349 3.43,-2.076c0.771,-0.501 1.532,-1.018 2.278,-1.555c0.525,-0.378 1.044,-0.765 1.554,-1.163c3.353,-2.611 4.294,-4.128 6.511,-7.774c0.341,-0.561 0.662,-1.134 0.96,-1.718c0.406,-0.797 0.771,-1.616 1.09,-2.452c0.474,-1.245 0.846,-2.529 1.108,-3.835c0.273,-1.36 0.428,-2.743 0.471,-4.129c0.022,-0.727 0.012,-1.454 -0.022,-2.18l1.447,-281.974l127.845,0c0.559,93.281 1.119,186.562 1.678,279.843Zm-122.97,1.959c0.009,0.183 0.014,0.365 0.02,0.547c0.007,0.259 0.007,0.259 0.011,0.517c0.008,0.85 -0.008,1.7 -0.06,2.548c-0.106,1.738 -0.348,3.467 -0.73,5.165c-0.388,1.724 -0.919,3.415 -1.584,5.052c-0.502,1.236 -1.081,2.44 -1.728,3.607c-0.524,0.946 -1.093,1.866 -1.701,2.76c-0.431,0.632 -0.881,1.251 -1.349,1.856c-3.367,4.349 -5.52,6.38 -10.101,9.393c-0.828,0.545 -1.669,1.07 -2.519,1.581c26.234,0.011 52.467,0.022 78.701,0.033l70.048,0.029c-0.131,-0.13 -0.261,-0.26 -0.391,-0.391c-0.82,-0.833 -1.617,-1.686 -2.381,-2.571c-1.267,-1.468 -2.448,-3.012 -3.526,-4.625c-1.641,-2.454 -3.041,-5.067 -4.168,-7.795c-1.088,-2.634 -1.919,-5.372 -2.498,-8.162c-0.472,-2.271 -0.776,-4.576 -0.929,-6.891c-0.05,-0.749 -0.083,-1.499 -0.101,-2.25c-0.007,-0.254 -0.011,-0.508 -0.014,-0.762c-0.002,-0.227 -0.001,-0.454 -0.007,-0.68c-0.007,-0.201 -0.013,-0.402 -0.019,-0.604l-0.004,-0.219l-1.63,-279.94l-111.923,0c-0.339,90.747 -1.078,191.056 -1.417,281.802Z" style="fill:#00bdf5;fill-rule:nonzero;"/></g><g><path d="M1488.25,4.674l-21.56,0l0,262.905c0,5.95 4.83,10.78 10.78,10.78c5.949,0 10.78,-4.83 10.78,-10.78l0,-262.905Z" style="fill:#00bdf5;"/><path d="M1542.06,4.674l-21.559,0l0,262.905c0,5.95 4.83,10.78 10.78,10.78c5.949,0 10.779,-4.83 10.779,-10.78l0,-262.905Z" style="fill:#00bdf5;"/><path d="M1566.99,4.674l-121.812,0l-1.012,280.412c0.838,17.231 -14.182,27.311 -29.97,33.939c-1.938,0.807 -3.037,2.87 -2.626,4.929c0.411,2.058 2.218,3.541 4.317,3.542c45.804,0.021 139.069,0.06 172.521,0.073c1.365,0 2.565,-0.901 2.946,-2.212c0.381,-1.31 -0.149,-2.715 -1.301,-3.447c-10.94,-6.825 -21.383,-17.504 -21.417,-36.319c-0.001,-0.357 -0.022,-0.714 -0.027,-1.073l-1.619,-279.844Z" style="fill:#00bdf5;fill-opacity:0.501961;"/><path d="M1568.64,284.518c0.006,0.313 0.02,0.626 0.026,0.939c0.003,0.337 0.004,0.673 0.01,1.009c0.023,1.061 0.075,2.12 0.166,3.177c0.176,2.042 0.491,4.071 0.96,6.063c0.462,1.963 1.074,3.889 1.836,5.75c0.764,1.863 2.159,4.421 3.208,6.129c1.494,2.429 2.778,3.912 4.735,5.957c2.114,2.208 4.448,4.183 6.911,5.96c0.747,0.54 1.507,1.061 2.276,1.566c0.255,0.167 0.51,0.332 0.766,0.495c0.188,0.12 0.378,0.236 0.564,0.357c0.052,0.035 0.103,0.071 0.153,0.109c0.321,0.25 0.594,0.557 0.798,0.916c0.179,0.317 0.304,0.667 0.365,1.028c0.048,0.285 0.057,0.577 0.026,0.864c-0.034,0.316 -0.116,0.627 -0.241,0.917c-0.292,0.677 -0.823,1.23 -1.475,1.539c-0.368,0.174 -0.764,0.263 -1.168,0.276c-27.243,0.292 -54.488,-0.022 -81.732,-0.034c-30.321,-0.012 -60.642,-0.025 -90.963,-0.039c-0.032,0 -0.064,-0.001 -0.095,-0.002c-0.157,-0.005 -0.314,-0.016 -0.47,-0.037c-0.394,-0.055 -0.781,-0.167 -1.145,-0.333c-0.801,-0.365 -1.484,-0.988 -1.935,-1.765c-0.223,-0.384 -0.388,-0.803 -0.489,-1.238c-0.095,-0.409 -0.133,-0.833 -0.113,-1.253c0.025,-0.501 0.133,-0.998 0.318,-1.461c0.196,-0.489 0.477,-0.941 0.826,-1.327c0.272,-0.301 0.584,-0.561 0.925,-0.772c0.162,-0.099 0.33,-0.186 0.502,-0.264c0.398,-0.172 0.797,-0.339 1.195,-0.51c1.962,-0.851 3.906,-1.749 5.815,-2.72c1.416,-0.72 2.813,-1.478 4.185,-2.283c1.124,-0.66 2.23,-1.35 3.313,-2.077c0.745,-0.5 1.479,-1.018 2.2,-1.554c0.507,-0.378 1.008,-0.766 1.501,-1.163c3.238,-2.612 4.146,-4.129 6.287,-7.775c0.329,-0.561 0.639,-1.134 0.927,-1.718c0.393,-0.797 0.745,-1.616 1.053,-2.452c0.458,-1.245 0.816,-2.529 1.07,-3.835c0.263,-1.36 0.413,-2.743 0.454,-4.129c0.022,-0.727 0.012,-1.454 -0.021,-2.18l1.398,-281.974l123.459,0c0.54,93.281 1.079,186.562 1.619,279.844Zm-118.75,1.959c0.008,0.182 0.014,0.364 0.019,0.546c0.007,0.259 0.007,0.259 0.011,0.518c0.008,0.85 -0.008,1.699 -0.058,2.548c-0.102,1.737 -0.336,3.466 -0.705,5.164c-0.375,1.724 -0.887,3.415 -1.53,5.052c-0.485,1.236 -1.044,2.441 -1.668,3.607c-0.506,0.946 -1.056,1.867 -1.643,2.76c-0.416,0.632 -0.851,1.251 -1.303,1.856c-3.252,4.35 -5.331,6.38 -9.754,9.393c-0.8,0.545 -1.612,1.07 -2.433,1.581c25.334,0.012 50.667,0.022 76.001,0.033l67.645,0.029c-0.127,-0.13 -0.252,-0.26 -0.378,-0.39c-0.792,-0.833 -1.561,-1.687 -2.299,-2.572c-1.224,-1.468 -2.365,-3.012 -3.406,-4.625c-1.584,-2.454 -2.936,-5.067 -4.024,-7.795c-1.051,-2.634 -1.854,-5.372 -2.413,-8.162c-0.455,-2.271 -0.749,-4.576 -0.897,-6.891c-0.048,-0.749 -0.08,-1.499 -0.098,-2.25c-0.006,-0.254 -0.01,-0.508 -0.013,-0.762c-0.002,-0.227 0,-0.453 -0.006,-0.68c-0.007,-0.201 -0.014,-0.402 -0.019,-0.603l-0.004,-0.22l-1.574,-279.94l-108.083,0c-0.327,90.747 -1.04,191.056 -1.368,281.803Z" style="fill:#00bdf5;fill-rule:nonzero;"/></g><g><path d="M1031,296.288l-189.646,0l0,-183.045c0,-52.334 42.489,-94.823 94.823,-94.823c52.335,0 94.823,42.489 94.823,94.823l0,183.045Zm-46.548,-147.241l-129.005,119.449l-0.658,14.402l45.975,0.441l117.058,-106.78l-0.224,-27.512l-33.146,0Zm-38.479,-16.592l60.063,-58.825c-8.134,-11.115 -9.244,-14.14 -22.949,-24.993l-88.043,83.818l50.929,0Z" style="fill:#00bdf5;fill-opacity:0.501961;"/><path d="M927.861,296.288l-86.503,0c0,-61.219 -0.289,-122.439 0.002,-183.658c0.011,-1.32 0.044,-2.641 0.107,-3.96c0.119,-2.506 0.337,-5.008 0.654,-7.497c0.817,-6.422 2.296,-12.759 4.411,-18.879c2.257,-6.53 5.236,-12.809 8.861,-18.692c3.737,-6.065 8.158,-11.707 13.151,-16.789c5.19,-5.285 10.997,-9.962 17.268,-13.905c6.01,-3.778 12.444,-6.879 19.146,-9.219c6.204,-2.165 12.635,-3.677 19.153,-4.506c2.489,-0.317 4.991,-0.535 7.497,-0.654c1.319,-0.063 2.64,-0.096 3.961,-0.107c0.306,-0.001 0.612,-0.002 0.919,-0.001c1.322,0.006 2.643,0.035 3.964,0.094c2.508,0.111 5.011,0.321 7.503,0.63c6.428,0.798 12.772,2.258 18.9,4.355c6.72,2.299 13.176,5.361 19.211,9.105c6.215,3.855 11.981,8.43 17.152,13.601c5.172,5.172 9.746,10.938 13.602,17.153c3.743,6.035 6.806,12.49 9.105,19.21c2.129,6.223 3.601,12.668 4.391,19.198c0.301,2.494 0.503,5 0.607,7.509c0.054,1.322 0.079,2.645 0.081,3.967l0,183.045l-85.027,0l-18.116,0Zm0,-14l0,-133.241l-72.503,0l0,133.241l72.503,0Zm89.249,-133.241l-71.133,0l0,133.241l71.027,0c0,-44.414 0.166,-88.828 0.106,-133.241Zm-0.034,-16.592c-0.018,-6.579 -0.042,-13.157 -0.073,-19.735c-0.026,-3.185 -0.225,-6.366 -0.617,-9.527c-0.699,-5.636 -1.997,-11.197 -3.869,-16.559c-1.858,-5.326 -4.282,-10.452 -7.212,-15.272c-3.367,-5.539 -7.401,-10.672 -11.985,-15.255c-4.125,-4.124 -8.692,-7.806 -13.602,-10.954c-5.296,-3.396 -10.987,-6.172 -16.927,-8.246c-5.283,-1.844 -10.757,-3.13 -16.307,-3.836c-3.33,-0.424 -6.684,-0.634 -10.04,-0.65c-0.175,-0.001 -0.35,-0.001 -0.525,0c-3.356,0.016 -6.71,0.226 -10.04,0.65c-5.55,0.706 -11.025,1.993 -16.308,3.836c-5.709,1.993 -11.189,4.635 -16.308,7.853c-5.213,3.277 -10.05,7.151 -14.39,11.518c-4.342,4.367 -8.187,9.227 -11.433,14.461c-3.145,5.07 -5.727,10.489 -7.676,16.128c-1.856,5.371 -3.136,10.938 -3.818,16.579c-0.267,2.214 -0.443,4.439 -0.528,6.667c-0.04,1.047 -0.058,2.094 -0.06,3.141l0,19.201l161.718,0Z" style="fill:#00bdf5;"/></g><g><path d="M1412.7,296.288l-189.646,0l0,-183.044c0,-52.335 42.489,-94.823 94.823,-94.823c52.334,0 94.823,42.488 94.823,94.823l0,183.044Zm-46.548,-147.24l-129.005,119.449l-0.658,14.402l45.974,0.441l117.058,-106.78l-0.224,-27.512l-33.145,0Zm-38.48,-16.593l60.063,-58.824c-8.134,-11.116 -9.244,-14.141 -22.949,-24.994l-88.042,83.818l50.928,0Z" style="fill:#00bdf5;fill-opacity:0.501961;"/><path d="M1309.55,296.288l-86.503,0c0,-61.219 -0.29,-122.439 0.002,-183.657c0.01,-1.321 0.044,-2.641 0.106,-3.961c0.12,-2.506 0.337,-5.007 0.654,-7.496c0.818,-6.423 2.297,-12.76 4.412,-18.879c2.257,-6.531 5.236,-12.81 8.86,-18.693c3.738,-6.065 8.159,-11.707 13.151,-16.789c5.191,-5.284 10.997,-9.962 17.268,-13.905c6.01,-3.778 12.444,-6.879 19.147,-9.218c6.204,-2.166 12.634,-3.677 19.153,-4.507c2.489,-0.317 4.99,-0.535 7.496,-0.654c1.32,-0.063 2.64,-0.096 3.961,-0.107c0.306,-0.001 0.613,-0.001 0.919,-0.001c1.322,0.006 2.644,0.036 3.964,0.094c2.508,0.112 5.012,0.322 7.503,0.631c6.428,0.797 12.772,2.257 18.901,4.354c6.72,2.299 13.175,5.362 19.21,9.105c6.215,3.856 11.981,8.43 17.153,13.602c5.171,5.171 9.746,10.937 13.601,17.152c3.744,6.035 6.807,12.491 9.106,19.211c2.129,6.222 3.601,12.668 4.39,19.197c0.302,2.494 0.504,5 0.607,7.51c0.055,1.321 0.08,2.644 0.082,3.967l0,183.044l-85.028,0l-18.115,0Zm0,-14l0,-133.24l-72.503,0l0,133.24l72.503,0Zm89.249,-133.24l-71.134,0l0,133.24l71.028,0c0,-44.413 0.166,-88.827 0.106,-133.24Zm-0.034,-16.593c-0.018,-6.578 -0.042,-13.157 -0.074,-19.735c-0.025,-3.185 -0.225,-6.366 -0.617,-9.527c-0.699,-5.636 -1.996,-11.197 -3.868,-16.559c-1.859,-5.325 -4.282,-10.452 -7.212,-15.272c-3.367,-5.539 -7.402,-10.672 -11.986,-15.255c-4.125,-4.124 -8.692,-7.805 -13.602,-10.954c-5.296,-3.396 -10.987,-6.172 -16.927,-8.245c-5.282,-1.844 -10.757,-3.131 -16.307,-3.837c-3.33,-0.424 -6.683,-0.634 -10.04,-0.65c-0.175,0 -0.35,0 -0.524,0c-3.357,0.016 -6.71,0.226 -10.04,0.65c-5.551,0.706 -11.025,1.993 -16.308,3.837c-5.709,1.992 -11.189,4.635 -16.309,7.853c-5.213,3.277 -10.049,7.15 -14.39,11.517c-4.341,4.368 -8.186,9.228 -11.433,14.461c-3.145,5.07 -5.726,10.489 -7.675,16.128c-1.856,5.371 -3.137,10.938 -3.819,16.579c-0.267,2.214 -0.443,4.439 -0.528,6.667c-0.04,1.047 -0.058,2.094 -0.059,3.142l0,19.2l161.718,0Z" style="fill:#00bdf5;"/></g><g><path d="M1787.04,296.288l-189.646,0l0,-183.045c0,-52.334 42.489,-94.823 94.823,-94.823c52.335,0 94.823,42.489 94.823,94.823l0,183.045Zm-46.548,-147.241l-129.005,119.449l-0.658,14.402l45.974,0.441l117.058,-106.78l-0.223,-27.512l-33.146,0Zm-38.479,-16.592l60.063,-58.825c-8.134,-11.115 -9.244,-14.14 -22.949,-24.993l-88.043,83.818l50.929,0Z" style="fill:#00bdf5;fill-opacity:0.501961;"/><path d="M1683.9,296.288l-86.503,0c0,-61.219 -0.289,-122.439 0.002,-183.658c0.011,-1.32 0.044,-2.641 0.107,-3.96c0.119,-2.506 0.337,-5.008 0.654,-7.497c0.817,-6.422 2.296,-12.759 4.411,-18.879c2.257,-6.53 5.236,-12.809 8.861,-18.692c3.737,-6.065 8.158,-11.707 13.151,-16.789c5.19,-5.285 10.997,-9.962 17.268,-13.905c6.01,-3.778 12.444,-6.879 19.146,-9.219c6.204,-2.165 12.635,-3.677 19.153,-4.506c2.489,-0.317 4.991,-0.535 7.497,-0.654c1.319,-0.063 2.64,-0.096 3.96,-0.107c0.307,-0.001 0.613,-0.002 0.92,-0.001c1.322,0.006 2.643,0.035 3.964,0.094c2.508,0.111 5.011,0.321 7.503,0.63c6.428,0.798 12.772,2.258 18.9,4.355c6.72,2.299 13.176,5.361 19.211,9.105c6.215,3.855 11.981,8.43 17.152,13.601c5.171,5.172 9.746,10.938 13.601,17.153c3.744,6.035 6.807,12.49 9.106,19.21c2.129,6.223 3.601,12.668 4.391,19.198c0.301,2.494 0.503,5 0.607,7.509c0.054,1.322 0.079,2.645 0.081,3.967l0,183.045l-85.027,0l-18.116,0Zm0,-14l0,-133.241l-72.503,0l0,133.241l72.503,0Zm89.249,-133.241l-71.133,0l0,133.241l71.027,0c0,-44.414 0.166,-88.828 0.106,-133.241Zm-0.034,-16.592c-0.018,-6.579 -0.042,-13.157 -0.073,-19.735c-0.026,-3.185 -0.225,-6.366 -0.617,-9.527c-0.699,-5.636 -1.997,-11.197 -3.869,-16.559c-1.858,-5.326 -4.282,-10.452 -7.212,-15.272c-3.367,-5.539 -7.401,-10.672 -11.985,-15.255c-4.125,-4.124 -8.692,-7.806 -13.602,-10.954c-5.296,-3.396 -10.987,-6.172 -16.927,-8.246c-5.283,-1.844 -10.757,-3.13 -16.307,-3.836c-3.331,-0.424 -6.684,-0.634 -10.041,-0.65c-0.174,-0.001 -0.349,-0.001 -0.524,0c-3.357,0.016 -6.71,0.226 -10.04,0.65c-5.55,0.706 -11.025,1.993 -16.308,3.836c-5.709,1.993 -11.189,4.635 -16.308,7.853c-5.213,3.277 -10.05,7.151 -14.39,11.518c-4.342,4.367 -8.187,9.227 -11.433,14.461c-3.145,5.07 -5.727,10.489 -7.676,16.128c-1.856,5.371 -3.137,10.938 -3.818,16.579c-0.268,2.214 -0.444,4.439 -0.528,6.667c-0.04,1.047 -0.058,2.094 -0.06,3.141l0,19.201l161.718,0Z" style="fill:#00bdf5;"/></g><path d="M1231.88,364.508c0,-15.821 -12.845,-28.665 -28.666,-28.665l-156.023,0c-15.821,0 -28.666,12.844 -28.666,28.665c0,15.822 12.845,28.666 28.666,28.666l156.023,0c15.821,0 28.666,-12.844 28.666,-28.666Z" style="fill:#00bdf5;fill-opacity:0.501961;"/><path d="M1203.4,335.843l0.185,0.002l0.185,0.003l0.185,0.004l0.184,0.005l0.184,0.007l0.183,0.007l0.183,0.009l0.183,0.01l0.183,0.011l0.182,0.012l0.182,0.013l0.182,0.015l0.181,0.015l0.182,0.017l0.18,0.018l0.181,0.019l0.18,0.02l0.18,0.021l0.179,0.022l0.179,0.024l0.179,0.024l0.178,0.026l0.178,0.026l0.178,0.028l0.177,0.029l0.177,0.03l0.177,0.031l0.176,0.032l0.176,0.033l0.175,0.034l0.175,0.036l0.175,0.036l0.174,0.037l0.174,0.039l0.174,0.039l0.173,0.041l0.172,0.042l0.173,0.042l0.172,0.044l0.171,0.045l0.171,0.045l0.171,0.047l0.17,0.048l0.17,0.049l0.169,0.05l0.169,0.051l0.168,0.051l0.169,0.053l0.167,0.054l0.167,0.055l0.167,0.056l0.166,0.057l0.166,0.058l0.165,0.059l0.165,0.059l0.164,0.061l0.164,0.062l0.164,0.063l0.163,0.064l0.162,0.064l0.162,0.066l0.162,0.066l0.161,0.068l0.16,0.069l0.16,0.069l0.16,0.07l0.159,0.072l0.158,0.072l0.158,0.073l0.157,0.074l0.157,0.075l0.157,0.076l0.155,0.077l0.156,0.078l0.155,0.079l0.154,0.079l0.153,0.081l0.154,0.081l0.152,0.083l0.152,0.083l0.152,0.084l0.151,0.085l0.15,0.086l0.15,0.087l0.149,0.087l0.149,0.089l0.148,0.089l0.147,0.091l0.147,0.091l0.146,0.092l0.146,0.092l0.145,0.094l0.145,0.095l0.143,0.095l0.144,0.096l0.142,0.097l0.142,0.098l0.142,0.099l0.141,0.099l0.14,0.101l0.139,0.101l0.139,0.102l0.139,0.103l0.137,0.103l0.137,0.105l0.137,0.105l0.135,0.106l0.136,0.107l0.134,0.108l0.134,0.108l0.133,0.109l0.132,0.11l0.132,0.111l0.131,0.111l0.13,0.113l0.13,0.113l0.129,0.113l0.128,0.115l0.128,0.115l0.127,0.116l0.126,0.117l0.126,0.118l0.125,0.118l0.124,0.119l0.123,0.12l0.123,0.121l0.122,0.121l0.121,0.122l0.121,0.122l0.119,0.124l0.119,0.124l0.119,0.125l0.117,0.125l0.117,0.127l0.116,0.127l0.116,0.127l0.114,0.129l0.114,0.129l0.113,0.129l0.112,0.131l0.112,0.131l0.111,0.131l0.11,0.133l0.109,0.133l0.108,0.134l0.108,0.134l0.107,0.135l0.106,0.136l0.105,0.136l0.104,0.137l0.104,0.138l0.103,0.138l0.102,0.139l0.101,0.14l0.1,0.14l0.1,0.141l0.098,0.141l0.098,0.142l0.097,0.143l0.097,0.143l0.095,0.144l0.094,0.145l0.094,0.145l0.093,0.145l0.092,0.147l0.091,0.147l0.09,0.147l0.09,0.148l0.088,0.149l0.088,0.149l0.087,0.15l0.086,0.15l0.085,0.151l0.084,0.151l0.083,0.152l0.082,0.153l0.082,0.153l0.08,0.154l0.08,0.154l0.079,0.155l0.077,0.155l0.077,0.156l0.076,0.156l0.075,0.157l0.074,0.158l0.074,0.158l0.072,0.158l0.071,0.159l0.071,0.16l0.069,0.16l0.069,0.16l0.067,0.161l0.067,0.161l0.065,0.162l0.065,0.163l0.064,0.163l0.063,0.163l0.061,0.164l0.061,0.165l0.06,0.164l0.059,0.166l0.058,0.165l0.057,0.167l0.055,0.166l0.055,0.168l0.054,0.167l0.053,0.168l0.052,0.169l0.051,0.169l0.05,0.169l0.049,0.17l0.047,0.17l0.047,0.171l0.046,0.171l0.045,0.171l0.043,0.172l0.043,0.172l0.042,0.173l0.04,0.173l0.04,0.174l0.038,0.173l0.038,0.175l0.036,0.174l0.035,0.175l0.034,0.176l0.034,0.176l0.032,0.176l0.031,0.177l0.03,0.176l0.028,0.178l0.028,0.177l0.027,0.178l0.025,0.179l0.025,0.179l0.023,0.179l0.023,0.179l0.021,0.18l0.02,0.18l0.019,0.18l0.017,0.181l0.017,0.181l0.016,0.182l0.014,0.181l0.013,0.182l0.013,0.183l0.011,0.182l0.009,0.183l0.009,0.184l0.008,0.183l0.006,0.184l0.005,0.184l0.005,0.185l0.002,0.184l0.002,0.185l0.001,0.185l-0.001,0.186l-0.002,0.185l-0.002,0.184l-0.005,0.185l-0.005,0.184l-0.006,0.184l-0.008,0.183l-0.009,0.184l-0.009,0.183l-0.011,0.182l-0.013,0.183l-0.013,0.182l-0.014,0.181l-0.016,0.182l-0.017,0.181l-0.017,0.181l-0.019,0.18l-0.02,0.18l-0.021,0.18l-0.023,0.179l-0.023,0.179l-0.025,0.179l-0.025,0.179l-0.027,0.178l-0.028,0.177l-0.028,0.178l-0.03,0.176l-0.031,0.177l-0.032,0.176l-0.034,0.176l-0.034,0.176l-0.035,0.175l-0.036,0.174l-0.038,0.175l-0.038,0.173l-0.04,0.174l-0.04,0.173l-0.042,0.173l-0.043,0.172l-0.043,0.172l-0.045,0.171l-0.046,0.171l-0.047,0.171l-0.047,0.17l-0.049,0.17l-0.05,0.169l-0.051,0.169l-0.052,0.169l-0.053,0.168l-0.054,0.167l-0.055,0.168l-0.055,0.166l-0.057,0.167l-0.058,0.165l-0.059,0.166l-0.06,0.164l-0.061,0.165l-0.061,0.164l-0.063,0.163l-0.064,0.163l-0.065,0.163l-0.065,0.162l-0.067,0.161l-0.067,0.161l-0.069,0.16l-0.069,0.16l-0.071,0.16l-0.071,0.159l-0.072,0.158l-0.074,0.158l-0.074,0.158l-0.075,0.157l-0.076,0.156l-0.077,0.156l-0.077,0.155l-0.079,0.155l-0.08,0.154l-0.08,0.154l-0.082,0.153l-0.082,0.153l-0.083,0.152l-0.084,0.151l-0.085,0.151l-0.086,0.15l-0.087,0.15l-0.088,0.149l-0.088,0.149l-0.09,0.148l-0.09,0.147l-0.091,0.147l-0.092,0.147l-0.093,0.145l-0.094,0.145l-0.094,0.145l-0.095,0.144l-0.097,0.143l-0.097,0.143l-0.098,0.142l-0.098,0.141l-0.1,0.141l-0.1,0.14l-0.101,0.14l-0.102,0.139l-0.103,0.138l-0.104,0.138l-0.104,0.137l-0.105,0.136l-0.106,0.136l-0.107,0.135l-0.108,0.134l-0.108,0.134l-0.109,0.133l-0.11,0.133l-0.111,0.131l-0.112,0.131l-0.112,0.131l-0.113,0.129l-0.114,0.129l-0.114,0.129l-0.116,0.127l-0.116,0.127l-0.117,0.127l-0.117,0.125l-0.119,0.125l-0.119,0.124l-0.119,0.124l-0.121,0.122l-0.121,0.122l-0.122,0.121l-0.123,0.121l-0.123,0.12l-0.124,0.119l-0.125,0.118l-0.126,0.118l-0.126,0.117l-0.127,0.116l-0.128,0.115l-0.128,0.115l-0.129,0.113l-0.13,0.113l-0.13,0.113l-0.131,0.111l-0.132,0.111l-0.132,0.11l-0.133,0.109l-0.134,0.108l-0.134,0.108l-0.136,0.107l-0.135,0.106l-0.137,0.105l-0.137,0.105l-0.137,0.103l-0.139,0.103l-0.139,0.102l-0.139,0.101l-0.14,0.101l-0.141,0.099l-0.142,0.099l-0.142,0.098l-0.142,0.097l-0.144,0.096l-0.143,0.095l-0.145,0.095l-0.145,0.094l-0.146,0.092l-0.146,0.092l-0.147,0.091l-0.147,0.091l-0.148,0.089l-0.149,0.089l-0.149,0.087l-0.15,0.087l-0.15,0.086l-0.151,0.085l-0.152,0.084l-0.152,0.083l-0.152,0.083l-0.154,0.081l-0.153,0.081l-0.154,0.079l-0.155,0.079l-0.156,0.078l-0.155,0.077l-0.157,0.076l-0.157,0.075l-0.157,0.074l-0.158,0.073l-0.158,0.072l-0.159,0.072l-0.16,0.07l-0.16,0.069l-0.16,0.069l-0.161,0.068l-0.162,0.066l-0.162,0.066l-0.162,0.064l-0.163,0.064l-0.164,0.063l-0.164,0.062l-0.164,0.061l-0.165,0.059l-0.165,0.059l-0.166,0.058l-0.166,0.057l-0.167,0.056l-0.167,0.055l-0.167,0.054l-0.169,0.053l-0.168,0.051l-0.169,0.051l-0.169,0.05l-0.17,0.049l-0.17,0.048l-0.171,0.047l-0.171,0.045l-0.171,0.045l-0.172,0.044l-0.173,0.042l-0.172,0.042l-0.173,0.041l-0.174,0.039l-0.174,0.039l-0.174,0.037l-0.175,0.036l-0.175,0.036l-0.175,0.034l-0.176,0.033l-0.176,0.032l-0.177,0.031l-0.177,0.03l-0.177,0.029l-0.178,0.028l-0.178,0.026l-0.178,0.026l-0.179,0.024l-0.179,0.024l-0.179,0.022l-0.18,0.021l-0.18,0.02l-0.181,0.019l-0.18,0.018l-0.182,0.017l-0.181,0.015l-0.182,0.015l-0.182,0.013l-0.182,0.012l-0.183,0.011l-0.183,0.01l-0.183,0.009l-0.183,0.007l-0.184,0.007l-0.184,0.005l-0.185,0.004l-0.185,0.003l-0.185,0.002l-0.185,0l-156.023,0l-0.186,0l-0.185,-0.002l-0.184,-0.003l-0.185,-0.004l-0.184,-0.005l-0.184,-0.007l-0.183,-0.007l-0.184,-0.009l-0.183,-0.01l-0.182,-0.011l-0.183,-0.012l-0.182,-0.013l-0.181,-0.015l-0.182,-0.015l-0.181,-0.017l-0.181,-0.018l-0.18,-0.019l-0.18,-0.02l-0.18,-0.021l-0.179,-0.022l-0.179,-0.024l-0.179,-0.024l-0.178,-0.026l-0.178,-0.026l-0.178,-0.028l-0.177,-0.029l-0.177,-0.03l-0.177,-0.031l-0.176,-0.032l-0.176,-0.033l-0.175,-0.034l-0.176,-0.036l-0.174,-0.036l-0.174,-0.037l-0.174,-0.039l-0.174,-0.039l-0.173,-0.041l-0.173,-0.042l-0.172,-0.042l-0.172,-0.044l-0.171,-0.045l-0.171,-0.045l-0.171,-0.047l-0.17,-0.048l-0.17,-0.049l-0.169,-0.05l-0.169,-0.051l-0.169,-0.051l-0.168,-0.053l-0.167,-0.054l-0.168,-0.055l-0.166,-0.056l-0.166,-0.057l-0.166,-0.058l-0.166,-0.059l-0.164,-0.059l-0.165,-0.061l-0.164,-0.062l-0.163,-0.063l-0.163,-0.064l-0.162,-0.064l-0.162,-0.066l-0.162,-0.066l-0.161,-0.068l-0.16,-0.069l-0.16,-0.069l-0.16,-0.07l-0.159,-0.072l-0.158,-0.072l-0.158,-0.073l-0.158,-0.074l-0.157,-0.075l-0.156,-0.076l-0.156,-0.077l-0.155,-0.078l-0.155,-0.079l-0.154,-0.079l-0.154,-0.081l-0.153,-0.081l-0.152,-0.083l-0.153,-0.083l-0.151,-0.084l-0.151,-0.085l-0.15,-0.086l-0.15,-0.087l-0.149,-0.087l-0.149,-0.089l-0.148,-0.089l-0.147,-0.091l-0.147,-0.091l-0.147,-0.092l-0.145,-0.092l-0.145,-0.094l-0.145,-0.095l-0.144,-0.095l-0.143,-0.096l-0.143,-0.097l-0.142,-0.098l-0.141,-0.099l-0.141,-0.099l-0.14,-0.101l-0.14,-0.101l-0.139,-0.102l-0.138,-0.103l-0.138,-0.103l-0.137,-0.105l-0.136,-0.105l-0.136,-0.106l-0.135,-0.107l-0.134,-0.108l-0.134,-0.108l-0.133,-0.109l-0.132,-0.11l-0.132,-0.111l-0.131,-0.111l-0.131,-0.113l-0.129,-0.113l-0.129,-0.113l-0.129,-0.115l-0.127,-0.115l-0.127,-0.116l-0.127,-0.117l-0.125,-0.118l-0.125,-0.118l-0.124,-0.119l-0.123,-0.12l-0.123,-0.121l-0.122,-0.121l-0.121,-0.122l-0.121,-0.122l-0.12,-0.124l-0.119,-0.124l-0.118,-0.125l-0.118,-0.125l-0.116,-0.127l-0.117,-0.127l-0.115,-0.127l-0.114,-0.129l-0.114,-0.129l-0.113,-0.129l-0.113,-0.131l-0.111,-0.131l-0.111,-0.131l-0.11,-0.133l-0.109,-0.133l-0.108,-0.134l-0.108,-0.134l-0.107,-0.135l-0.106,-0.136l-0.105,-0.136l-0.105,-0.137l-0.103,-0.138l-0.103,-0.138l-0.102,-0.139l-0.101,-0.14l-0.1,-0.14l-0.1,-0.141l-0.099,-0.141l-0.098,-0.142l-0.097,-0.143l-0.096,-0.143l-0.095,-0.144l-0.095,-0.145l-0.093,-0.145l-0.093,-0.145l-0.092,-0.147l-0.091,-0.147l-0.091,-0.147l-0.089,-0.148l-0.089,-0.149l-0.087,-0.149l-0.087,-0.15l-0.086,-0.15l-0.085,-0.151l-0.084,-0.151l-0.083,-0.152l-0.083,-0.153l-0.081,-0.153l-0.08,-0.154l-0.08,-0.154l-0.079,-0.155l-0.078,-0.155l-0.077,-0.156l-0.076,-0.156l-0.075,-0.157l-0.074,-0.158l-0.073,-0.158l-0.072,-0.158l-0.072,-0.159l-0.07,-0.16l-0.069,-0.16l-0.069,-0.16l-0.067,-0.161l-0.067,-0.161l-0.066,-0.162l-0.064,-0.163l-0.064,-0.163l-0.063,-0.163l-0.062,-0.164l-0.06,-0.165l-0.06,-0.164l-0.059,-0.166l-0.058,-0.165l-0.057,-0.167l-0.056,-0.166l-0.055,-0.168l-0.054,-0.167l-0.052,-0.168l-0.052,-0.169l-0.051,-0.169l-0.05,-0.169l-0.049,-0.17l-0.048,-0.17l-0.046,-0.171l-0.046,-0.171l-0.045,-0.171l-0.044,-0.172l-0.042,-0.172l-0.042,-0.173l-0.041,-0.173l-0.039,-0.174l-0.039,-0.173l-0.037,-0.175l-0.036,-0.174l-0.036,-0.175l-0.034,-0.176l-0.033,-0.176l-0.032,-0.176l-0.031,-0.177l-0.03,-0.176l-0.029,-0.178l-0.028,-0.177l-0.026,-0.178l-0.026,-0.179l-0.024,-0.179l-0.024,-0.179l-0.022,-0.179l-0.021,-0.18l-0.02,-0.18l-0.019,-0.18l-0.018,-0.181l-0.016,-0.181l-0.016,-0.182l-0.014,-0.181l-0.014,-0.182l-0.012,-0.183l-0.011,-0.182l-0.01,-0.183l-0.008,-0.184l-0.008,-0.183l-0.006,-0.184l-0.006,-0.184l-0.004,-0.185l-0.003,-0.184l-0.002,-0.185l0,-0.186l0,-0.185l0.002,-0.185l0.003,-0.184l0.004,-0.185l0.006,-0.184l0.006,-0.184l0.008,-0.183l0.008,-0.184l0.01,-0.183l0.011,-0.182l0.012,-0.183l0.014,-0.182l0.014,-0.181l0.016,-0.182l0.016,-0.181l0.018,-0.181l0.019,-0.18l0.02,-0.18l0.021,-0.18l0.022,-0.179l0.024,-0.179l0.024,-0.179l0.026,-0.179l0.026,-0.178l0.028,-0.177l0.029,-0.178l0.03,-0.176l0.031,-0.177l0.032,-0.176l0.033,-0.176l0.034,-0.176l0.036,-0.175l0.036,-0.174l0.037,-0.175l0.039,-0.173l0.039,-0.174l0.041,-0.173l0.042,-0.173l0.042,-0.172l0.044,-0.172l0.045,-0.171l0.046,-0.171l0.046,-0.171l0.048,-0.17l0.049,-0.17l0.05,-0.169l0.051,-0.169l0.052,-0.169l0.052,-0.168l0.054,-0.167l0.055,-0.168l0.056,-0.166l0.057,-0.167l0.058,-0.165l0.059,-0.166l0.06,-0.164l0.06,-0.165l0.062,-0.164l0.063,-0.163l0.064,-0.163l0.064,-0.163l0.066,-0.162l0.067,-0.161l0.067,-0.161l0.069,-0.16l0.069,-0.16l0.07,-0.16l0.072,-0.159l0.072,-0.158l0.073,-0.158l0.074,-0.158l0.075,-0.157l0.076,-0.156l0.077,-0.156l0.078,-0.155l0.079,-0.155l0.08,-0.154l0.08,-0.154l0.081,-0.153l0.083,-0.153l0.083,-0.152l0.084,-0.151l0.085,-0.151l0.086,-0.15l0.087,-0.15l0.087,-0.149l0.089,-0.149l0.089,-0.148l0.091,-0.147l0.091,-0.147l0.092,-0.147l0.093,-0.145l0.093,-0.145l0.095,-0.145l0.095,-0.144l0.096,-0.143l0.097,-0.143l0.098,-0.142l0.099,-0.141l0.1,-0.141l0.1,-0.14l0.101,-0.14l0.102,-0.139l0.103,-0.138l0.103,-0.138l0.105,-0.137l0.105,-0.136l0.106,-0.136l0.107,-0.135l0.108,-0.134l0.108,-0.134l0.109,-0.133l0.11,-0.133l0.111,-0.131l0.111,-0.131l0.113,-0.131l0.113,-0.129l0.114,-0.129l0.114,-0.129l0.115,-0.127l0.117,-0.127l0.116,-0.127l0.118,-0.125l0.118,-0.125l0.119,-0.124l0.12,-0.124l0.121,-0.122l0.121,-0.122l0.122,-0.121l0.123,-0.121l0.123,-0.12l0.124,-0.119l0.125,-0.118l0.125,-0.118l0.127,-0.117l0.127,-0.116l0.127,-0.115l0.129,-0.115l0.129,-0.113l0.129,-0.113l0.131,-0.113l0.131,-0.111l0.132,-0.111l0.132,-0.11l0.133,-0.109l0.134,-0.108l0.134,-0.108l0.135,-0.107l0.136,-0.106l0.136,-0.105l0.137,-0.105l0.138,-0.103l0.138,-0.103l0.139,-0.102l0.14,-0.101l0.14,-0.101l0.141,-0.099l0.141,-0.099l0.142,-0.098l0.143,-0.097l0.143,-0.096l0.144,-0.095l0.145,-0.095l0.145,-0.094l0.145,-0.092l0.147,-0.092l0.147,-0.091l0.147,-0.091l0.148,-0.089l0.149,-0.089l0.149,-0.087l0.15,-0.087l0.15,-0.086l0.151,-0.085l0.151,-0.084l0.153,-0.083l0.152,-0.083l0.153,-0.081l0.154,-0.081l0.154,-0.079l0.155,-0.079l0.155,-0.078l0.156,-0.077l0.156,-0.076l0.157,-0.075l0.158,-0.074l0.158,-0.073l0.158,-0.072l0.159,-0.072l0.16,-0.07l0.16,-0.069l0.16,-0.069l0.161,-0.068l0.162,-0.066l0.162,-0.066l0.162,-0.064l0.163,-0.064l0.163,-0.063l0.164,-0.062l0.165,-0.061l0.164,-0.059l0.166,-0.059l0.166,-0.058l0.166,-0.057l0.166,-0.056l0.168,-0.055l0.167,-0.054l0.168,-0.053l0.169,-0.051l0.169,-0.051l0.169,-0.05l0.17,-0.049l0.17,-0.048l0.171,-0.047l0.171,-0.045l0.171,-0.045l0.172,-0.044l0.172,-0.042l0.173,-0.042l0.173,-0.041l0.174,-0.039l0.174,-0.039l0.174,-0.037l0.174,-0.036l0.176,-0.036l0.175,-0.034l0.176,-0.033l0.176,-0.032l0.177,-0.031l0.177,-0.03l0.177,-0.029l0.178,-0.028l0.178,-0.026l0.178,-0.026l0.179,-0.024l0.179,-0.024l0.179,-0.022l0.18,-0.021l0.18,-0.02l0.18,-0.019l0.181,-0.018l0.181,-0.017l0.182,-0.015l0.181,-0.015l0.182,-0.013l0.183,-0.012l0.182,-0.011l0.183,-0.01l0.184,-0.009l0.183,-0.007l0.184,-0.007l0.184,-0.005l0.185,-0.004l0.184,-0.003l0.185,-0.002l0.186,0l156.023,0l0.185,0Zm-156.196,8l-0.147,0l-0.134,0.002l-0.134,0.002l-0.134,0.003l-0.133,0.003l-0.133,0.005l-0.133,0.006l-0.133,0.006l-0.133,0.007l-0.131,0.008l-0.132,0.009l-0.132,0.009l-0.131,0.011l-0.132,0.011l-0.13,0.012l-0.13,0.013l-0.13,0.014l-0.131,0.014l-0.129,0.015l-0.129,0.016l-0.129,0.017l-0.129,0.018l-0.129,0.018l-0.128,0.02l-0.128,0.019l-0.126,0.021l-0.128,0.022l-0.129,0.022l-0.126,0.023l-0.126,0.024l-0.126,0.025l-0.126,0.025l-0.125,0.026l-0.126,0.027l-0.125,0.028l-0.125,0.028l-0.124,0.029l-0.124,0.03l-0.124,0.031l-0.124,0.031l-0.123,0.032l-0.123,0.033l-0.123,0.034l-0.121,0.034l-0.123,0.035l-0.122,0.036l-0.121,0.037l-0.121,0.037l-0.121,0.038l-0.12,0.039l-0.12,0.039l-0.12,0.04l-0.119,0.041l-0.119,0.042l-0.119,0.042l-0.119,0.043l-0.118,0.044l-0.117,0.044l-0.118,0.045l-0.118,0.046l-0.117,0.047l-0.116,0.047l-0.115,0.048l-0.117,0.048l-0.115,0.049l-0.115,0.051l-0.115,0.05l-0.115,0.052l-0.114,0.052l-0.113,0.052l-0.112,0.053l-0.113,0.054l-0.114,0.055l-0.112,0.056l-0.112,0.056l-0.111,0.056l-0.111,0.058l-0.111,0.058l-0.11,0.058l-0.11,0.06l-0.11,0.06l-0.108,0.06l-0.109,0.061l-0.109,0.063l-0.108,0.062l-0.107,0.063l-0.107,0.064l-0.107,0.064l-0.107,0.066l-0.106,0.066l-0.105,0.066l-0.105,0.066l-0.105,0.068l-0.104,0.068l-0.104,0.069l-0.103,0.069l-0.104,0.071l-0.103,0.071l-0.102,0.071l-0.1,0.071l-0.101,0.072l-0.102,0.074l-0.101,0.074l-0.099,0.074l-0.099,0.074l-0.1,0.077l-0.098,0.075l-0.098,0.077l-0.098,0.077l-0.096,0.077l-0.097,0.079l-0.097,0.079l-0.096,0.08l-0.094,0.079l-0.095,0.081l-0.094,0.081l-0.094,0.082l-0.094,0.082l-0.093,0.083l-0.092,0.084l-0.091,0.083l-0.091,0.084l-0.091,0.085l-0.09,0.086l-0.09,0.086l-0.089,0.087l-0.089,0.087l-0.088,0.087l-0.088,0.089l-0.088,0.089l-0.085,0.088l-0.087,0.091l-0.086,0.09l-0.085,0.091l-0.084,0.091l-0.083,0.091l-0.083,0.092l-0.084,0.094l-0.082,0.093l-0.081,0.093l-0.081,0.094l-0.082,0.096l-0.08,0.096l-0.08,0.095l-0.077,0.095l-0.078,0.096l-0.079,0.098l-0.077,0.098l-0.077,0.099l-0.076,0.098l-0.075,0.098l-0.075,0.1l-0.075,0.1l-0.073,0.1l-0.073,0.1l-0.072,0.102l-0.073,0.102l-0.071,0.102l-0.07,0.103l-0.07,0.102l-0.069,0.103l-0.069,0.104l-0.069,0.106l-0.068,0.104l-0.066,0.105l-0.067,0.106l-0.065,0.105l-0.066,0.107l-0.064,0.107l-0.063,0.106l-0.064,0.107l-0.063,0.11l-0.062,0.108l-0.06,0.107l-0.061,0.11l-0.061,0.11l-0.058,0.109l-0.059,0.11l-0.058,0.112l-0.058,0.112l-0.056,0.11l-0.056,0.111l-0.056,0.114l-0.054,0.111l-0.054,0.114l-0.054,0.113l-0.052,0.113l-0.052,0.115l-0.052,0.115l-0.05,0.114l-0.05,0.114l-0.05,0.117l-0.048,0.116l-0.048,0.115l-0.047,0.117l-0.047,0.117l-0.046,0.117l-0.045,0.117l-0.044,0.118l-0.044,0.119l-0.043,0.118l-0.042,0.118l-0.041,0.118l-0.042,0.121l-0.04,0.119l-0.039,0.121l-0.039,0.122l-0.038,0.119l-0.037,0.12l-0.037,0.123l-0.036,0.121l-0.034,0.121l-0.036,0.125l-0.033,0.122l-0.032,0.121l-0.033,0.124l-0.032,0.125l-0.03,0.122l-0.03,0.124l-0.029,0.125l-0.028,0.125l-0.028,0.126l-0.027,0.124l-0.026,0.125l-0.025,0.127l-0.025,0.127l-0.024,0.126l-0.023,0.126l-0.022,0.127l-0.022,0.128l-0.021,0.127l-0.02,0.128l-0.019,0.127l-0.018,0.129l-0.018,0.13l-0.016,0.128l-0.017,0.13l-0.015,0.131l-0.014,0.129l-0.014,0.128l-0.013,0.131l-0.012,0.132l-0.011,0.131l-0.011,0.132l-0.009,0.13l-0.009,0.133l-0.008,0.132l-0.007,0.132l-0.006,0.132l-0.006,0.132l-0.004,0.135l-0.004,0.134l-0.003,0.134l-0.002,0.132l-0.002,0.135l0,0.135l0,0.134l0.002,0.135l0.002,0.132l0.003,0.134l0.004,0.134l0.004,0.135l0.006,0.132l0.006,0.132l0.007,0.132l0.008,0.133l0.009,0.132l0.009,0.13l0.011,0.132l0.011,0.131l0.012,0.132l0.013,0.131l0.014,0.128l0.014,0.129l0.015,0.131l0.017,0.13l0.016,0.128l0.018,0.13l0.018,0.129l0.019,0.127l0.02,0.128l0.021,0.127l0.022,0.128l0.022,0.127l0.023,0.126l0.024,0.126l0.025,0.128l0.025,0.126l0.026,0.125l0.027,0.124l0.028,0.126l0.028,0.125l0.029,0.125l0.03,0.124l0.03,0.122l0.032,0.125l0.033,0.124l0.032,0.121l0.034,0.122l0.035,0.125l0.034,0.121l0.036,0.121l0.037,0.123l0.037,0.12l0.038,0.119l0.039,0.122l0.039,0.12l0.04,0.12l0.042,0.121l0.041,0.118l0.042,0.118l0.043,0.118l0.044,0.119l0.044,0.118l0.045,0.117l0.046,0.117l0.047,0.117l0.047,0.117l0.048,0.116l0.048,0.115l0.05,0.117l0.05,0.114l0.05,0.114l0.052,0.116l0.052,0.114l0.052,0.113l0.054,0.114l0.054,0.112l0.054,0.112l0.056,0.114l0.056,0.111l0.056,0.11l0.058,0.112l0.058,0.112l0.059,0.11l0.058,0.109l0.061,0.11l0.061,0.11l0.06,0.107l0.062,0.108l0.064,0.11l0.063,0.107l0.063,0.106l0.064,0.107l0.066,0.107l0.065,0.105l0.067,0.107l0.067,0.104l0.066,0.104l0.07,0.106l0.069,0.104l0.069,0.103l0.07,0.102l0.07,0.103l0.071,0.102l0.073,0.103l0.072,0.101l0.073,0.1l0.073,0.1l0.075,0.1l0.075,0.1l0.075,0.098l0.076,0.099l0.077,0.098l0.077,0.097l0.079,0.099l0.078,0.096l0.077,0.095l0.08,0.096l0.08,0.095l0.081,0.095l0.082,0.095l0.081,0.093l0.081,0.092l0.085,0.095l0.083,0.092l0.082,0.09l0.085,0.092l0.085,0.091l0.087,0.091l0.086,0.09l0.085,0.088l0.088,0.089l0.088,0.088l0.088,0.088l0.089,0.087l0.089,0.087l0.09,0.086l0.09,0.086l0.091,0.084l0.091,0.085l0.091,0.083l0.093,0.084l0.093,0.083l0.093,0.082l0.093,0.082l0.095,0.081l0.095,0.081l0.095,0.08l0.095,0.079l0.096,0.079l0.097,0.078l0.098,0.078l0.097,0.077l0.098,0.076l0.098,0.076l0.101,0.077l0.098,0.074l0.099,0.074l0.102,0.075l0.1,0.072l0.101,0.072l0.102,0.073l0.102,0.071l0.102,0.07l0.103,0.07l0.104,0.07l0.104,0.069l0.104,0.068l0.105,0.068l0.105,0.066l0.105,0.067l0.106,0.065l0.107,0.066l0.108,0.065l0.105,0.062l0.107,0.064l0.109,0.062l0.109,0.063l0.109,0.061l0.108,0.06l0.11,0.06l0.111,0.06l0.109,0.058l0.11,0.058l0.113,0.058l0.11,0.056l0.111,0.056l0.114,0.056l0.113,0.055l0.112,0.054l0.113,0.053l0.113,0.052l0.114,0.052l0.116,0.052l0.114,0.05l0.114,0.05l0.117,0.05l0.116,0.048l0.115,0.048l0.117,0.047l0.117,0.047l0.117,0.046l0.117,0.045l0.118,0.044l0.118,0.044l0.119,0.043l0.119,0.042l0.118,0.042l0.12,0.041l0.12,0.04l0.12,0.039l0.12,0.039l0.121,0.038l0.121,0.037l0.121,0.037l0.122,0.036l0.123,0.035l0.122,0.034l0.122,0.034l0.123,0.032l0.123,0.033l0.125,0.031l0.123,0.031l0.123,0.03l0.125,0.029l0.125,0.028l0.125,0.028l0.125,0.027l0.126,0.026l0.126,0.025l0.126,0.025l0.127,0.024l0.126,0.023l0.127,0.022l0.128,0.022l0.127,0.021l0.128,0.02l0.128,0.019l0.128,0.018l0.13,0.018l0.129,0.017l0.129,0.016l0.13,0.015l0.13,0.014l0.129,0.014l0.131,0.013l0.131,0.012l0.131,0.011l0.131,0.011l0.131,0.009l0.133,0.009l0.131,0.008l0.133,0.007l0.133,0.006l0.132,0.006l0.134,0.005l0.134,0.003l0.133,0.003l0.133,0.002l0.135,0.002l0.147,0l155.999,0l0.147,0l0.134,-0.002l0.134,-0.002l0.133,-0.003l0.134,-0.003l0.134,-0.005l0.132,-0.006l0.133,-0.006l0.132,-0.007l0.132,-0.008l0.133,-0.009l0.131,-0.009l0.13,-0.011l0.131,-0.011l0.132,-0.012l0.13,-0.013l0.13,-0.014l0.13,-0.014l0.129,-0.015l0.13,-0.016l0.129,-0.017l0.129,-0.018l0.128,-0.018l0.128,-0.019l0.128,-0.02l0.128,-0.021l0.128,-0.022l0.126,-0.022l0.127,-0.023l0.127,-0.024l0.126,-0.025l0.125,-0.025l0.126,-0.026l0.126,-0.027l0.125,-0.028l0.125,-0.028l0.124,-0.029l0.124,-0.03l0.123,-0.031l0.124,-0.031l0.124,-0.033l0.123,-0.032l0.121,-0.034l0.123,-0.034l0.123,-0.036l0.121,-0.035l0.121,-0.037l0.122,-0.037l0.12,-0.038l0.121,-0.039l0.12,-0.039l0.12,-0.04l0.12,-0.041l0.118,-0.042l0.119,-0.042l0.118,-0.043l0.118,-0.044l0.119,-0.044l0.117,-0.045l0.117,-0.046l0.117,-0.047l0.117,-0.047l0.115,-0.048l0.116,-0.048l0.117,-0.05l0.114,-0.05l0.114,-0.05l0.115,-0.052l0.114,-0.051l0.113,-0.053l0.114,-0.053l0.113,-0.054l0.113,-0.055l0.112,-0.056l0.111,-0.055l0.112,-0.057l0.112,-0.058l0.109,-0.057l0.11,-0.059l0.111,-0.06l0.11,-0.06l0.108,-0.06l0.109,-0.061l0.11,-0.063l0.107,-0.062l0.107,-0.063l0.107,-0.064l0.107,-0.064l0.106,-0.065l0.106,-0.066l0.106,-0.067l0.105,-0.066l0.105,-0.068l0.104,-0.068l0.104,-0.069l0.104,-0.07l0.102,-0.07l0.103,-0.07l0.102,-0.071l0.102,-0.073l0.101,-0.072l0.101,-0.073l0.099,-0.073l0.1,-0.075l0.1,-0.075l0.099,-0.075l0.098,-0.076l0.098,-0.077l0.099,-0.077l0.096,-0.078l0.097,-0.078l0.096,-0.079l0.096,-0.079l0.094,-0.08l0.096,-0.081l0.094,-0.081l0.093,-0.082l0.094,-0.082l0.093,-0.083l0.092,-0.084l0.092,-0.083l0.091,-0.085l0.091,-0.084l0.09,-0.086l0.09,-0.086l0.089,-0.087l0.089,-0.087l0.089,-0.089l0.086,-0.087l0.087,-0.088l0.088,-0.09l0.085,-0.089l0.085,-0.09l0.086,-0.092l0.085,-0.092l0.083,-0.091l0.083,-0.091l0.084,-0.094l0.082,-0.093l0.082,-0.094l0.082,-0.095l0.078,-0.093l0.081,-0.095l0.08,-0.097l0.079,-0.096l0.078,-0.097l0.077,-0.096l0.078,-0.098l0.077,-0.098l0.075,-0.098l0.076,-0.099l0.075,-0.1l0.075,-0.1l0.073,-0.1l0.072,-0.1l0.073,-0.101l0.072,-0.103l0.072,-0.102l0.07,-0.103l0.07,-0.102l0.07,-0.104l0.069,-0.105l0.068,-0.103l0.067,-0.105l0.067,-0.104l0.066,-0.105l0.066,-0.107l0.066,-0.107l0.064,-0.107l0.064,-0.107l0.063,-0.107l0.062,-0.107l0.062,-0.108l0.062,-0.111l0.06,-0.108l0.059,-0.109l0.06,-0.11l0.059,-0.112l0.058,-0.11l0.057,-0.111l0.057,-0.111l0.056,-0.111l0.056,-0.114l0.055,-0.113l0.053,-0.111l0.053,-0.113l0.053,-0.115l0.053,-0.115l0.05,-0.112l0.051,-0.116l0.051,-0.116l0.048,-0.113l0.048,-0.116l0.049,-0.117l0.047,-0.117l0.047,-0.117l0.046,-0.117l0.044,-0.117l0.045,-0.118l0.044,-0.119l0.043,-0.118l0.042,-0.118l0.042,-0.12l0.04,-0.119l0.04,-0.12l0.04,-0.12l0.039,-0.12l0.038,-0.121l0.037,-0.121l0.037,-0.122l0.035,-0.121l0.035,-0.121l0.035,-0.123l0.034,-0.124l0.032,-0.122l0.032,-0.123l0.032,-0.124l0.03,-0.123l0.03,-0.124l0.03,-0.125l0.028,-0.125l0.028,-0.126l0.027,-0.124l0.025,-0.125l0.026,-0.126l0.025,-0.128l0.024,-0.126l0.023,-0.126l0.022,-0.127l0.021,-0.128l0.021,-0.127l0.02,-0.128l0.02,-0.129l0.018,-0.127l0.017,-0.13l0.017,-0.13l0.016,-0.126l0.016,-0.131l0.014,-0.131l0.014,-0.13l0.013,-0.131l0.011,-0.128l0.012,-0.132l0.01,-0.133l0.01,-0.132l0.009,-0.13l0.008,-0.132l0.007,-0.133l0.006,-0.133l0.006,-0.133l0.004,-0.133l0.004,-0.133l0.003,-0.133l0.002,-0.134l0.001,-0.135l0.001,-0.134l-0.001,-0.135l-0.001,-0.135l-0.002,-0.134l-0.003,-0.133l-0.004,-0.133l-0.004,-0.133l-0.006,-0.133l-0.006,-0.133l-0.007,-0.133l-0.008,-0.131l-0.009,-0.131l-0.01,-0.132l-0.01,-0.133l-0.012,-0.132l-0.011,-0.128l-0.013,-0.131l-0.014,-0.13l-0.014,-0.131l-0.016,-0.131l-0.016,-0.126l-0.017,-0.13l-0.017,-0.13l-0.018,-0.127l-0.02,-0.129l-0.02,-0.128l-0.021,-0.127l-0.021,-0.128l-0.022,-0.127l-0.023,-0.126l-0.024,-0.126l-0.025,-0.127l-0.026,-0.127l-0.026,-0.125l-0.026,-0.124l-0.028,-0.126l-0.028,-0.125l-0.03,-0.125l-0.03,-0.124l-0.03,-0.123l-0.032,-0.124l-0.032,-0.123l-0.032,-0.122l-0.034,-0.124l-0.035,-0.123l-0.035,-0.121l-0.035,-0.121l-0.037,-0.121l-0.037,-0.122l-0.038,-0.121l-0.039,-0.12l-0.04,-0.121l-0.04,-0.119l-0.04,-0.119l-0.042,-0.12l-0.042,-0.118l-0.043,-0.118l-0.044,-0.119l-0.045,-0.118l-0.044,-0.117l-0.046,-0.117l-0.047,-0.117l-0.047,-0.117l-0.049,-0.117l-0.048,-0.116l-0.049,-0.113l-0.05,-0.116l-0.051,-0.116l-0.05,-0.112l-0.053,-0.115l-0.053,-0.115l-0.053,-0.112l-0.053,-0.112l-0.055,-0.113l-0.056,-0.114l-0.056,-0.111l-0.057,-0.111l-0.057,-0.111l-0.058,-0.11l-0.059,-0.112l-0.06,-0.11l-0.059,-0.109l-0.06,-0.108l-0.062,-0.111l-0.062,-0.108l-0.062,-0.106l-0.063,-0.108l-0.064,-0.107l-0.064,-0.107l-0.066,-0.107l-0.066,-0.107l-0.066,-0.104l-0.067,-0.105l-0.068,-0.105l-0.067,-0.104l-0.069,-0.104l-0.07,-0.104l-0.07,-0.102l-0.07,-0.103l-0.072,-0.102l-0.072,-0.102l-0.073,-0.102l-0.072,-0.1l-0.073,-0.1l-0.075,-0.1l-0.075,-0.1l-0.076,-0.099l-0.075,-0.097l-0.077,-0.099l-0.078,-0.099l-0.077,-0.096l-0.078,-0.096l-0.079,-0.096l-0.08,-0.096l-0.081,-0.096l-0.079,-0.094l-0.081,-0.094l-0.082,-0.094l-0.083,-0.094l-0.083,-0.093l-0.083,-0.091l-0.083,-0.092l-0.085,-0.091l-0.086,-0.092l-0.085,-0.089l-0.085,-0.09l-0.088,-0.09l-0.086,-0.088l-0.088,-0.088l-0.088,-0.088l-0.089,-0.087l-0.089,-0.087l-0.09,-0.086l-0.09,-0.086l-0.091,-0.085l-0.091,-0.084l-0.092,-0.083l-0.092,-0.084l-0.093,-0.083l-0.094,-0.082l-0.093,-0.082l-0.095,-0.081l-0.094,-0.081l-0.095,-0.079l-0.096,-0.08l-0.097,-0.08l-0.096,-0.078l-0.096,-0.076l-0.099,-0.078l-0.098,-0.078l-0.098,-0.075l-0.098,-0.075l-0.101,-0.075l-0.1,-0.075l-0.099,-0.072l-0.101,-0.074l-0.102,-0.073l-0.101,-0.071l-0.102,-0.071l-0.103,-0.072l-0.103,-0.07l-0.103,-0.069l-0.104,-0.069l-0.104,-0.068l-0.105,-0.068l-0.105,-0.066l-0.105,-0.066l-0.107,-0.067l-0.106,-0.065l-0.106,-0.064l-0.109,-0.064l-0.106,-0.063l-0.107,-0.062l-0.11,-0.063l-0.109,-0.061l-0.108,-0.06l-0.11,-0.06l-0.11,-0.06l-0.111,-0.058l-0.11,-0.058l-0.111,-0.057l-0.112,-0.058l-0.112,-0.056l-0.11,-0.054l-0.114,-0.056l-0.114,-0.054l-0.113,-0.053l-0.113,-0.053l-0.114,-0.051l-0.114,-0.052l-0.115,-0.05l-0.115,-0.05l-0.116,-0.05l-0.116,-0.048l-0.116,-0.048l-0.115,-0.047l-0.117,-0.047l-0.118,-0.046l-0.118,-0.045l-0.118,-0.044l-0.118,-0.044l-0.118,-0.043l-0.119,-0.042l-0.119,-0.042l-0.119,-0.041l-0.12,-0.04l-0.12,-0.039l-0.121,-0.039l-0.12,-0.038l-0.122,-0.037l-0.121,-0.037l-0.121,-0.036l-0.123,-0.035l-0.122,-0.034l-0.122,-0.034l-0.124,-0.033l-0.123,-0.032l-0.123,-0.031l-0.124,-0.031l-0.125,-0.03l-0.123,-0.029l-0.125,-0.028l-0.125,-0.028l-0.126,-0.027l-0.126,-0.026l-0.125,-0.025l-0.126,-0.025l-0.126,-0.024l-0.127,-0.023l-0.128,-0.022l-0.128,-0.022l-0.127,-0.021l-0.127,-0.019l-0.129,-0.02l-0.129,-0.018l-0.128,-0.018l-0.129,-0.017l-0.13,-0.016l-0.129,-0.015l-0.13,-0.014l-0.131,-0.014l-0.129,-0.013l-0.131,-0.012l-0.131,-0.011l-0.131,-0.011l-0.132,-0.009l-0.132,-0.009l-0.132,-0.008l-0.132,-0.007l-0.133,-0.006l-0.133,-0.006l-0.133,-0.005l-0.133,-0.003l-0.134,-0.003l-0.135,-0.002l-0.133,-0.002l-0.147,0l-155.999,0Z" style="fill:#00bdf5;"/><path d="M1608.18,364.508c0,-15.821 -12.845,-28.665 -28.666,-28.665l-156.023,0c-15.821,0 -28.666,12.844 -28.666,28.665c0,15.822 12.845,28.666 28.666,28.666l156.023,0c15.821,0 28.666,-12.844 28.666,-28.666Z" style="fill:#00bdf5;fill-opacity:0.501961;"/><path d="M1579.7,335.843l0.185,0.002l0.185,0.003l0.185,0.004l0.184,0.005l0.184,0.007l0.183,0.007l0.183,0.009l0.183,0.01l0.183,0.011l0.182,0.012l0.182,0.013l0.182,0.015l0.182,0.015l0.181,0.017l0.18,0.018l0.181,0.019l0.18,0.02l0.18,0.021l0.179,0.022l0.179,0.024l0.179,0.024l0.178,0.026l0.178,0.026l0.178,0.028l0.177,0.029l0.177,0.03l0.177,0.031l0.176,0.032l0.176,0.033l0.175,0.034l0.175,0.036l0.175,0.036l0.174,0.037l0.174,0.039l0.174,0.039l0.173,0.041l0.172,0.042l0.173,0.042l0.172,0.044l0.171,0.045l0.171,0.045l0.171,0.047l0.17,0.048l0.17,0.049l0.169,0.05l0.169,0.051l0.169,0.051l0.168,0.053l0.167,0.054l0.167,0.055l0.167,0.056l0.166,0.057l0.166,0.058l0.165,0.059l0.165,0.059l0.165,0.061l0.163,0.062l0.164,0.063l0.163,0.064l0.162,0.064l0.162,0.066l0.162,0.066l0.161,0.068l0.16,0.069l0.16,0.069l0.16,0.07l0.159,0.072l0.158,0.072l0.158,0.073l0.157,0.074l0.157,0.075l0.157,0.076l0.156,0.077l0.155,0.078l0.155,0.079l0.154,0.079l0.154,0.081l0.153,0.081l0.152,0.083l0.152,0.083l0.152,0.084l0.151,0.085l0.15,0.086l0.15,0.087l0.149,0.087l0.149,0.089l0.148,0.089l0.147,0.091l0.147,0.091l0.146,0.092l0.146,0.092l0.145,0.094l0.145,0.095l0.144,0.095l0.143,0.096l0.142,0.097l0.143,0.098l0.141,0.099l0.141,0.099l0.14,0.101l0.14,0.101l0.138,0.102l0.139,0.103l0.137,0.103l0.137,0.105l0.137,0.105l0.136,0.106l0.135,0.107l0.134,0.108l0.134,0.108l0.133,0.109l0.132,0.11l0.132,0.111l0.131,0.111l0.13,0.113l0.13,0.113l0.129,0.113l0.128,0.115l0.128,0.115l0.127,0.116l0.126,0.117l0.126,0.118l0.125,0.118l0.124,0.119l0.123,0.12l0.123,0.121l0.122,0.121l0.121,0.122l0.121,0.122l0.119,0.124l0.12,0.124l0.118,0.125l0.117,0.125l0.117,0.127l0.116,0.127l0.116,0.127l0.114,0.129l0.114,0.129l0.113,0.129l0.112,0.131l0.112,0.131l0.111,0.131l0.11,0.133l0.109,0.133l0.108,0.134l0.108,0.134l0.107,0.135l0.106,0.136l0.105,0.136l0.104,0.137l0.104,0.138l0.103,0.138l0.102,0.139l0.101,0.14l0.1,0.14l0.1,0.141l0.098,0.141l0.098,0.142l0.097,0.143l0.097,0.143l0.095,0.144l0.095,0.145l0.093,0.145l0.093,0.145l0.092,0.147l0.091,0.147l0.09,0.147l0.09,0.148l0.088,0.149l0.088,0.149l0.087,0.15l0.086,0.15l0.085,0.151l0.084,0.151l0.083,0.152l0.082,0.153l0.082,0.153l0.08,0.154l0.08,0.154l0.079,0.155l0.077,0.155l0.077,0.156l0.076,0.156l0.075,0.157l0.075,0.158l0.073,0.158l0.072,0.158l0.071,0.159l0.071,0.16l0.069,0.16l0.069,0.16l0.067,0.161l0.067,0.161l0.065,0.162l0.065,0.163l0.064,0.163l0.063,0.163l0.061,0.164l0.061,0.165l0.06,0.164l0.059,0.166l0.058,0.165l0.057,0.167l0.056,0.166l0.054,0.168l0.054,0.167l0.053,0.168l0.052,0.169l0.051,0.169l0.05,0.169l0.049,0.17l0.047,0.17l0.047,0.171l0.046,0.171l0.045,0.171l0.043,0.172l0.043,0.172l0.042,0.173l0.04,0.173l0.04,0.174l0.038,0.173l0.038,0.175l0.036,0.174l0.035,0.175l0.035,0.176l0.033,0.176l0.032,0.176l0.031,0.177l0.03,0.176l0.029,0.178l0.027,0.177l0.027,0.178l0.026,0.179l0.024,0.179l0.023,0.179l0.023,0.179l0.021,0.18l0.02,0.18l0.019,0.18l0.018,0.181l0.016,0.181l0.016,0.182l0.014,0.181l0.014,0.182l0.012,0.183l0.011,0.182l0.01,0.183l0.008,0.184l0.008,0.183l0.006,0.184l0.005,0.184l0.005,0.185l0.003,0.184l0.001,0.185l0.001,0.185l-0.001,0.186l-0.001,0.185l-0.003,0.184l-0.005,0.185l-0.005,0.184l-0.006,0.184l-0.008,0.183l-0.008,0.184l-0.01,0.183l-0.011,0.182l-0.012,0.183l-0.014,0.182l-0.014,0.181l-0.016,0.182l-0.016,0.181l-0.018,0.181l-0.019,0.18l-0.02,0.18l-0.021,0.18l-0.023,0.179l-0.023,0.179l-0.024,0.179l-0.026,0.179l-0.027,0.178l-0.027,0.177l-0.029,0.178l-0.03,0.176l-0.031,0.177l-0.032,0.176l-0.033,0.176l-0.035,0.176l-0.035,0.175l-0.036,0.174l-0.038,0.175l-0.038,0.173l-0.04,0.174l-0.04,0.173l-0.042,0.173l-0.043,0.172l-0.043,0.172l-0.045,0.171l-0.046,0.171l-0.047,0.171l-0.047,0.17l-0.049,0.17l-0.05,0.169l-0.051,0.169l-0.052,0.169l-0.053,0.168l-0.054,0.167l-0.054,0.168l-0.056,0.166l-0.057,0.167l-0.058,0.165l-0.059,0.166l-0.06,0.164l-0.061,0.165l-0.061,0.164l-0.063,0.163l-0.064,0.163l-0.065,0.163l-0.065,0.162l-0.067,0.161l-0.067,0.161l-0.069,0.16l-0.069,0.16l-0.071,0.16l-0.071,0.159l-0.072,0.158l-0.073,0.158l-0.075,0.158l-0.075,0.157l-0.076,0.156l-0.077,0.156l-0.077,0.155l-0.079,0.155l-0.08,0.154l-0.08,0.154l-0.082,0.153l-0.082,0.153l-0.083,0.152l-0.084,0.151l-0.085,0.151l-0.086,0.15l-0.087,0.15l-0.088,0.149l-0.088,0.149l-0.09,0.148l-0.09,0.147l-0.091,0.147l-0.092,0.147l-0.093,0.145l-0.093,0.145l-0.095,0.145l-0.095,0.144l-0.097,0.143l-0.097,0.143l-0.098,0.142l-0.098,0.141l-0.1,0.141l-0.1,0.14l-0.101,0.14l-0.102,0.139l-0.103,0.138l-0.104,0.138l-0.104,0.137l-0.105,0.136l-0.106,0.136l-0.107,0.135l-0.108,0.134l-0.108,0.134l-0.109,0.133l-0.11,0.133l-0.111,0.131l-0.112,0.131l-0.112,0.131l-0.113,0.129l-0.114,0.129l-0.114,0.129l-0.116,0.127l-0.116,0.127l-0.117,0.127l-0.117,0.125l-0.118,0.125l-0.12,0.124l-0.119,0.124l-0.121,0.122l-0.121,0.122l-0.122,0.121l-0.123,0.121l-0.123,0.12l-0.124,0.119l-0.125,0.118l-0.126,0.118l-0.126,0.117l-0.127,0.116l-0.128,0.115l-0.128,0.115l-0.129,0.113l-0.13,0.113l-0.13,0.113l-0.131,0.111l-0.132,0.111l-0.132,0.11l-0.133,0.109l-0.134,0.108l-0.134,0.108l-0.135,0.107l-0.136,0.106l-0.137,0.105l-0.137,0.105l-0.137,0.103l-0.139,0.103l-0.138,0.102l-0.14,0.101l-0.14,0.101l-0.141,0.099l-0.141,0.099l-0.143,0.098l-0.142,0.097l-0.143,0.096l-0.144,0.095l-0.145,0.095l-0.145,0.094l-0.146,0.092l-0.146,0.092l-0.147,0.091l-0.147,0.091l-0.148,0.089l-0.149,0.089l-0.149,0.087l-0.15,0.087l-0.15,0.086l-0.151,0.085l-0.152,0.084l-0.152,0.083l-0.152,0.083l-0.153,0.081l-0.154,0.081l-0.154,0.079l-0.155,0.079l-0.155,0.078l-0.156,0.077l-0.157,0.076l-0.157,0.075l-0.157,0.074l-0.158,0.073l-0.158,0.072l-0.159,0.072l-0.16,0.07l-0.16,0.069l-0.16,0.069l-0.161,0.068l-0.162,0.066l-0.162,0.066l-0.162,0.064l-0.163,0.064l-0.164,0.063l-0.163,0.062l-0.165,0.061l-0.165,0.059l-0.165,0.059l-0.166,0.058l-0.166,0.057l-0.167,0.056l-0.167,0.055l-0.167,0.054l-0.168,0.053l-0.169,0.051l-0.169,0.051l-0.169,0.05l-0.17,0.049l-0.17,0.048l-0.171,0.047l-0.171,0.045l-0.171,0.045l-0.172,0.044l-0.173,0.042l-0.172,0.042l-0.173,0.041l-0.174,0.039l-0.174,0.039l-0.174,0.037l-0.175,0.036l-0.175,0.036l-0.175,0.034l-0.176,0.033l-0.176,0.032l-0.177,0.031l-0.177,0.03l-0.177,0.029l-0.178,0.028l-0.178,0.026l-0.178,0.026l-0.179,0.024l-0.179,0.024l-0.179,0.022l-0.18,0.021l-0.18,0.02l-0.181,0.019l-0.18,0.018l-0.181,0.017l-0.182,0.015l-0.182,0.015l-0.182,0.013l-0.182,0.012l-0.183,0.011l-0.183,0.01l-0.183,0.009l-0.183,0.007l-0.184,0.007l-0.184,0.005l-0.185,0.004l-0.185,0.003l-0.185,0.002l-0.185,0l-156.023,0l-0.186,0l-0.185,-0.002l-0.184,-0.003l-0.185,-0.004l-0.184,-0.005l-0.184,-0.007l-0.183,-0.007l-0.184,-0.009l-0.183,-0.01l-0.182,-0.011l-0.183,-0.012l-0.182,-0.013l-0.181,-0.015l-0.182,-0.015l-0.181,-0.017l-0.181,-0.018l-0.18,-0.019l-0.18,-0.02l-0.18,-0.021l-0.179,-0.022l-0.179,-0.024l-0.179,-0.024l-0.178,-0.026l-0.178,-0.026l-0.178,-0.028l-0.177,-0.029l-0.177,-0.03l-0.177,-0.031l-0.176,-0.032l-0.176,-0.033l-0.175,-0.034l-0.175,-0.036l-0.175,-0.036l-0.174,-0.037l-0.174,-0.039l-0.174,-0.039l-0.173,-0.041l-0.173,-0.042l-0.172,-0.042l-0.172,-0.044l-0.171,-0.045l-0.171,-0.045l-0.171,-0.047l-0.17,-0.048l-0.17,-0.049l-0.169,-0.05l-0.169,-0.051l-0.169,-0.051l-0.168,-0.053l-0.167,-0.054l-0.167,-0.055l-0.167,-0.056l-0.166,-0.057l-0.166,-0.058l-0.165,-0.059l-0.165,-0.059l-0.165,-0.061l-0.164,-0.062l-0.163,-0.063l-0.163,-0.064l-0.162,-0.064l-0.162,-0.066l-0.162,-0.066l-0.161,-0.068l-0.16,-0.069l-0.16,-0.069l-0.16,-0.07l-0.159,-0.072l-0.158,-0.072l-0.158,-0.073l-0.158,-0.074l-0.156,-0.075l-0.157,-0.076l-0.156,-0.077l-0.155,-0.078l-0.155,-0.079l-0.154,-0.079l-0.154,-0.081l-0.153,-0.081l-0.152,-0.083l-0.152,-0.083l-0.152,-0.084l-0.151,-0.085l-0.15,-0.086l-0.15,-0.087l-0.149,-0.087l-0.149,-0.089l-0.148,-0.089l-0.147,-0.091l-0.147,-0.091l-0.146,-0.092l-0.146,-0.092l-0.145,-0.094l-0.145,-0.095l-0.144,-0.095l-0.143,-0.096l-0.143,-0.097l-0.142,-0.098l-0.141,-0.099l-0.141,-0.099l-0.14,-0.101l-0.14,-0.101l-0.139,-0.102l-0.138,-0.103l-0.138,-0.103l-0.137,-0.105l-0.136,-0.105l-0.136,-0.106l-0.135,-0.107l-0.134,-0.108l-0.134,-0.108l-0.133,-0.109l-0.132,-0.11l-0.132,-0.111l-0.131,-0.111l-0.131,-0.113l-0.129,-0.113l-0.129,-0.113l-0.129,-0.115l-0.127,-0.115l-0.127,-0.116l-0.126,-0.117l-0.126,-0.118l-0.125,-0.118l-0.124,-0.119l-0.123,-0.12l-0.123,-0.121l-0.122,-0.121l-0.121,-0.122l-0.121,-0.122l-0.12,-0.124l-0.119,-0.124l-0.118,-0.125l-0.118,-0.125l-0.116,-0.127l-0.116,-0.127l-0.116,-0.127l-0.114,-0.129l-0.114,-0.129l-0.113,-0.129l-0.113,-0.131l-0.111,-0.131l-0.111,-0.131l-0.11,-0.133l-0.109,-0.133l-0.108,-0.134l-0.108,-0.134l-0.107,-0.135l-0.106,-0.136l-0.105,-0.136l-0.104,-0.137l-0.104,-0.138l-0.103,-0.138l-0.102,-0.139l-0.101,-0.14l-0.1,-0.14l-0.1,-0.141l-0.099,-0.141l-0.098,-0.142l-0.097,-0.143l-0.096,-0.143l-0.095,-0.144l-0.095,-0.145l-0.093,-0.145l-0.093,-0.145l-0.092,-0.147l-0.091,-0.147l-0.091,-0.147l-0.089,-0.148l-0.088,-0.149l-0.088,-0.149l-0.087,-0.15l-0.086,-0.15l-0.085,-0.151l-0.084,-0.151l-0.083,-0.152l-0.082,-0.153l-0.082,-0.153l-0.08,-0.154l-0.08,-0.154l-0.079,-0.155l-0.078,-0.155l-0.076,-0.156l-0.076,-0.156l-0.076,-0.157l-0.074,-0.158l-0.073,-0.158l-0.072,-0.158l-0.071,-0.159l-0.071,-0.16l-0.069,-0.16l-0.069,-0.16l-0.067,-0.161l-0.067,-0.161l-0.066,-0.162l-0.064,-0.163l-0.064,-0.163l-0.063,-0.163l-0.062,-0.164l-0.06,-0.165l-0.06,-0.164l-0.059,-0.166l-0.058,-0.165l-0.057,-0.167l-0.056,-0.166l-0.055,-0.168l-0.053,-0.167l-0.053,-0.168l-0.052,-0.169l-0.051,-0.169l-0.05,-0.169l-0.049,-0.17l-0.048,-0.17l-0.046,-0.171l-0.046,-0.171l-0.045,-0.171l-0.044,-0.172l-0.042,-0.172l-0.042,-0.173l-0.04,-0.173l-0.04,-0.174l-0.038,-0.173l-0.038,-0.175l-0.036,-0.174l-0.035,-0.175l-0.035,-0.176l-0.033,-0.176l-0.032,-0.176l-0.031,-0.177l-0.03,-0.176l-0.029,-0.178l-0.027,-0.177l-0.027,-0.178l-0.026,-0.179l-0.024,-0.179l-0.024,-0.179l-0.022,-0.179l-0.021,-0.18l-0.02,-0.18l-0.019,-0.18l-0.018,-0.181l-0.016,-0.181l-0.016,-0.182l-0.014,-0.181l-0.014,-0.182l-0.012,-0.183l-0.011,-0.182l-0.01,-0.183l-0.008,-0.184l-0.008,-0.183l-0.006,-0.184l-0.006,-0.184l-0.004,-0.185l-0.003,-0.184l-0.001,-0.185l-0.001,-0.186l0.001,-0.185l0.001,-0.185l0.003,-0.184l0.004,-0.185l0.006,-0.184l0.006,-0.184l0.008,-0.183l0.008,-0.184l0.01,-0.183l0.011,-0.182l0.012,-0.183l0.014,-0.182l0.014,-0.181l0.016,-0.182l0.016,-0.181l0.018,-0.181l0.019,-0.18l0.02,-0.18l0.021,-0.18l0.022,-0.179l0.024,-0.179l0.024,-0.179l0.026,-0.179l0.027,-0.178l0.027,-0.177l0.029,-0.178l0.03,-0.176l0.031,-0.177l0.032,-0.176l0.033,-0.176l0.035,-0.176l0.035,-0.175l0.036,-0.174l0.038,-0.175l0.038,-0.173l0.04,-0.174l0.04,-0.173l0.042,-0.173l0.042,-0.172l0.044,-0.172l0.045,-0.171l0.046,-0.171l0.046,-0.171l0.048,-0.17l0.049,-0.17l0.05,-0.169l0.051,-0.169l0.052,-0.169l0.053,-0.168l0.053,-0.167l0.055,-0.168l0.056,-0.166l0.057,-0.167l0.058,-0.165l0.059,-0.166l0.06,-0.164l0.06,-0.165l0.062,-0.164l0.063,-0.163l0.064,-0.163l0.064,-0.163l0.066,-0.162l0.067,-0.161l0.067,-0.161l0.069,-0.16l0.069,-0.16l0.071,-0.16l0.071,-0.159l0.072,-0.158l0.073,-0.158l0.074,-0.158l0.076,-0.157l0.076,-0.156l0.076,-0.156l0.078,-0.155l0.079,-0.155l0.08,-0.154l0.08,-0.154l0.082,-0.153l0.082,-0.153l0.083,-0.152l0.084,-0.151l0.085,-0.151l0.086,-0.15l0.087,-0.15l0.088,-0.149l0.088,-0.149l0.089,-0.148l0.091,-0.147l0.091,-0.147l0.092,-0.147l0.093,-0.145l0.093,-0.145l0.095,-0.145l0.095,-0.144l0.096,-0.143l0.097,-0.143l0.098,-0.142l0.099,-0.141l0.1,-0.141l0.1,-0.14l0.101,-0.14l0.102,-0.139l0.103,-0.138l0.104,-0.138l0.104,-0.137l0.105,-0.136l0.106,-0.136l0.107,-0.135l0.108,-0.134l0.108,-0.134l0.109,-0.133l0.11,-0.133l0.111,-0.131l0.111,-0.131l0.113,-0.131l0.113,-0.129l0.114,-0.129l0.114,-0.129l0.116,-0.127l0.116,-0.127l0.116,-0.127l0.118,-0.125l0.118,-0.125l0.119,-0.124l0.12,-0.124l0.121,-0.122l0.121,-0.122l0.122,-0.121l0.123,-0.121l0.123,-0.12l0.124,-0.119l0.125,-0.118l0.126,-0.118l0.126,-0.117l0.127,-0.116l0.127,-0.115l0.129,-0.115l0.129,-0.113l0.129,-0.113l0.131,-0.113l0.131,-0.111l0.132,-0.111l0.132,-0.11l0.133,-0.109l0.134,-0.108l0.134,-0.108l0.135,-0.107l0.136,-0.106l0.136,-0.105l0.137,-0.105l0.138,-0.103l0.138,-0.103l0.139,-0.102l0.14,-0.101l0.14,-0.101l0.141,-0.099l0.141,-0.099l0.142,-0.098l0.143,-0.097l0.143,-0.096l0.144,-0.095l0.145,-0.095l0.145,-0.094l0.146,-0.092l0.146,-0.092l0.147,-0.091l0.147,-0.091l0.148,-0.089l0.149,-0.089l0.149,-0.087l0.15,-0.087l0.15,-0.086l0.151,-0.085l0.152,-0.084l0.152,-0.083l0.152,-0.083l0.153,-0.081l0.154,-0.081l0.154,-0.079l0.155,-0.079l0.155,-0.078l0.156,-0.077l0.157,-0.076l0.156,-0.075l0.158,-0.074l0.158,-0.073l0.158,-0.072l0.159,-0.072l0.16,-0.07l0.16,-0.069l0.16,-0.069l0.161,-0.068l0.162,-0.066l0.162,-0.066l0.162,-0.064l0.163,-0.064l0.163,-0.063l0.164,-0.062l0.165,-0.061l0.165,-0.059l0.165,-0.059l0.166,-0.058l0.166,-0.057l0.167,-0.056l0.167,-0.055l0.167,-0.054l0.168,-0.053l0.169,-0.051l0.169,-0.051l0.169,-0.05l0.17,-0.049l0.17,-0.048l0.171,-0.047l0.171,-0.045l0.171,-0.045l0.172,-0.044l0.172,-0.042l0.173,-0.042l0.173,-0.041l0.174,-0.039l0.174,-0.039l0.174,-0.037l0.175,-0.036l0.175,-0.036l0.175,-0.034l0.176,-0.033l0.176,-0.032l0.177,-0.031l0.177,-0.03l0.177,-0.029l0.178,-0.028l0.178,-0.026l0.178,-0.026l0.179,-0.024l0.179,-0.024l0.179,-0.022l0.18,-0.021l0.18,-0.02l0.18,-0.019l0.181,-0.018l0.181,-0.017l0.182,-0.015l0.181,-0.015l0.182,-0.013l0.183,-0.012l0.182,-0.011l0.183,-0.01l0.184,-0.009l0.183,-0.007l0.184,-0.007l0.184,-0.005l0.185,-0.004l0.184,-0.003l0.185,-0.002l0.186,0l156.023,0l0.185,0Zm-156.196,8l-0.147,0l-0.134,0.002l-0.134,0.002l-0.134,0.003l-0.133,0.003l-0.133,0.005l-0.133,0.006l-0.133,0.006l-0.132,0.007l-0.132,0.008l-0.132,0.009l-0.132,0.009l-0.132,0.011l-0.13,0.011l-0.131,0.012l-0.13,0.013l-0.13,0.014l-0.131,0.014l-0.128,0.015l-0.13,0.016l-0.129,0.017l-0.128,0.018l-0.13,0.018l-0.128,0.02l-0.128,0.019l-0.126,0.021l-0.128,0.022l-0.129,0.022l-0.126,0.023l-0.126,0.024l-0.126,0.025l-0.126,0.025l-0.125,0.026l-0.125,0.027l-0.126,0.028l-0.125,0.028l-0.124,0.029l-0.125,0.03l-0.123,0.031l-0.124,0.031l-0.123,0.032l-0.123,0.033l-0.123,0.034l-0.12,0.034l-0.123,0.035l-0.123,0.036l-0.12,0.037l-0.122,0.037l-0.121,0.038l-0.12,0.039l-0.12,0.039l-0.119,0.04l-0.12,0.041l-0.119,0.042l-0.118,0.042l-0.12,0.043l-0.118,0.044l-0.118,0.044l-0.117,0.045l-0.118,0.046l-0.116,0.047l-0.117,0.047l-0.116,0.048l-0.116,0.049l-0.114,0.048l-0.115,0.05l-0.117,0.052l-0.113,0.05l-0.114,0.052l-0.114,0.053l-0.113,0.053l-0.114,0.055l-0.112,0.054l-0.112,0.056l-0.111,0.055l-0.111,0.057l-0.111,0.057l-0.112,0.059l-0.112,0.059l-0.109,0.059l-0.107,0.059l-0.11,0.061l-0.111,0.062l-0.106,0.061l-0.107,0.062l-0.109,0.064l-0.108,0.064l-0.106,0.064l-0.107,0.066l-0.106,0.066l-0.105,0.066l-0.106,0.067l-0.104,0.067l-0.104,0.068l-0.104,0.069l-0.102,0.069l-0.106,0.071l-0.102,0.071l-0.101,0.07l-0.101,0.072l-0.101,0.072l-0.102,0.075l-0.101,0.074l-0.098,0.072l-0.099,0.075l-0.102,0.077l-0.098,0.076l-0.096,0.075l-0.098,0.077l-0.098,0.079l-0.096,0.078l-0.097,0.079l-0.096,0.08l-0.093,0.078l-0.097,0.082l-0.094,0.082l-0.093,0.081l-0.094,0.082l-0.091,0.082l-0.093,0.084l-0.092,0.084l-0.092,0.085l-0.092,0.086l-0.087,0.083l-0.091,0.087l-0.09,0.088l-0.086,0.084l-0.09,0.089l-0.089,0.09l-0.087,0.088l-0.086,0.089l-0.086,0.09l-0.085,0.089l-0.085,0.091l-0.084,0.091l-0.084,0.092l-0.085,0.094l-0.083,0.093l-0.081,0.092l-0.08,0.092l-0.081,0.094l-0.084,0.098l-0.078,0.094l-0.079,0.094l-0.081,0.099l-0.077,0.095l-0.077,0.096l-0.078,0.099l-0.078,0.1l-0.075,0.097l-0.075,0.098l-0.076,0.101l-0.072,0.097l-0.073,0.099l-0.076,0.106l-0.073,0.101l-0.07,0.099l-0.071,0.102l-0.07,0.102l-0.072,0.106l-0.07,0.103l-0.067,0.102l-0.068,0.105l-0.069,0.105l-0.067,0.106l-0.065,0.103l-0.066,0.107l-0.066,0.107l-0.063,0.105l-0.065,0.109l-0.062,0.106l-0.064,0.11l-0.062,0.109l-0.059,0.105l-0.062,0.111l-0.061,0.112l-0.058,0.106l-0.058,0.11l-0.059,0.113l-0.057,0.111l-0.057,0.111l-0.057,0.114l-0.056,0.112l-0.053,0.11l-0.054,0.114l-0.054,0.113l-0.051,0.111l-0.053,0.115l-0.053,0.118l-0.049,0.113l-0.049,0.112l-0.051,0.12l-0.048,0.115l-0.047,0.114l-0.048,0.118l-0.048,0.118l-0.045,0.116l-0.045,0.117l-0.044,0.116l-0.043,0.118l-0.044,0.121l-0.043,0.121l-0.042,0.119l-0.039,0.115l-0.04,0.12l-0.041,0.124l-0.038,0.12l-0.037,0.117l-0.038,0.122l-0.036,0.122l-0.036,0.122l-0.036,0.123l-0.034,0.123l-0.034,0.124l-0.033,0.12l-0.031,0.121l-0.032,0.126l-0.031,0.125l-0.03,0.122l-0.028,0.123l-0.029,0.127l-0.028,0.124l-0.027,0.128l-0.026,0.125l-0.025,0.125l-0.025,0.129l-0.024,0.122l-0.023,0.127l-0.022,0.13l-0.022,0.127l-0.02,0.124l-0.02,0.129l-0.019,0.128l-0.019,0.129l-0.018,0.13l-0.017,0.13l-0.016,0.13l-0.015,0.127l-0.014,0.131l-0.014,0.128l-0.012,0.129l-0.013,0.136l-0.011,0.129l-0.01,0.13l-0.01,0.134l-0.009,0.131l-0.008,0.131l-0.007,0.131l-0.006,0.135l-0.006,0.133l-0.004,0.132l-0.004,0.134l-0.003,0.133l-0.002,0.138l-0.002,0.131l0,0.135l0,0.134l0.002,0.131l0.002,0.138l0.003,0.133l0.004,0.133l0.004,0.133l0.006,0.133l0.006,0.135l0.007,0.131l0.008,0.132l0.009,0.13l0.01,0.134l0.01,0.13l0.011,0.129l0.013,0.136l0.012,0.129l0.014,0.128l0.014,0.131l0.015,0.127l0.016,0.13l0.017,0.13l0.018,0.13l0.019,0.129l0.019,0.128l0.02,0.129l0.02,0.124l0.022,0.127l0.022,0.13l0.023,0.127l0.024,0.122l0.025,0.13l0.025,0.124l0.026,0.125l0.027,0.128l0.028,0.124l0.029,0.126l0.028,0.124l0.03,0.122l0.031,0.125l0.032,0.126l0.031,0.121l0.033,0.12l0.034,0.124l0.034,0.123l0.036,0.123l0.036,0.122l0.036,0.122l0.038,0.122l0.037,0.117l0.038,0.121l0.041,0.123l0.04,0.119l0.039,0.116l0.042,0.119l0.043,0.121l0.044,0.122l0.043,0.117l0.044,0.116l0.045,0.117l0.045,0.115l0.048,0.119l0.048,0.118l0.047,0.115l0.048,0.114l0.051,0.119l0.049,0.113l0.049,0.113l0.054,0.118l0.052,0.115l0.051,0.111l0.054,0.114l0.054,0.112l0.053,0.11l0.056,0.113l0.057,0.114l0.057,0.111l0.057,0.111l0.059,0.113l0.058,0.11l0.058,0.106l0.061,0.112l0.062,0.111l0.059,0.105l0.062,0.109l0.064,0.11l0.062,0.106l0.064,0.108l0.064,0.106l0.066,0.107l0.066,0.107l0.065,0.103l0.068,0.106l0.067,0.105l0.069,0.105l0.067,0.102l0.07,0.103l0.072,0.106l0.07,0.102l0.071,0.102l0.07,0.099l0.073,0.101l0.076,0.105l0.073,0.1l0.072,0.097l0.076,0.101l0.075,0.098l0.075,0.098l0.078,0.099l0.078,0.098l0.077,0.096l0.077,0.096l0.081,0.099l0.079,0.095l0.078,0.093l0.083,0.097l0.082,0.095l0.08,0.092l0.08,0.091l0.084,0.094l0.085,0.094l0.084,0.091l0.084,0.092l0.085,0.091l0.086,0.09l0.085,0.089l0.086,0.089l0.087,0.088l0.089,0.089l0.09,0.09l0.086,0.084l0.09,0.088l0.091,0.087l0.087,0.083l0.092,0.085l0.092,0.086l0.092,0.084l0.094,0.085l0.091,0.081l0.093,0.082l0.092,0.081l0.095,0.081l0.097,0.083l0.094,0.079l0.095,0.079l0.096,0.079l0.097,0.078l0.099,0.079l0.097,0.077l0.096,0.075l0.098,0.076l0.103,0.078l0.098,0.074l0.098,0.072l0.101,0.075l0.101,0.073l0.101,0.072l0.103,0.073l0.101,0.071l0.101,0.069l0.105,0.072l0.103,0.069l0.104,0.069l0.104,0.068l0.104,0.067l0.106,0.067l0.105,0.067l0.106,0.065l0.107,0.066l0.107,0.064l0.106,0.063l0.109,0.065l0.108,0.062l0.106,0.061l0.111,0.062l0.11,0.061l0.107,0.059l0.11,0.059l0.111,0.059l0.111,0.058l0.113,0.059l0.11,0.056l0.11,0.055l0.114,0.056l0.111,0.054l0.113,0.054l0.114,0.054l0.114,0.053l0.114,0.052l0.114,0.051l0.116,0.051l0.114,0.05l0.115,0.049l0.116,0.048l0.115,0.048l0.119,0.048l0.116,0.046l0.117,0.046l0.116,0.045l0.119,0.044l0.118,0.044l0.12,0.043l0.118,0.042l0.118,0.042l0.121,0.041l0.119,0.04l0.12,0.039l0.12,0.039l0.121,0.038l0.122,0.037l0.12,0.037l0.123,0.036l0.123,0.035l0.121,0.034l0.122,0.034l0.123,0.032l0.123,0.033l0.124,0.031l0.123,0.031l0.124,0.03l0.125,0.029l0.126,0.028l0.125,0.028l0.125,0.027l0.125,0.026l0.126,0.025l0.126,0.025l0.127,0.024l0.126,0.023l0.127,0.022l0.128,0.022l0.127,0.021l0.129,0.02l0.127,0.019l0.129,0.018l0.129,0.018l0.129,0.017l0.13,0.016l0.129,0.015l0.13,0.014l0.129,0.014l0.131,0.013l0.132,0.012l0.13,0.011l0.131,0.011l0.131,0.009l0.133,0.009l0.132,0.008l0.132,0.007l0.133,0.006l0.132,0.006l0.134,0.005l0.134,0.003l0.133,0.003l0.133,0.002l0.135,0.002l0.147,0l155.999,0l0.147,0l0.135,-0.002l0.133,-0.002l0.133,-0.003l0.134,-0.003l0.134,-0.005l0.132,-0.006l0.133,-0.006l0.132,-0.007l0.132,-0.008l0.133,-0.009l0.131,-0.009l0.13,-0.011l0.132,-0.011l0.131,-0.012l0.13,-0.013l0.13,-0.014l0.13,-0.014l0.13,-0.015l0.129,-0.016l0.129,-0.017l0.13,-0.018l0.127,-0.018l0.128,-0.019l0.129,-0.02l0.127,-0.021l0.127,-0.022l0.128,-0.022l0.126,-0.023l0.126,-0.024l0.127,-0.025l0.125,-0.025l0.127,-0.026l0.125,-0.027l0.124,-0.028l0.126,-0.028l0.125,-0.029l0.123,-0.03l0.123,-0.031l0.125,-0.031l0.123,-0.033l0.123,-0.032l0.121,-0.033l0.123,-0.035l0.123,-0.036l0.121,-0.035l0.121,-0.037l0.122,-0.037l0.121,-0.038l0.121,-0.039l0.119,-0.039l0.119,-0.04l0.12,-0.041l0.119,-0.042l0.119,-0.042l0.118,-0.043l0.119,-0.044l0.118,-0.044l0.117,-0.045l0.117,-0.046l0.116,-0.046l0.119,-0.048l0.115,-0.048l0.114,-0.048l0.117,-0.049l0.116,-0.051l0.114,-0.05l0.114,-0.051l0.114,-0.052l0.114,-0.053l0.114,-0.054l0.113,-0.054l0.111,-0.054l0.112,-0.055l0.112,-0.056l0.112,-0.057l0.111,-0.058l0.111,-0.058l0.109,-0.058l0.11,-0.059l0.111,-0.061l0.11,-0.061l0.109,-0.061l0.106,-0.061l0.108,-0.062l0.109,-0.065l0.106,-0.063l0.107,-0.064l0.107,-0.066l0.105,-0.065l0.106,-0.067l0.104,-0.066l0.105,-0.068l0.105,-0.068l0.104,-0.069l0.104,-0.07l0.102,-0.07l0.103,-0.07l0.103,-0.072l0.101,-0.072l0.1,-0.072l0.102,-0.073l0.099,-0.073l0.1,-0.074l0.1,-0.076l0.099,-0.075l0.1,-0.077l0.097,-0.076l0.096,-0.076l0.099,-0.079l0.097,-0.078l0.094,-0.078l0.097,-0.08l0.095,-0.081l0.094,-0.079l0.094,-0.082l0.096,-0.083l0.092,-0.081l0.091,-0.081l0.095,-0.087l0.091,-0.082l0.09,-0.084l0.092,-0.085l0.091,-0.087l0.089,-0.085l0.088,-0.086l0.09,-0.088l0.09,-0.09l0.086,-0.087l0.085,-0.086l0.089,-0.091l0.087,-0.091l0.083,-0.088l0.086,-0.091l0.084,-0.092l0.084,-0.091l0.083,-0.092l0.084,-0.094l0.084,-0.095l0.08,-0.092l0.08,-0.093l0.082,-0.097l0.079,-0.093l0.079,-0.095l0.081,-0.099l0.077,-0.096l0.077,-0.096l0.078,-0.098l0.076,-0.097l0.077,-0.1l0.077,-0.101l0.072,-0.096l0.074,-0.099l0.075,-0.102l0.072,-0.1l0.074,-0.104l0.073,-0.102l0.069,-0.099l0.07,-0.102l0.07,-0.103l0.072,-0.106l0.069,-0.105l0.067,-0.102l0.067,-0.105l0.066,-0.103l0.067,-0.106l0.066,-0.107l0.066,-0.107l0.065,-0.108l0.063,-0.106l0.062,-0.106l0.062,-0.107l0.063,-0.109l0.062,-0.111l0.06,-0.108l0.06,-0.109l0.06,-0.112l0.058,-0.11l0.058,-0.11l0.057,-0.111l0.057,-0.111l0.056,-0.111l0.055,-0.113l0.056,-0.116l0.053,-0.109l0.054,-0.114l0.053,-0.114l0.05,-0.112l0.052,-0.115l0.051,-0.116l0.051,-0.116l0.048,-0.113l0.049,-0.117l0.049,-0.118l0.046,-0.115l0.046,-0.116l0.047,-0.118l0.044,-0.117l0.044,-0.116l0.045,-0.121l0.043,-0.118l0.042,-0.118l0.042,-0.122l0.041,-0.119l0.039,-0.116l0.039,-0.12l0.04,-0.124l0.038,-0.121l0.037,-0.118l0.036,-0.122l0.036,-0.122l0.036,-0.123l0.034,-0.123l0.033,-0.12l0.033,-0.124l0.033,-0.125l0.031,-0.122l0.03,-0.122l0.03,-0.125l0.03,-0.127l0.028,-0.123l0.028,-0.124l0.026,-0.124l0.027,-0.129l0.025,-0.124l0.025,-0.126l0.024,-0.13l0.023,-0.126l0.022,-0.123l0.021,-0.128l0.022,-0.131l0.02,-0.128l0.018,-0.125l0.019,-0.129l0.018,-0.13l0.016,-0.13l0.017,-0.13l0.015,-0.127l0.014,-0.128l0.014,-0.131l0.013,-0.133l0.011,-0.128l0.012,-0.133l0.01,-0.134l0.01,-0.13l0.009,-0.13l0.008,-0.132l0.007,-0.131l0.006,-0.135l0.006,-0.133l0.004,-0.133l0.004,-0.133l0.003,-0.133l0.002,-0.134l0.001,-0.135l0.001,-0.134l-0.001,-0.135l-0.001,-0.135l-0.002,-0.134l-0.003,-0.133l-0.004,-0.134l-0.004,-0.132l-0.006,-0.133l-0.006,-0.135l-0.007,-0.131l-0.008,-0.131l-0.009,-0.131l-0.01,-0.13l-0.01,-0.134l-0.012,-0.133l-0.011,-0.128l-0.013,-0.133l-0.014,-0.131l-0.014,-0.128l-0.015,-0.127l-0.017,-0.13l-0.016,-0.13l-0.018,-0.13l-0.019,-0.129l-0.018,-0.125l-0.02,-0.128l-0.022,-0.131l-0.021,-0.128l-0.022,-0.123l-0.023,-0.126l-0.024,-0.13l-0.025,-0.125l-0.025,-0.125l-0.027,-0.129l-0.026,-0.124l-0.028,-0.124l-0.028,-0.123l-0.03,-0.127l-0.03,-0.125l-0.03,-0.122l-0.031,-0.122l-0.033,-0.125l-0.033,-0.124l-0.033,-0.12l-0.034,-0.123l-0.036,-0.123l-0.036,-0.122l-0.036,-0.122l-0.037,-0.118l-0.038,-0.121l-0.04,-0.124l-0.039,-0.12l-0.039,-0.116l-0.041,-0.119l-0.042,-0.122l-0.042,-0.118l-0.043,-0.118l-0.045,-0.121l-0.044,-0.116l-0.044,-0.117l-0.047,-0.119l-0.046,-0.115l-0.046,-0.115l-0.049,-0.117l-0.049,-0.118l-0.049,-0.113l-0.05,-0.116l-0.051,-0.116l-0.052,-0.115l-0.05,-0.112l-0.053,-0.114l-0.054,-0.113l-0.053,-0.111l-0.056,-0.116l-0.055,-0.112l-0.056,-0.111l-0.057,-0.111l-0.057,-0.111l-0.058,-0.11l-0.058,-0.11l-0.06,-0.112l-0.06,-0.109l-0.06,-0.108l-0.062,-0.111l-0.063,-0.109l-0.062,-0.107l-0.062,-0.106l-0.063,-0.106l-0.065,-0.108l-0.066,-0.107l-0.066,-0.107l-0.067,-0.106l-0.066,-0.103l-0.068,-0.105l-0.066,-0.102l-0.069,-0.105l-0.072,-0.106l-0.07,-0.103l-0.07,-0.102l-0.069,-0.099l-0.072,-0.102l-0.075,-0.104l-0.072,-0.1l-0.075,-0.102l-0.074,-0.099l-0.072,-0.096l-0.077,-0.101l-0.077,-0.1l-0.076,-0.097l-0.078,-0.099l-0.077,-0.096l-0.077,-0.095l-0.081,-0.099l-0.079,-0.094l-0.079,-0.094l-0.083,-0.098l-0.079,-0.092l-0.08,-0.092l-0.085,-0.096l-0.083,-0.093l-0.083,-0.092l-0.084,-0.092l-0.084,-0.091l-0.086,-0.091l-0.082,-0.087l-0.088,-0.092l-0.089,-0.091l-0.084,-0.086l-0.088,-0.088l-0.089,-0.089l-0.09,-0.088l-0.088,-0.086l-0.089,-0.085l-0.091,-0.087l-0.092,-0.086l-0.09,-0.083l-0.091,-0.082l-0.094,-0.086l-0.091,-0.082l-0.093,-0.081l-0.096,-0.084l-0.095,-0.081l-0.092,-0.079l-0.096,-0.08l-0.097,-0.081l-0.095,-0.078l-0.096,-0.078l-0.098,-0.079l-0.097,-0.076l-0.097,-0.076l-0.1,-0.077l-0.098,-0.075l-0.101,-0.076l-0.1,-0.074l-0.099,-0.072l-0.102,-0.075l-0.101,-0.072l-0.1,-0.07l-0.102,-0.072l-0.104,-0.072l-0.102,-0.069l-0.104,-0.07l-0.104,-0.069l-0.105,-0.068l-0.105,-0.068l-0.104,-0.066l-0.105,-0.066l-0.106,-0.066l-0.107,-0.066l-0.106,-0.064l-0.108,-0.064l-0.109,-0.064l-0.107,-0.062l-0.106,-0.061l-0.109,-0.061l-0.11,-0.061l-0.111,-0.061l-0.109,-0.059l-0.11,-0.058l-0.112,-0.059l-0.11,-0.056l-0.112,-0.058l-0.113,-0.056l-0.11,-0.055l-0.112,-0.054l-0.114,-0.055l-0.113,-0.053l-0.114,-0.053l-0.114,-0.052l-0.113,-0.05l-0.115,-0.051l-0.117,-0.051l-0.115,-0.049l-0.115,-0.048l-0.116,-0.048l-0.117,-0.047l-0.117,-0.047l-0.117,-0.046l-0.117,-0.045l-0.118,-0.044l-0.119,-0.044l-0.118,-0.043l-0.119,-0.042l-0.12,-0.042l-0.119,-0.041l-0.119,-0.04l-0.119,-0.039l-0.121,-0.039l-0.121,-0.038l-0.122,-0.037l-0.121,-0.037l-0.121,-0.036l-0.123,-0.035l-0.122,-0.034l-0.122,-0.034l-0.124,-0.033l-0.122,-0.032l-0.124,-0.031l-0.124,-0.031l-0.124,-0.03l-0.124,-0.029l-0.125,-0.028l-0.125,-0.028l-0.126,-0.027l-0.126,-0.026l-0.125,-0.025l-0.127,-0.025l-0.125,-0.024l-0.126,-0.023l-0.13,-0.023l-0.127,-0.021l-0.126,-0.021l-0.128,-0.019l-0.129,-0.02l-0.128,-0.018l-0.129,-0.018l-0.129,-0.017l-0.129,-0.016l-0.129,-0.015l-0.131,-0.014l-0.131,-0.014l-0.129,-0.013l-0.13,-0.012l-0.132,-0.011l-0.131,-0.011l-0.132,-0.009l-0.132,-0.009l-0.132,-0.008l-0.132,-0.007l-0.133,-0.006l-0.133,-0.006l-0.133,-0.005l-0.133,-0.003l-0.134,-0.003l-0.134,-0.002l-0.134,-0.002l-0.147,0l-155.999,0Z" style="fill:#00bdf5;"/><g><path d="M885.98,1355.94l27.169,-47.634l71.018,-0.508l25.008,47.258l-123.195,0.884Z" style="fill:#f5e5c3;stroke:#ed7241;stroke-width:6px;"/><path d="M885.98,1449.96l27.169,-47.634l71.018,-0.508l25.008,47.258l-123.195,0.884Z" style="fill:#f5e5c3;stroke:#ed7241;stroke-width:6px;"/><path d="M885.98,1498.1l27.169,-47.634l71.018,-0.508l25.008,47.258l-123.195,0.884Z" style="fill:#f5e5c3;stroke:#ed7241;stroke-width:6px;"/><path d="M885.98,1543.98l27.169,-45.393l71.018,-0.484l25.008,45.034l-123.195,0.843Z" style="fill:#f5e5c3;stroke:#ed7241;stroke-width:6px;"/><path d="M1009.18,1400.86l27.17,-47.634l71.017,-0.508l25.008,47.258l-123.195,0.884Z" style="fill:#f5e5c3;stroke:#ed7241;stroke-width:6px;"/><path d="M1011.98,1449.96l27.17,-47.634l71.017,-0.508l25.008,47.258l-123.195,0.884Z" style="fill:#f5e5c3;stroke:#ed7241;stroke-width:6px;"/><path d="M1009.18,1498.1l27.17,-47.634l71.017,-0.508l25.008,47.258l-123.195,0.884Z" style="fill:#f5e5c3;stroke:#ed7241;stroke-width:6px;"/><path d="M1009.18,1543.98l27.17,-46.267l71.017,-0.494l25.008,45.902l-123.195,0.859Z" style="fill:#f5e5c3;stroke:#ed7241;stroke-width:6px;"/><path d="M915.462,1288.31c0,0 -2.397,-30.021 -3.701,-46.344c-0.076,-0.956 0.535,-1.832 1.459,-2.089c0.923,-0.257 1.9,0.177 2.328,1.035c7.811,15.636 22.813,45.667 22.813,45.667l-22.899,1.731Z" style="fill:#f5e5c3;"/><path d="M1040.39,1302.48c0,0 37.325,-49.171 53.241,-70.14c0.59,-0.777 1.653,-1.016 2.519,-0.566c0.865,0.45 1.28,1.458 0.983,2.386c-7.926,24.798 -26.364,82.478 -26.364,82.478l-30.379,-14.158Z" style="fill:#f5e5c3;"/><path d="M1108.61,1331.87c0,0 76.5,-80.457 103.142,-108.477c0.682,-0.716 1.784,-0.828 2.596,-0.263c0.811,0.565 1.089,1.638 0.653,2.526c-16.717,34.032 -63.996,130.285 -63.996,130.285l-42.395,-24.071Z" style="fill:#f5e5c3;"/><path d="M1179.46,1379.72c0,0 87.051,-54.357 121.24,-75.706c0.857,-0.534 1.977,-0.348 2.614,0.435c0.637,0.783 0.592,1.918 -0.106,2.648c-28.516,29.806 -102.39,107.024 -102.39,107.024l-21.358,-34.401Z" style="fill:#f5e5c3;"/><path d="M1246.86,1430.36c0,0 41.822,-18.16 59.576,-25.87c0.853,-0.37 1.848,-0.105 2.403,0.64c0.555,0.745 0.525,1.775 -0.074,2.486c-12.846,15.257 -43.776,51.994 -43.776,51.994l-18.129,-29.25Z" style="fill:#f5e5c3;"/><path d="M977.685,1288.31c0,0 10.374,-38.595 15.629,-58.148c0.253,-0.94 1.144,-1.562 2.113,-1.475c0.969,0.088 1.735,0.859 1.816,1.828c1.698,20.372 5.071,60.846 5.071,60.846l-24.629,-3.051Z" style="fill:#f5e5c3;"/><path d="M1007.01,1591.15l27.17,-46.671l71.017,-0.497l25.008,46.302l-123.195,0.866Z" style="fill:#f5e5c3;stroke:#ed7241;stroke-width:6px;"/><path d="M1131.75,1497.12l27.17,-50.54l71.017,-0.539l25.008,50.141l-123.195,0.938Z" style="fill:#f5e5c3;stroke:#ed7241;stroke-width:6px;"/><path d="M1132.37,1543.98l27.17,-47.635l71.017,-0.508l25.008,47.259l-123.195,0.884Z" style="fill:#f5e5c3;stroke:#ed7241;stroke-width:6px;"/><path d="M1132.37,1590.52l27.17,-47.008l71.017,-0.501l25.008,46.637l-123.195,0.872Z" style="fill:#f5e5c3;stroke:#ed7241;stroke-width:6px;"/><path d="M885.98,1592.12l27.169,-47.635l71.018,-0.507l25.008,47.258l-123.195,0.884Z" style="fill:#f5e5c3;stroke:#ed7241;stroke-width:6px;"/><path d="M885.98,1401.82l27.169,-45.64l71.018,-0.487l25.008,45.28l-123.195,0.847Z" style="fill:#f5e5c3;stroke:#ed7241;stroke-width:6px;"/></g><g><rect x="724.592" y="973.421" width="71.83" height="29.148" style="fill:#f27342;fill-opacity:0.501961;"/><rect x="768.207" y="938.497" width="71.83" height="29.148" style="fill:#f27342;fill-opacity:0.501961;"/><rect x="1115.19" y="977.883" width="71.83" height="29.148" style="fill:#f27342;fill-opacity:0.501961;"/><rect x="1154.95" y="944.903" width="71.83" height="29.148" style="fill:#f27342;fill-opacity:0.501961;"/><rect x="1115.19" y="508.849" width="71.83" height="29.148" style="fill:#f27342;fill-opacity:0.501961;"/><rect x="1940.3" y="508.849" width="71.83" height="29.148" style="fill:#f27342;fill-opacity:0.501961;"/><rect x="2023.49" y="508.849" width="71.83" height="29.148" style="fill:#f27342;fill-opacity:0.501961;"/><rect x="1981.19" y="542.062" width="71.83" height="29.148" style="fill:#f27342;fill-opacity:0.501961;"/><rect x="278.683" y="445.913" width="209.664" height="33.055" style="fill:#f27342;"/><rect x="331.531" y="505.602" width="68.647" height="26.698" style="fill:#f27342;fill-opacity:0.501961;"/><rect x="289.284" y="537.601" width="72.224" height="26.698" style="fill:#f27342;fill-opacity:0.501961;"/><rect x="463.685" y="891.382" width="65.705" height="24.772" style="fill:#f27342;fill-opacity:0.501961;"/><rect x="464.053" y="925.24" width="35.432" height="24.545" style="fill:#f27342;fill-opacity:0.501961;"/><rect x="463.685" y="958.871" width="65.705" height="24.772" style="fill:#f27342;fill-opacity:0.501961;"/><rect x="464.053" y="992.729" width="35.432" height="24.545" style="fill:#f27342;fill-opacity:0.501961;"/><g><path d="M1209.4,412.071l0,74.098l-190.186,0l0,-74.098l190.186,0Zm-11.023,24.248l-165.86,0l0,36.977l165.86,0l0,-36.977Z" style="fill:#f27342;"/><rect x="1028.16" y="422.599" width="176.223" height="58.919" style="fill:#f27342;fill-opacity:0.501961;"/></g><g><path d="M1421.65,412.071l0,74.098l-190.187,0l0,-74.098l190.187,0Zm-11.023,24.248l-165.861,0l0,36.977l165.861,0l0,-36.977Z" style="fill:#f27342;"/><rect x="1240.4" y="422.599" width="176.223" height="58.919" style="fill:#f27342;fill-opacity:0.501961;"/></g><g><path d="M1633.89,412.071l0,74.098l-190.186,0l0,-74.098l190.186,0Zm-11.022,24.248l-165.861,0l0,36.977l165.861,0l0,-36.977Z" style="fill:#f27342;"/><rect x="1452.65" y="422.599" width="176.223" height="58.919" style="fill:#f27342;fill-opacity:0.501961;"/></g><g><path d="M1001.94,412.071l0,74.098l-165.704,0c-0.87,-41.833 -15.082,-51.462 -29.023,-53.559l0,-20.539l194.727,0Zm-11.286,24.248l-163.169,-0.505c12.954,12.09 13.586,23.629 16.55,36.98l146.619,0.502l0,-36.977Z" style="fill:#f27342;"/><path d="M996.802,422.599l-175.946,6.256c11.036,10.536 19.648,22.284 24.644,51.561l151.302,1.102l0,-58.919Z" style="fill:#f27342;fill-opacity:0.501961;"/></g><g><path d="M1654.71,412.071l0,74.098l165.704,0c0.87,-41.833 15.082,-51.462 29.024,-53.559l0,-20.539l-194.728,0Zm11.286,24.248l163.169,-0.505c-12.954,12.09 -13.586,23.629 -16.55,36.98l-146.619,0.502l0,-36.977Z" style="fill:#f27342;"/><path d="M1659.85,422.599l175.946,6.256c-11.036,10.536 -19.648,22.284 -24.644,51.561l-151.302,1.102l0,-58.919Z" style="fill:#f27342;fill-opacity:0.501961;"/></g></g><g><rect x="49.339" y="1215.48" width="71.161" height="24.009" style="fill:#f27342;"/><rect x="49.339" y="1249.11" width="35.58" height="24.009" style="fill:#f27342;"/><rect x="171.126" y="1249.11" width="71.161" height="26.85" style="fill:#f27342;"/><rect x="253.827" y="1249.11" width="71.161" height="26.85" style="fill:#f27342;"/><rect x="212.212" y="1215.48" width="71.161" height="28.947" style="fill:#f27342;"/><rect x="294.979" y="1215.48" width="65.479" height="28.947" style="fill:#f27342;"/><rect x="372.064" y="1215.48" width="68.807" height="28.947" style="fill:#f27342;"/><rect x="406.468" y="1252.24" width="34.403" height="23.726" style="fill:#f27342;"/><rect x="129.179" y="1411.77" width="68.807" height="23.726" style="fill:#f27342;"/><rect x="85.506" y="1443.41" width="73.31" height="28.947" style="fill:#f27342;"/><rect x="209.707" y="1477.14" width="65.479" height="26.698" style="fill:#f27342;"/><rect x="167.916" y="1512.22" width="73.31" height="26.698" style="fill:#f27342;"/><rect x="48.851" y="1550.49" width="73.31" height="26.698" style="fill:#f27342;"/><rect x="130.683" y="1550.49" width="67.304" height="28.947" style="fill:#f27342;"/><rect x="6.536" y="1581.82" width="70.971" height="26.698" style="fill:#f27342;"/><rect x="88.094" y="1581.82" width="70.971" height="26.698" style="fill:#f27342;"/><rect x="129.158" y="1615.23" width="67.304" height="26.698" style="fill:#f27342;"/><rect x="537.573" y="1114.71" width="70.971" height="28.947" style="fill:#f27342;"/><rect x="537.573" y="1152.51" width="37.971" height="24.493" style="fill:#f27342;"/><rect x="537.573" y="1182.87" width="70.971" height="26.698" style="fill:#f27342;"/><rect x="726.468" y="1080.2" width="70.971" height="28.947" style="fill:#f27342;"/><rect x="759.468" y="1114.71" width="37.971" height="26.698" style="fill:#f27342;"/><rect x="726.468" y="1146.09" width="70.971" height="28.947" style="fill:#f27342;"/><rect x="759.468" y="1179.71" width="37.971" height="28.947" style="fill:#f27342;"/><rect x="726.468" y="1214.69" width="70.971" height="26.698" style="fill:#f27342;"/><rect x="759.468" y="1246.97" width="37.971" height="24.436" style="fill:#f27342;"/><rect x="724.971" y="1279.13" width="72.467" height="28.947" style="fill:#f27342;"/><rect x="759.468" y="1313.65" width="37.971" height="25.991" style="fill:#f27342;"/><rect x="726.468" y="1347.37" width="70.971" height="24.436" style="fill:#f27342;"/><rect x="758.068" y="1380.59" width="39.37" height="25.991" style="fill:#f27342;"/><rect x="726.468" y="1414.31" width="70.971" height="25.991" style="fill:#f27342;"/><rect x="758.068" y="1448.03" width="37.971" height="25.487" style="fill:#f27342;"/><rect x="724.876" y="1481.33" width="70.971" height="24.436" style="fill:#f27342;"/><rect x="758.068" y="1514.54" width="37.971" height="24.436" style="fill:#f27342;"/><rect x="726.468" y="1547.85" width="69.379" height="25.991" style="fill:#f27342;"/><rect x="758.068" y="1581.65" width="37.779" height="28.227" style="fill:#f27342;"/><rect x="726.468" y="1615.93" width="69.379" height="28.227" style="fill:#f27342;"/><rect x="758.068" y="1650.2" width="37.779" height="24.436" style="fill:#f27342;"/><rect x="725.012" y="1681.54" width="69.379" height="27.165" style="fill:#f27342;"/><rect x="294.979" y="1280.64" width="65.479" height="28.947" style="fill:#f27342;"/><rect x="372.064" y="1280.64" width="68.807" height="28.947" style="fill:#f27342;"/><rect x="406.468" y="1317.4" width="34.403" height="26.698" style="fill:#f27342;"/><path d="M795.847,1081.89l0,645.111l-795.847,0l0,-592.499c21.924,37.681 62.748,63.034 109.447,63.034l212.091,0c66.168,0 120.541,-50.899 126.068,-115.646l348.241,0Z" style="fill:#f27342;fill-opacity:0.2;"/></g><g><path d="M0,1103.88l15.766,-0.567c12.188,41.774 41.529,62.853 79.606,67.82l227.567,1.974c62.143,-4.221 92.437,-36.311 100.73,-92.909l0,-297.533l24.87,25.353l-0.933,273.871c-7.626,65.611 -45.146,106.022 -119.391,115.473l-233.856,-0.719c-36.379,-4.357 -69.801,-21.983 -94.359,-64.573l0,-28.19Z" style="fill:#f27342;"/><path d="M258.556,0l-3.646,698.597c0.325,-7.819 13.957,-14.278 25.138,-14.234c15.183,0.061 32.284,10.707 32.796,28.828c0.5,17.722 -7.509,29.072 -20.78,34.325l-37.331,48.457l-0.423,163.625c-0.377,10.38 -4.495,15.458 -13.026,15.261c-6.069,-0.141 -10.08,-4.392 -10.335,-16.203l1.775,-958.656l25.832,0Zm22.5,705.587c6.898,0 12.498,5.601 12.498,12.499c0,6.898 -5.6,12.499 -12.498,12.499c-6.898,0 -12.499,-5.601 -12.499,-12.499c0,-6.898 5.601,-12.499 12.499,-12.499Z" style="fill:#f27342;"/><path d="M134.563,1144.15c-25.546,-20.247 -29.048,-50.45 -20.205,-81.496c7.351,4.933 14.169,7.545 20.245,6.924c13.319,-7.16 19.803,-26.265 24.947,-46.28c6.691,0.587 14.527,16.467 22.649,30.251c10.691,-4.419 17.877,-12.989 24.229,-22.547c15.181,31.805 14.137,66.089 -8.077,103.608c-9.485,3.702 -21.266,-3.098 -32.071,-1.706c-17.553,2.261 -23.201,11.173 -31.717,11.246Z" style="fill:#f5e5c3;"/><path d="M83.954,1131.78c-2.325,0 -6.725,7.289 -6.928,8.948c-0.609,4.979 1.284,11.822 2.918,16.271c0.725,1.974 4.603,4.229 7.087,4.988c6.78,2.073 9.655,-2.336 15.84,-3.588c9.641,-1.95 21.009,-0.195 26.896,0.263c9.606,0.747 22.456,2.586 39.877,3.415c6.163,0.293 6.974,-8.366 13.309,-7.927c16.44,1.139 15.78,3.94 32.156,6.557c8.954,1.431 20.076,-5.286 21.942,-14.334c3.505,-17.002 -19.598,-13.716 -28.078,-12.915c-10.297,0.973 -12.607,2.157 -23.343,0.337c-7.789,-1.32 -11.067,-9.784 -19.794,-7.691c-5.419,1.299 -9.132,4.695 -14.181,6.766c-3.041,1.248 -6.43,1.587 -9.382,3.031c-1.444,0.706 -4.023,5.087 -5.608,5.685c-5.438,2.049 -9.178,-6.609 -12.168,-8.606c-2.681,-1.789 -5.854,-2.76 -8.947,-3.666c-6.646,-1.947 -13.232,-3.584 -20.13,-2.491c-2.052,0.325 -4.044,1.026 -5.951,1.85c-1.937,0.837 -3.733,1.977 -5.515,3.107Zm-0.497,10.123c0,2.6 -0.443,5.325 0.558,7.825c1.095,2.736 1.436,2.824 3.186,5.16c1.109,1.482 0.986,1.736 2.711,2.566c3.397,1.637 5.816,-2.928 6.136,-5.61c0.494,-4.153 0.006,-3.981 -1.621,-7.691c-0.322,-0.732 -2.442,-5.903 -3.514,-6.482c-3.965,-2.138 -8.41,2.604 -7.456,4.232Zm83.411,-6.651c0,0 -3.644,0.791 -5.225,1.702c-5.87,3.385 -5.194,12.889 -0.199,16.618c2.875,2.146 6.835,1.717 9.853,0.13c2.515,-1.322 3.169,-2.321 4.689,-4.588c1.314,-1.958 2.152,-4.496 1.46,-6.843c-0.852,-2.891 -3.117,-5.363 -6.002,-6.308c-1.208,-0.396 -2.278,-0.21 -3.512,-0.275c-0.117,-0.006 -1.064,-0.144 -1.064,-0.436Zm55.334,4.578c-0.763,0.143 -2.34,1.589 -2.862,2.067c-0.801,0.734 -1.576,1.496 -2.368,2.239c-1.343,1.26 -2.911,2.397 -3.509,4.227c-0.392,1.2 0.331,2.503 0.943,3.456c1.048,1.631 2.949,2.845 4.95,2.303c3.917,-1.061 6.995,-3.69 8.466,-7.505c0.267,-0.691 0.435,-1.432 0.465,-2.172c0.087,-2.179 -1.074,-4.513 -3.421,-4.851c-0.822,-0.119 -1.866,0.086 -2.664,0.236Z" style="fill:#f27342;"/></g><g><rect x="368.647" y="27.338" width="72.224" height="28.043" style="fill:#f27342;"/><g><rect x="736.534" y="0" width="72.224" height="28.043" style="fill:#f27342;"/><rect x="772.646" y="33.146" width="36.112" height="28.043" style="fill:#f27342;"/><rect x="736.534" y="66.292" width="72.224" height="28.043" style="fill:#f27342;"/><rect x="772.646" y="99.438" width="36.112" height="28.043" style="fill:#f27342;"/><rect x="736.534" y="132.584" width="72.224" height="28.043" style="fill:#f27342;"/><rect x="772.646" y="165.73" width="36.112" height="28.043" style="fill:#f27342;"/><rect x="736.534" y="198.876" width="72.224" height="28.043" style="fill:#f27342;"/><rect x="772.646" y="232.021" width="36.112" height="28.043" style="fill:#f27342;"/><rect x="736.534" y="265.167" width="72.224" height="28.043" style="fill:#f27342;"/><rect x="736.534" y="331.459" width="72.224" height="28.043" style="fill:#f27342;"/><rect x="772.646" y="298.313" width="36.112" height="28.043" style="fill:#f27342;"/><rect x="772.646" y="364.605" width="36.112" height="28.043" style="fill:#f27342;"/></g><rect x="329.924" y="62.488" width="72.224" height="26.698" style="fill:#f27342;"/><rect x="289.284" y="161.406" width="72.224" height="28.043" style="fill:#f27342;"/><rect x="289.284" y="194.065" width="32.739" height="28.043" style="fill:#f27342;"/><rect x="256.507" y="0" width="552.251" height="392.648" style="fill:#f27342;fill-opacity:0.2;"/><rect x="289.284" y="228.744" width="72.224" height="28.043" style="fill:#f27342;"/><rect x="289.284" y="294.737" width="72.224" height="26.698" style="fill:#f27342;"/><rect x="331.531" y="329.006" width="72.224" height="26.698" style="fill:#f27342;"/><path d="M485.608,0l42.903,0l0,109.706l153.766,0l0,-109.706l42.903,0l0,146.01c0,11.825 -9.6,21.425 -21.425,21.425l-0.077,0c-11.811,0 -21.401,-9.589 -21.401,-21.401l0,-0.024l-153.766,0c0,11.825 -9.6,21.425 -21.425,21.425l-0.077,0c-11.811,0 -21.401,-9.589 -21.401,-21.401l0,-146.034Z" style="fill:#f27342;"/></g><g><g><rect x="1834.22" y="0.526" width="72.224" height="28.043" style="fill:#f27342;"/><rect x="1834.22" y="33.672" width="36.112" height="28.043" style="fill:#f27342;"/><rect x="1834.22" y="66.818" width="72.224" height="28.043" style="fill:#f27342;"/><rect x="1834.22" y="99.964" width="36.112" height="28.043" style="fill:#f27342;"/><rect x="1834.22" y="133.11" width="72.224" height="28.043" style="fill:#f27342;"/><rect x="1834.22" y="166.256" width="36.112" height="28.043" style="fill:#f27342;"/><rect x="1834.22" y="199.402" width="72.224" height="28.043" style="fill:#f27342;"/><rect x="1834.22" y="232.548" width="36.112" height="28.043" style="fill:#f27342;"/><rect x="1834.22" y="265.693" width="72.224" height="28.043" style="fill:#f27342;"/><rect x="1834.22" y="331.985" width="72.224" height="28.043" style="fill:#f27342;"/><rect x="1834.22" y="298.839" width="36.112" height="28.043" style="fill:#f27342;"/><rect x="1834.22" y="365.131" width="36.112" height="28.043" style="fill:#f27342;"/></g><rect x="1834.22" y="0.526" width="698.53" height="392.648" style="fill:#f27342;fill-opacity:0.2;"/><rect x="2309.08" y="15.588" width="72.224" height="28.043" style="fill:#f27342;"/><rect x="2351.27" y="50.298" width="72.224" height="28.043" style="fill:#f27342;"/><rect x="2351.27" y="115.822" width="72.224" height="28.043" style="fill:#f27342;"/><path d="M2085.11,0.526l3.876,196.324c-8.784,-1.804 -17.268,-5.526 -25.635,-9.922c-17.138,-5.447 -25.094,3.738 -10.604,21.982c35.489,29.621 68.125,32.082 96.299,0.009c11.84,-20.026 7.955,-23.326 -8.864,-20.885c-7.745,4.307 -15.821,7.586 -24.506,8.98l-3.014,-197.014l-27.552,0.526" style="fill:#f27342;"/></g><g><g><rect x="2396.45" y="393.174" width="72.224" height="28.043" style="fill:#f27342;"/><rect x="2396.45" y="426.914" width="36.112" height="28.043" style="fill:#f27342;"/><rect x="2396.45" y="460.654" width="72.224" height="28.043" style="fill:#f27342;"/><rect x="2396.45" y="494.395" width="36.112" height="28.043" style="fill:#f27342;"/><rect x="2396.45" y="528.135" width="72.224" height="28.043" style="fill:#f27342;"/><rect x="2396.45" y="561.875" width="36.112" height="28.043" style="fill:#f27342;"/><rect x="2396.45" y="595.615" width="72.224" height="28.043" style="fill:#f27342;"/><rect x="2396.45" y="629.355" width="36.112" height="28.043" style="fill:#f27342;"/><rect x="2396.45" y="663.095" width="72.224" height="28.043" style="fill:#f27342;"/><rect x="2396.45" y="730.575" width="72.224" height="28.043" style="fill:#f27342;"/><rect x="2396.45" y="696.835" width="36.112" height="28.043" style="fill:#f27342;"/><rect x="2396.45" y="764.315" width="36.112" height="28.043" style="fill:#f27342;"/><rect x="2396.45" y="798.056" width="72.224" height="28.043" style="fill:#f27342;"/><rect x="2396.45" y="831.796" width="36.112" height="28.043" style="fill:#f27342;"/></g><rect x="2396.45" y="392.648" width="136.298" height="468.07" style="fill:#f27342;fill-opacity:0.2;"/></g><g><rect x="1855.16" y="1260.34" width="72.224" height="28.043" style="fill:#f27342;"/><rect x="1855.16" y="1294.08" width="36.112" height="28.043" style="fill:#f27342;"/><rect x="1855.16" y="1327.82" width="72.224" height="28.043" style="fill:#f27342;"/><rect x="1855.16" y="1361.56" width="36.112" height="28.043" style="fill:#f27342;"/><rect x="1855.16" y="1395.3" width="72.224" height="28.043" style="fill:#f27342;"/><rect x="1855.16" y="1429.04" width="36.112" height="28.043" style="fill:#f27342;"/><rect x="1855.16" y="1462.78" width="72.224" height="28.043" style="fill:#f27342;"/><rect x="1855.16" y="1496.52" width="36.112" height="28.043" style="fill:#f27342;"/><rect x="1855.16" y="1530.26" width="72.224" height="28.043" style="fill:#f27342;"/><rect x="1855.16" y="1597.74" width="72.224" height="28.043" style="fill:#f27342;"/><rect x="1855.16" y="1564" width="36.112" height="28.043" style="fill:#f27342;"/><rect x="1855.16" y="1631.48" width="36.112" height="28.043" style="fill:#f27342;"/><rect x="1855.16" y="1665.22" width="72.224" height="28.043" style="fill:#f27342;"/><rect x="2389.09" y="1636" width="72.224" height="28.043" style="fill:#f27342;"/><rect x="2265.85" y="1602.98" width="72.224" height="28.043" style="fill:#f27342;"/><rect x="2308.47" y="1567.73" width="72.224" height="28.043" style="fill:#f27342;"/><rect x="2226.9" y="1567.73" width="72.224" height="28.043" style="fill:#f27342;"/><rect x="2338.07" y="1467.87" width="72.224" height="28.043" style="fill:#f27342;"/><rect x="2380.69" y="1433.58" width="72.224" height="28.043" style="fill:#f27342;"/><rect x="2337.2" y="1397.4" width="72.224" height="28.043" style="fill:#f27342;"/><rect x="2416.81" y="1397.4" width="72.224" height="28.043" style="fill:#f27342;"/><path d="M2314.88,1068.75c-3.525,81.501 10.632,145.858 38.557,196.868c28.856,57.635 66.2,84.807 114.396,88.43c18.997,1.428 42.085,2.099 64.914,2.448l0,-19.856l-69.44,-1.688c-50.863,-8.127 -80.12,-50.41 -104.303,-108.904c-22.008,-53.235 -26.481,-108.664 -24.536,-163.445l-19.588,6.147Z" style="fill:#f27342;"/><path d="M2465.19,1014.9c1.21,70.376 18.861,132.068 53.048,185.025l14.51,8.237l0,-217.925l-67.558,24.663Z" style="fill:#f27342;"/><rect x="1855.16" y="1698.96" width="36.112" height="28.043" style="fill:#f27342;"/><path d="M2314.41,1080.8c-0.749,73.414 13.293,132.372 39.024,179.877c28.856,58.251 66.2,85.713 114.396,89.375c18.97,1.442 42.02,2.12 64.914,2.475l0,374.468l-677.589,0l0,-646.195l459.255,0Z" style="fill:#f27342;fill-opacity:0.2;"/><path d="M2000.66,1120.83l0,-39.372c0,-9.263 7.52,-16.783 16.783,-16.783c9.262,0 16.782,7.52 16.782,16.783l0,144.299c0,9.262 -7.52,16.782 -16.782,16.782c-7.837,0 -14.427,-5.383 -16.269,-12.65l-108.063,0c-1.843,7.267 -8.433,12.65 -16.27,12.65c-9.262,0 -16.782,-7.52 -16.782,-16.782l0,-144.299c0,-9.263 7.52,-16.783 16.782,-16.783c9.263,0 16.783,7.52 16.783,16.783l0,39.372l107.036,0Zm-107.036,37.331l0,34.397l107.036,0l0,-34.397l-107.036,0Z" style="fill:#f27342;"/></g><path d="M1478.57,1102.13c0,-11.143 -9.047,-20.19 -20.191,-20.19l-241.865,0c-11.143,0 -20.19,9.047 -20.19,20.19l0,67.671c0,11.144 9.047,20.191 20.19,20.191l241.865,0c11.144,0 20.191,-9.047 20.191,-20.191l0,-67.671Z" style="fill:#00bdf5;fill-opacity:0.301961;stroke:#00bdf5;stroke-width:9.5px;"/><path d="M1280.93,1150.75c0,4.472 -1.151,8.49 -3.455,12.055c-2.303,3.564 -5.674,6.355 -10.113,8.373c-4.439,2.017 -9.701,3.026 -15.788,3.026c-7.297,0 -13.316,-1.379 -18.057,-4.136c-3.363,-1.984 -6.095,-4.632 -8.197,-7.944c-2.101,-3.313 -3.152,-6.532 -3.152,-9.66c0,-1.815 0.63,-3.371 1.891,-4.665c1.261,-1.295 2.867,-1.942 4.817,-1.942c1.581,0 2.918,0.504 4.01,1.513c1.093,1.009 2.026,2.505 2.8,4.489c0.941,2.354 1.959,4.321 3.051,5.902c1.093,1.58 2.632,2.883 4.616,3.909c1.984,1.025 4.59,1.538 7.818,1.538c4.439,0 8.045,-1.034 10.819,-3.102c2.774,-2.068 4.161,-4.649 4.161,-7.742c0,-2.455 -0.748,-4.448 -2.244,-5.978c-1.496,-1.53 -3.43,-2.698 -5.801,-3.505c-2.37,-0.807 -5.54,-1.665 -9.508,-2.573c-5.313,-1.244 -9.76,-2.698 -13.341,-4.363c-3.581,-1.664 -6.423,-3.934 -8.524,-6.809c-2.102,-2.875 -3.153,-6.448 -3.153,-10.718c0,-4.069 1.11,-7.684 3.329,-10.845c2.22,-3.161 5.431,-5.59 9.634,-7.288c4.204,-1.699 9.147,-2.548 14.83,-2.548c4.539,0 8.465,0.564 11.777,1.69c3.313,1.127 6.061,2.623 8.247,4.489c2.186,1.866 3.783,3.825 4.792,5.876c1.009,2.052 1.513,4.052 1.513,6.003c0,1.782 -0.63,3.388 -1.891,4.817c-1.261,1.429 -2.833,2.143 -4.716,2.143c-1.715,0 -3.018,-0.428 -3.91,-1.286c-0.891,-0.857 -1.857,-2.261 -2.9,-4.212c-1.345,-2.791 -2.959,-4.968 -4.842,-6.531c-1.883,-1.564 -4.91,-2.346 -9.079,-2.346c-3.867,0 -6.986,0.849 -9.357,2.547c-2.37,1.698 -3.556,3.741 -3.556,6.129c0,1.479 0.404,2.757 1.211,3.833c0.807,1.076 1.916,2.001 3.329,2.774c1.412,0.774 2.841,1.379 4.287,1.816c1.446,0.437 3.834,1.076 7.163,1.917c4.169,0.975 7.944,2.051 11.323,3.228c3.38,1.177 6.255,2.606 8.626,4.287c2.37,1.682 4.22,3.809 5.548,6.381c1.328,2.572 1.992,5.725 1.992,9.458Z" style="fill:#00bdf5;fill-rule:nonzero;"/><path d="M1332.07,1164.57l-3.531,-9.281l-30.062,0l-3.531,9.483c-1.379,3.699 -2.556,6.195 -3.531,7.49c-0.975,1.295 -2.572,1.942 -4.791,1.942c-1.884,0 -3.548,-0.689 -4.994,-2.068c-1.446,-1.379 -2.169,-2.942 -2.169,-4.691c0,-1.009 0.168,-2.051 0.504,-3.127c0.337,-1.076 0.892,-2.573 1.665,-4.489l18.915,-48.019c0.538,-1.379 1.185,-3.035 1.942,-4.968c0.756,-1.934 1.563,-3.54 2.421,-4.817c0.857,-1.278 1.984,-2.312 3.379,-3.102c1.396,-0.791 3.119,-1.186 5.171,-1.186c2.084,0 3.825,0.395 5.22,1.186c1.396,0.79 2.522,1.807 3.379,3.051c0.858,1.244 1.581,2.581 2.169,4.01c0.589,1.429 1.337,3.338 2.245,5.725l19.318,47.716c1.514,3.632 2.27,6.271 2.27,7.919c0,1.715 -0.714,3.287 -2.144,4.716c-1.429,1.429 -3.152,2.144 -5.17,2.144c-1.177,0 -2.185,-0.21 -3.026,-0.631c-0.841,-0.42 -1.547,-0.991 -2.118,-1.714c-0.572,-0.723 -1.186,-1.833 -1.841,-3.329c-0.656,-1.497 -1.219,-2.817 -1.69,-3.96Zm-29.659,-20.529l22.093,0l-11.147,-30.516l-10.946,30.516Z" style="fill:#00bdf5;fill-rule:nonzero;"/><path d="M1394.36,1110.55l-29.507,0l0,18.915l24.665,0c2.287,0 3.993,0.513 5.12,1.538c1.126,1.026 1.69,2.396 1.69,4.111c0,1.715 -0.572,3.077 -1.715,4.086c-1.144,1.009 -2.842,1.513 -5.095,1.513l-24.665,0l0,24.362c0,3.094 -0.698,5.389 -2.093,6.885c-1.396,1.497 -3.186,2.245 -5.372,2.245c-2.219,0 -4.027,-0.757 -5.422,-2.27c-1.396,-1.513 -2.093,-3.8 -2.093,-6.86l0,-56.896c0,-2.152 0.319,-3.909 0.958,-5.271c0.639,-1.361 1.639,-2.353 3.001,-2.976c1.362,-0.622 3.102,-0.933 5.221,-0.933l35.307,0c2.388,0 4.162,0.53 5.322,1.589c1.16,1.059 1.74,2.446 1.74,4.161c0,1.749 -0.58,3.153 -1.74,4.212c-1.16,1.059 -2.934,1.589 -5.322,1.589Z" style="fill:#00bdf5;fill-rule:nonzero;"/><path d="M1452.41,1110.55l-33.744,0l0,18.158l31.071,0c2.286,0 3.993,0.513 5.119,1.539c1.127,1.025 1.69,2.379 1.69,4.06c0,1.681 -0.555,3.052 -1.664,4.111c-1.11,1.059 -2.825,1.589 -5.145,1.589l-31.071,0l0,21.033l34.904,0c2.354,0 4.128,0.547 5.322,1.64c1.193,1.092 1.79,2.547 1.79,4.363c0,1.748 -0.597,3.169 -1.79,4.262c-1.194,1.093 -2.968,1.639 -5.322,1.639l-40.705,0c-3.261,0 -5.607,-0.723 -7.036,-2.169c-1.429,-1.446 -2.144,-3.783 -2.144,-7.011l0,-55.585c0,-2.152 0.32,-3.909 0.959,-5.271c0.639,-1.361 1.639,-2.353 3.001,-2.976c1.362,-0.622 3.102,-0.933 5.22,-0.933l39.545,0c2.388,0 4.161,0.53 5.322,1.589c1.16,1.059 1.74,2.446 1.74,4.161c0,1.749 -0.58,3.153 -1.74,4.212c-1.161,1.059 -2.934,1.589 -5.322,1.589Z" style="fill:#00bdf5;fill-rule:nonzero;"/></g></svg>