<?xml version="1.0" encoding="UTF-8" standalone="no"?><!DOCTYPE svg PUBLIC "-//W3C//DTD SVG 1.1//EN" "http://www.w3.org/Graphics/SVG/1.1/DTD/svg11.dtd"><svg width="100%" height="100%" viewBox="0 0 627 396" version="1.1" xmlns="http://www.w3.org/2000/svg" xmlns:xlink="http://www.w3.org/1999/xlink" xml:space="preserve" style="fill-rule:evenodd;clip-rule:evenodd;stroke-linejoin:round;stroke-miterlimit:1.41421;"><g id="MW.-56.-S.-B"><path d="M0,387.21c0,4.705 3.819,8.524 8.524,8.524l-8.524,0l0,-8.524Zm625.316,8.524l-8.244,0c3.955,0 7.284,-2.699 8.244,-6.355l0,6.355Zm-625.316,-387.21l0,-8.524l625.316,0l0,6.355c-0.96,-3.655 -4.289,-6.355 -8.244,-6.355l-608.548,0c-4.705,0 -8.524,3.819 -8.524,8.524Z"/><path d="M205.78,395.734l0.106,-12.706l86.044,0.517l-0.432,12.189" style="fill:#414f79;"/><path d="M361.713,395.734l-0.182,-12.765l89.462,0.539l-0.274,12.226" style="fill:#414f79;"/><g><path d="M350.621,236.248l-4.521,-0.027l0.069,-11.51l-24.509,-0.147l-0.069,11.509l-4.884,-0.029l0.46,-76.452l4.884,0.029l-0.106,17.647l24.509,0.148l0.106,-17.648l4.521,0.028l-0.46,76.452Zm-4.423,-16.242l0.095,-15.747l-24.51,-0.147l-0.095,15.747l24.51,0.147Zm0.123,-20.456l0.095,-15.748l-24.51,-0.148l-0.094,15.748l24.509,0.148Z" style="fill:#c5d4dd;"/><path d="M350.08,326.126l-4.521,-0.028l0.075,-12.478l-24.509,-0.148l-0.075,12.479l-4.884,-0.03l0.218,-54.471l4.885,0.03l0.003,17.568l24.509,0.147l-0.003,-17.568l4.521,0.027l-0.219,54.472Zm-4.414,-17.808l0.083,-13.821l-24.509,-0.148l-0.083,13.822l24.509,0.147Z" style="fill:#c5d4dd;"/></g><g><path d="M435.288,124.215l-27.23,-0.164l27.445,-35.452l-0.215,35.616Zm-39.791,-0.239l-12.941,-0.078l31.101,-40.175l12.94,0.078l-31.1,40.175Zm-20.125,-2.135l0.18,-29.853l6.545,-8.455l22.824,0.138l-29.549,38.17Z" style="fill:#05c9f2;"/><path d="M444.321,75.929l-0.333,55.319l-77.172,-0.464l0.333,-55.319l77.172,0.464Zm-5.776,5.842l-65.069,-0.391l-0.272,45.162l65.07,0.392l0.271,-45.163Z" style="fill:#414f79;"/></g><g><g><path d="M625.996,76.538l-60.828,-0.366l-0.4,66.523l60.828,0.366l0.4,-66.523Zm-10.177,54.053c1.541,0.009 2.785,1.268 2.776,2.809c-0.009,1.541 -1.268,2.785 -2.809,2.776c-1.542,-0.009 -2.786,-1.268 -2.776,-2.809c0.009,-1.542 1.268,-2.786 2.809,-2.776Zm-12.7,-11.324c1.542,0.01 2.785,1.268 2.776,2.81c-0.009,1.541 -1.268,2.785 -2.809,2.776c-1.542,-0.01 -2.785,-1.269 -2.776,-2.81c0.009,-1.541 1.268,-2.785 2.809,-2.776Z" style="fill:#f6d74c;"/><path d="M615.836,119.251c1.541,0.009 2.785,1.268 2.776,2.809c-0.009,1.541 -1.268,2.785 -2.81,2.776c-1.541,-0.01 -2.785,-1.268 -2.775,-2.81c0.009,-1.541 1.268,-2.785 2.809,-2.775Z" style="fill:#7d7162;"/><path d="M603.102,130.608c1.542,0.009 2.786,1.268 2.776,2.809c-0.009,1.541 -1.268,2.785 -2.809,2.776c-1.541,-0.01 -2.785,-1.268 -2.776,-2.81c0.009,-1.541 1.268,-2.785 2.809,-2.775Z" style="fill:#7d7162;"/></g><path d="M593.456,118.134l-20.141,-0.121l-0.11,18.373l20.141,0.122l0.11,-18.374Z" style="fill:#91325e;"/><g><path d="M583.996,88.481c5.621,0.034 10.156,4.624 10.122,10.245c-0.033,5.62 -4.624,10.156 -10.244,10.122c-5.621,-0.034 -10.156,-4.624 -10.123,-10.245c0.034,-5.62 4.625,-10.156 10.245,-10.122Z" style="fill:#0dbdf4;"/><path d="M584.014,85.491c7.071,0.043 12.777,5.98 12.733,13.251c-0.044,7.27 -5.82,13.139 -12.891,13.096c-7.072,-0.043 -12.777,-5.98 -12.733,-13.25c0.044,-7.271 5.82,-13.139 12.891,-13.097Zm1.45,3.104l-0.037,6.226l-3.065,-0.018l0.037,-6.207c-1.826,0.277 -3.495,1.04 -4.869,2.153l1.353,1.257l-2.086,2.246l-1.333,-1.238c-0.875,1.307 -1.454,2.827 -1.645,4.467l5.861,0.079l-0.041,3.065l-5.714,-0.077c0.369,1.969 1.305,3.74 2.634,5.135l0.98,-1.061l2.252,2.079l-0.801,0.867c1.447,0.806 3.112,1.27 4.884,1.28c2.056,0.013 3.975,-0.587 5.582,-1.627l-1.07,-0.965l2.051,-2.277l1.327,1.195c1.045,-1.254 1.794,-2.764 2.14,-4.422l-5.573,-0.075l0.041,-3.065l5.7,0.077c-0.162,-1.701 -0.743,-3.282 -1.64,-4.637l-1.521,1.339l-2.025,-2.301l1.49,-1.311c-1.381,-1.13 -3.065,-1.905 -4.912,-2.184Z"/></g><g><path d="M613.667,88.66c5.62,0.033 10.156,4.624 10.122,10.244c-0.034,5.621 -4.624,10.157 -10.245,10.123c-5.62,-0.034 -10.156,-4.625 -10.122,-10.245c0.034,-5.621 4.625,-10.156 10.245,-10.122Z" style="fill:#0dbdf4;"/><path d="M613.685,85.67c7.071,0.042 12.777,5.98 12.733,13.25c-0.044,7.271 -5.82,13.139 -12.892,13.097c-7.071,-0.043 -12.776,-5.98 -12.732,-13.251c0.043,-7.27 5.82,-13.139 12.891,-13.096Zm1.45,3.104l-0.037,6.226l-3.065,-0.019l0.037,-6.206c-1.826,0.276 -3.495,1.039 -4.869,2.153l1.353,1.257l-2.086,2.245l-1.333,-1.238c-0.875,1.307 -1.455,2.828 -1.645,4.468l5.861,0.079l-0.041,3.064l-5.714,-0.076c0.369,1.968 1.305,3.739 2.634,5.135l0.979,-1.062l2.253,2.079l-0.801,0.867c1.447,0.807 3.111,1.27 4.883,1.281c2.057,0.012 3.975,-0.587 5.583,-1.628l-1.07,-0.964l2.051,-2.277l1.327,1.195c1.045,-1.255 1.794,-2.764 2.14,-4.423l-5.573,-0.074l0.041,-3.065l5.7,0.076c-0.162,-1.701 -0.743,-3.281 -1.64,-4.636l-1.522,1.339l-2.025,-2.301l1.491,-1.312c-1.382,-1.13 -3.065,-1.905 -4.912,-2.183Z"/></g></g></g></svg>