<?xml version="1.0" encoding="UTF-8" standalone="no"?><!DOCTYPE svg PUBLIC "-//W3C//DTD SVG 1.1//EN" "http://www.w3.org/Graphics/SVG/1.1/DTD/svg11.dtd"><svg width="100%" height="100%" viewBox="0 0 726 511" version="1.1" xmlns="http://www.w3.org/2000/svg" xmlns:xlink="http://www.w3.org/1999/xlink" xml:space="preserve" style="fill-rule:evenodd;clip-rule:evenodd;stroke-linejoin:round;stroke-miterlimit:1.41421;"><g id="MW.-56.-S.-F"><rect x="352.921" y="234.021" width="90.172" height="17.599" style="fill:#91325e;"/><rect x="352.921" y="344.695" width="203.514" height="17.599" style="fill:#91325e;"/><rect x="352.921" y="445.21" width="55.121" height="23.769" style="fill:#91325e;"/><g><path d="M292.264,234.021c5.309,0 9.619,4.31 9.619,9.619c0,5.308 -4.31,9.618 -9.619,9.618l-193.895,0l0,-19.237l193.895,0Zm-125.193,5.208c2.434,0 4.41,1.976 4.41,4.411c0,2.434 -1.976,4.41 -4.41,4.41c-2.434,0 -4.411,-1.976 -4.411,-4.41c0,-2.435 1.977,-4.411 4.411,-4.411Zm59.818,0c2.434,0 4.41,1.976 4.41,4.411c0,2.434 -1.976,4.41 -4.41,4.41c-2.434,0 -4.41,-1.976 -4.41,-4.41c0,-2.435 1.976,-4.411 4.41,-4.411Zm-120.268,0c2.434,0 4.41,1.976 4.41,4.411c0,2.434 -1.976,4.41 -4.41,4.41c-2.434,0 -4.41,-1.976 -4.41,-4.41c0,-2.435 1.976,-4.411 4.41,-4.411Zm185.643,0c2.434,0 4.411,1.976 4.411,4.411c0,2.434 -1.977,4.41 -4.411,4.41c-2.434,0 -4.41,-1.976 -4.41,-4.41c0,-2.435 1.976,-4.411 4.41,-4.411Z" style="fill:#e77138;"/><path d="M292.264,236.161c4.128,0 7.479,3.351 7.479,7.479c0,4.127 -3.351,7.478 -7.479,7.478c-4.127,0 -7.478,-3.351 -7.478,-7.478c0,-4.128 3.351,-7.479 7.478,-7.479Zm0,3.068c2.434,0 4.411,1.976 4.411,4.411c0,2.434 -1.977,4.41 -4.411,4.41c-2.434,0 -4.41,-1.976 -4.41,-4.41c0,-2.435 1.976,-4.411 4.41,-4.411Z" style="fill:#510f27;"/></g><g><path d="M292.264,344.576c5.309,0 9.619,4.31 9.619,9.618c0,5.309 -4.31,9.619 -9.619,9.619l-193.895,0l0,-19.237l193.895,0Zm-125.193,5.208c2.434,0 4.41,1.976 4.41,4.41c0,2.435 -1.976,4.411 -4.41,4.411c-2.434,0 -4.411,-1.976 -4.411,-4.411c0,-2.434 1.977,-4.41 4.411,-4.41Zm59.818,0c2.434,0 4.41,1.976 4.41,4.41c0,2.435 -1.976,4.411 -4.41,4.411c-2.434,0 -4.41,-1.976 -4.41,-4.411c0,-2.434 1.976,-4.41 4.41,-4.41Zm-120.268,0c2.434,0 4.41,1.976 4.41,4.41c0,2.435 -1.976,4.411 -4.41,4.411c-2.434,0 -4.41,-1.976 -4.41,-4.411c0,-2.434 1.976,-4.41 4.41,-4.41Zm185.643,0c2.434,0 4.411,1.976 4.411,4.41c0,2.435 -1.977,4.411 -4.411,4.411c-2.434,0 -4.41,-1.976 -4.41,-4.411c0,-2.434 1.976,-4.41 4.41,-4.41Z" style="fill:#e77138;"/><path d="M292.264,346.716c4.128,0 7.479,3.351 7.479,7.478c0,4.128 -3.351,7.479 -7.479,7.479c-4.127,0 -7.478,-3.351 -7.478,-7.479c0,-4.127 3.351,-7.478 7.478,-7.478Zm0,3.068c2.434,0 4.411,1.976 4.411,4.41c0,2.435 -1.977,4.411 -4.411,4.411c-2.434,0 -4.41,-1.976 -4.41,-4.411c0,-2.434 1.976,-4.41 4.41,-4.41Z" style="fill:#510f27;"/></g><g><path d="M267.982,180.829c5.309,0 9.619,4.31 9.619,9.619c0,5.309 -4.31,9.619 -9.619,9.619l-169.613,0l0,-19.238l169.613,0Zm-101.227,5.209c2.434,0 4.41,1.976 4.41,4.41c0,2.434 -1.976,4.41 -4.41,4.41c-2.434,0 -4.41,-1.976 -4.41,-4.41c0,-2.434 1.976,-4.41 4.41,-4.41Zm59.818,0c2.434,0 4.411,1.976 4.411,4.41c0,2.434 -1.977,4.41 -4.411,4.41c-2.434,0 -4.41,-1.976 -4.41,-4.41c0,-2.434 1.976,-4.41 4.41,-4.41Zm-120.268,0c2.434,0 4.41,1.976 4.41,4.41c0,2.434 -1.976,4.41 -4.41,4.41c-2.434,0 -4.41,-1.976 -4.41,-4.41c0,-2.434 1.976,-4.41 4.41,-4.41Zm161.677,0c2.435,0 4.411,1.976 4.411,4.41c0,2.434 -1.976,4.41 -4.411,4.41c-2.434,0 -4.41,-1.976 -4.41,-4.41c0,-2.434 1.976,-4.41 4.41,-4.41Z" style="fill:#e77138;"/><path d="M267.982,182.969c4.128,0 7.479,3.351 7.479,7.479c0,4.127 -3.351,7.478 -7.479,7.478c-4.127,0 -7.478,-3.351 -7.478,-7.478c0,-4.128 3.351,-7.479 7.478,-7.479Zm0,3.069c2.435,0 4.411,1.976 4.411,4.41c0,2.434 -1.976,4.41 -4.411,4.41c-2.434,0 -4.41,-1.976 -4.41,-4.41c0,-2.434 1.976,-4.41 4.41,-4.41Z" style="fill:#510f27;"/></g><g><path d="M496.324,397.767c-5.309,0 -9.619,4.31 -9.619,9.619c0,5.309 4.31,9.619 9.619,9.619l126.516,0l0,-19.238l-126.516,0Zm62.854,5.329c-2.434,0 -4.41,1.977 -4.41,4.411c0,2.434 1.976,4.41 4.41,4.41c2.434,0 4.41,-1.976 4.41,-4.41c0,-2.434 -1.976,-4.411 -4.41,-4.411Zm-62.854,-0.12c-2.434,0 -4.41,1.976 -4.41,4.41c0,2.434 1.976,4.41 4.41,4.41c2.434,0 4.41,-1.976 4.41,-4.41c0,-2.434 -1.976,-4.41 -4.41,-4.41Z" style="fill:#e77138;"/><path d="M496.324,399.908c-4.128,0 -7.479,3.351 -7.479,7.478c0,4.128 3.351,7.479 7.479,7.479c4.127,0 7.478,-3.351 7.478,-7.479c0,-4.127 -3.351,-7.478 -7.478,-7.478Zm0,3.068c-2.434,0 -4.41,1.976 -4.41,4.41c0,2.434 1.976,4.41 4.41,4.41c2.434,0 4.41,-1.976 4.41,-4.41c0,-2.434 -1.976,-4.41 -4.41,-4.41Z" style="fill:#510f27;"/></g><g><path d="M267.982,290.267c5.309,0 9.619,4.31 9.619,9.619c0,5.309 -4.31,9.619 -9.619,9.619l-169.613,0l0,-19.238l169.613,0Zm-101.227,5.209c2.434,0 4.41,1.976 4.41,4.41c0,2.434 -1.976,4.41 -4.41,4.41c-2.434,0 -4.41,-1.976 -4.41,-4.41c0,-2.434 1.976,-4.41 4.41,-4.41Zm59.818,0c2.434,0 4.411,1.976 4.411,4.41c0,2.434 -1.977,4.41 -4.411,4.41c-2.434,0 -4.41,-1.976 -4.41,-4.41c0,-2.434 1.976,-4.41 4.41,-4.41Zm-120.268,0c2.434,0 4.41,1.976 4.41,4.41c0,2.434 -1.976,4.41 -4.41,4.41c-2.434,0 -4.41,-1.976 -4.41,-4.41c0,-2.434 1.976,-4.41 4.41,-4.41Zm161.677,0c2.435,0 4.411,1.976 4.411,4.41c0,2.434 -1.976,4.41 -4.411,4.41c-2.434,0 -4.41,-1.976 -4.41,-4.41c0,-2.434 1.976,-4.41 4.41,-4.41Z" style="fill:#e77138;"/><path d="M267.982,292.407c4.128,0 7.479,3.351 7.479,7.479c0,4.127 -3.351,7.478 -7.479,7.478c-4.127,0 -7.478,-3.351 -7.478,-7.478c0,-4.128 3.351,-7.479 7.478,-7.479Zm0,3.069c2.435,0 4.411,1.976 4.411,4.41c0,2.434 -1.976,4.41 -4.411,4.41c-2.434,0 -4.41,-1.976 -4.41,-4.41c0,-2.434 1.976,-4.41 4.41,-4.41Z" style="fill:#510f27;"/></g><g><path d="M267.982,397.767c5.309,0 9.619,4.31 9.619,9.619c0,5.309 -4.31,9.619 -9.619,9.619l-169.613,0l0,-19.238l169.613,0Zm-101.227,5.209c2.434,0 4.41,1.976 4.41,4.41c0,2.434 -1.976,4.41 -4.41,4.41c-2.434,0 -4.41,-1.976 -4.41,-4.41c0,-2.434 1.976,-4.41 4.41,-4.41Zm59.818,0c2.434,0 4.411,1.976 4.411,4.41c0,2.434 -1.977,4.41 -4.411,4.41c-2.434,0 -4.41,-1.976 -4.41,-4.41c0,-2.434 1.976,-4.41 4.41,-4.41Zm-120.268,0c2.434,0 4.41,1.976 4.41,4.41c0,2.434 -1.976,4.41 -4.41,4.41c-2.434,0 -4.41,-1.976 -4.41,-4.41c0,-2.434 1.976,-4.41 4.41,-4.41Zm161.677,0c2.435,0 4.411,1.976 4.411,4.41c0,2.434 -1.976,4.41 -4.411,4.41c-2.434,0 -4.41,-1.976 -4.41,-4.41c0,-2.434 1.976,-4.41 4.41,-4.41Z" style="fill:#e77138;"/><path d="M267.982,399.908c4.128,0 7.479,3.351 7.479,7.478c0,4.128 -3.351,7.479 -7.479,7.479c-4.127,0 -7.478,-3.351 -7.478,-7.479c0,-4.127 3.351,-7.478 7.478,-7.478Zm0,3.068c2.435,0 4.411,1.976 4.411,4.41c0,2.434 -1.976,4.41 -4.411,4.41c-2.434,0 -4.41,-1.976 -4.41,-4.41c0,-2.434 1.976,-4.41 4.41,-4.41Z" style="fill:#510f27;"/></g><g><path d="M680.056,267.173l-21.912,0l0,19.71l21.912,0l0,52.799l-30.377,0l0,-81.151l30.377,0l0,8.642Zm-19.059,36.356c2.115,0 3.831,1.717 3.831,3.832c0,2.114 -1.716,3.831 -3.831,3.831c-2.115,0 -3.832,-1.717 -3.832,-3.831c0,-2.115 1.717,-3.832 3.832,-3.832Z" style="fill:#f0293b;"/><path d="M662.295,270.264l-0.089,11.742l4.607,0.092l11.103,-12.04l-15.621,0.206Z" style="fill:#91325e;fill-opacity:0.501961;"/><path d="M671.051,282.098l9.005,-11.446l0,11.446l-9.005,0Z" style="fill:#91325e;fill-opacity:0.501961;"/></g><path d="M680.056,360.571l-43.044,0l0,55.503l43.044,0m-114.352,52.905l-0.335,-30.978l11.688,-19.816l47.116,-0.573l0.189,-60.097l-45.047,-0.083l0.002,-9.75l100.739,0l0,121.297l-114.352,0Zm98.905,-31.649c2.485,0 4.503,2.017 4.503,4.502c0,2.485 -2.018,4.503 -4.503,4.503c-2.485,0 -4.502,-2.018 -4.502,-4.503c0,-2.485 2.017,-4.502 4.502,-4.502Zm-33.201,5.471c1.987,-1.846 3.23,-4.481 3.23,-7.404c0,-5.58 -4.53,-10.11 -10.11,-10.11c-5.579,0 -10.109,4.53 -10.109,10.11c0,2.923 1.243,5.558 3.229,7.404l6.296,0l-7.956,-9.016l1.988,-1.755l9.505,10.771l3.927,0Zm-28.603,0c1.987,-1.846 3.23,-4.481 3.23,-7.404c0,-5.58 -4.53,-10.11 -10.11,-10.11c-5.579,0 -10.109,4.53 -10.109,10.11c0,2.923 1.243,5.558 3.229,7.404l5.219,0l4.547,-11.522l2.467,0.974l-4.163,10.548l5.69,0Zm61.804,-20.002c2.485,0 4.503,2.018 4.503,4.503c0,2.485 -2.018,4.502 -4.503,4.502c-2.485,0 -4.502,-2.017 -4.502,-4.502c0,-2.485 2.017,-4.503 4.502,-4.503Z" style="fill:#e77138;"/><g><g><path d="M646.199,374.023l15.572,0l-6.122,12.187l-9.45,0l0,-12.187Z" style="fill:#91325e;"/><path d="M679.056,386.21l-16.978,0l6.121,-12.187l10.857,0l0,12.187Z" style="fill:#91325e;"/><circle cx="650.102" cy="401.534" r="9.498" style="fill:#f0293b;"/><path d="M680.056,407.374c-1.699,2.232 -4.402,3.657 -7.435,3.657c-5.242,0 -9.498,-4.256 -9.498,-9.497c0,-5.242 4.256,-9.498 9.498,-9.498c3.033,0 5.736,1.425 7.435,3.657l0,11.681Z" style="fill:#f0293b;"/><path d="M649.406,391.036c5.364,0 9.718,4.256 9.718,9.498c0,5.241 -4.354,9.497 -9.718,9.497c-5.363,0 -9.718,-4.256 -9.718,-9.497c0,-5.242 4.355,-9.498 9.718,-9.498Zm30.65,24.038l-44.044,0l0,-55.503l44.044,0l0,12.584l-35.505,0l0,15.581l35.505,0l0,6.957c-1.739,-2.232 -4.504,-3.657 -7.608,-3.657c-5.364,0 -9.718,4.256 -9.718,9.498c0,5.241 4.354,9.497 9.718,9.497c3.104,0 5.869,-1.425 7.608,-3.657l0,8.7Z" style="fill:#91325e;fill-opacity:0.501961;"/></g><g><path d="M624.528,422.528c7.103,0 12.869,5.766 12.869,12.869c0,7.102 -5.766,12.868 -12.869,12.868c-7.102,0 -12.868,-5.766 -12.868,-12.868c0,-7.103 5.766,-12.869 12.868,-12.869Zm6.88,20.273c1.987,-1.846 3.23,-4.481 3.23,-7.404c0,-5.58 -4.53,-10.11 -10.11,-10.11c-5.579,0 -10.109,4.53 -10.109,10.11c0,2.923 1.243,5.558 3.229,7.404l6.296,0l-7.956,-9.016l1.988,-1.755l9.505,10.771l3.927,0Z"/><path d="M596.019,422.528c7.102,0 12.868,5.766 12.868,12.869c0,7.102 -5.766,12.868 -12.868,12.868c-7.103,0 -12.869,-5.766 -12.869,-12.868c0,-7.103 5.766,-12.869 12.869,-12.869Zm6.786,20.273c1.987,-1.846 3.23,-4.481 3.23,-7.404c0,-5.58 -4.53,-10.11 -10.11,-10.11c-5.579,0 -10.109,4.53 -10.109,10.11c0,2.923 1.243,5.558 3.229,7.404l5.219,0l4.547,-11.522l2.467,0.974l-4.163,10.548l5.69,0Z"/><circle cx="650.826" cy="427.302" r="4.503" style="fill:#f0293b;"/><circle cx="650.826" cy="441.832" r="4.503" style="fill:#91325e;"/><circle cx="650.826" cy="456.363" r="4.503" style="fill:#91325e;"/><circle cx="664.609" cy="456.363" r="4.503" style="fill:#f0293b;"/></g></g><path d="M680.056,468.979l-9.558,0c5.275,-0.001 9.558,-4.283 9.558,-9.559l0,9.559Zm0,-395.734l0,9.559c0,-5.276 -4.282,-9.559 -9.558,-9.559l-606.478,0c-5.277,0 -9.559,4.283 -9.559,9.559l0,376.616c0,5.275 4.282,9.558 9.559,9.559l-9.559,0l0,-395.734l625.595,0Z"/><path d="M54.461,115.039l73.541,1.264l-0.118,11.766l-29.013,8.523l5.357,-8.691l-49.767,-0.258l0,-12.604" style="fill:#91325e;"/><path d="M95.553,419.364l124.022,0l0,12.83l22.966,-6.108l0,-6.722l13.592,0l0,49.615l-13.592,0l0,-4.837l-22.966,-8.12l0,12.957l-13.592,0l0,-39.618l-110.43,0l0,6.993l-41.092,0l0,-38.587l23.23,12.557l0,-62.205l-23.23,15.574l0,-18.998l23.23,-14.226l0.018,-4.98l-23.248,-14.989l0,-17.791l23.248,15.63l-0.018,-74.318l-23.23,10.935l0,-15.247l23.248,-11.106l0,-9.238l-23.248,-14.236l0,-14.3l23.23,12.215l0,-34.696l-23.23,-0.193l0,-28.163l41.092,0l0,289.372Zm154.593,43.586c-0.997,1.343 -2.897,1.623 -4.24,0.625c-1.342,-0.997 -1.622,-2.897 -0.625,-4.24c0.998,-1.343 2.898,-1.623 4.24,-0.625c1.343,0.997 1.623,2.897 0.625,4.24Zm-34.865,-9.636c-1.258,1.343 -3.37,1.411 -4.712,0.153c-1.343,-1.258 -1.411,-3.37 -0.153,-4.712c1.258,-1.343 3.37,-1.411 4.712,-0.153c1.343,1.258 1.411,3.37 0.153,4.712Zm4.294,-10.775l0,2.879l22.966,8.12l0,-17.107l-22.966,6.108Zm-4.294,-0.572c-1.258,1.342 -3.37,1.411 -4.712,0.153c-1.343,-1.258 -1.411,-3.37 -0.153,-4.713c1.258,-1.342 3.37,-1.411 4.712,-0.153c1.343,1.259 1.411,3.37 0.153,4.713Zm35.168,-9.488c-1.258,1.343 -3.369,1.412 -4.712,0.153c-1.343,-1.258 -1.411,-3.369 -0.153,-4.712c1.258,-1.343 3.37,-1.411 4.713,-0.153c1.342,1.258 1.411,3.37 0.152,4.712Zm-164.574,-10.003c2.308,0 4.183,1.874 4.183,4.183c0,2.309 -1.875,4.183 -4.183,4.183c-2.309,0 -4.184,-1.874 -4.184,-4.183c0,-2.309 1.875,-4.183 4.184,-4.183Zm0,-90.444c2.308,0 4.183,1.874 4.183,4.183c0,2.309 -1.875,4.183 -4.183,4.183c-2.309,0 -4.184,-1.874 -4.184,-4.183c0,-2.309 1.875,-4.183 4.184,-4.183Zm0,-15.108c2.308,0 4.183,1.874 4.183,4.183c0,2.309 -1.875,4.183 -4.183,4.183c-2.309,0 -4.184,-1.874 -4.184,-4.183c0,-2.309 1.875,-4.183 4.184,-4.183Zm0,-98.255c2.308,0 4.183,1.875 4.183,4.184c0,2.309 -1.875,4.183 -4.183,4.183c-2.309,0 -4.184,-1.874 -4.184,-4.183c0,-2.309 1.875,-4.184 4.184,-4.184Zm0,-15.108c2.308,0 4.183,1.875 4.183,4.184c0,2.308 -1.875,4.183 -4.183,4.183c-2.309,0 -4.184,-1.875 -4.184,-4.183c0,-2.309 1.875,-4.184 4.184,-4.184Zm2.85,-50.667c-1.108,1.148 -2.941,1.18 -4.089,0.072c-1.148,-1.109 -1.181,-2.941 -0.072,-4.09c1.109,-1.148 2.941,-1.18 4.089,-0.072c1.149,1.109 1.181,2.941 0.072,4.09Zm0,-14.974c-1.108,1.149 -2.941,1.181 -4.089,0.072c-1.148,-1.108 -1.181,-2.941 -0.072,-4.089c1.109,-1.148 2.941,-1.181 4.089,-0.072c1.149,1.109 1.181,2.941 0.072,4.089Z" style="fill:#91325e;"/><path d="M54.461,439.527l44.716,0.44l3.189,15.489l-0.043,13.523l-47.862,0l0,-29.452Z"/></g></svg>