<?xml version="1.0" encoding="UTF-8" standalone="no"?><!DOCTYPE svg PUBLIC "-//W3C//DTD SVG 1.1//EN" "http://www.w3.org/Graphics/SVG/1.1/DTD/svg11.dtd"><svg width="100%" height="100%" viewBox="0 0 626 396" version="1.1" xmlns="http://www.w3.org/2000/svg" xmlns:xlink="http://www.w3.org/1999/xlink" xml:space="preserve" style="fill-rule:evenodd;clip-rule:evenodd;stroke-linejoin:round;stroke-miterlimit:1.41421;"><g id="MW.-56.-S.-F"><rect x="298.46" y="160.776" width="90.172" height="17.599" style="fill:#91325e;"/><rect x="298.46" y="271.45" width="203.514" height="17.599" style="fill:#91325e;"/><rect x="298.46" y="371.965" width="55.121" height="23.769" style="fill:#91325e;"/><path d="M481.892,352.602l-6.988,0l-0.169,43.132l-13.18,0l0.169,-43.132l-17.675,0l0.154,-7.807l37.721,0.276l-0.032,7.531Z" style="fill:#91325e;"/><g><path d="M237.804,160.776c5.308,0 9.618,4.31 9.618,9.619c0,5.309 -4.31,9.619 -9.618,9.619l-193.895,0l0,-19.238l193.895,0Zm-125.194,5.209c2.434,0 4.41,1.976 4.41,4.41c0,2.434 -1.976,4.41 -4.41,4.41c-2.434,0 -4.41,-1.976 -4.41,-4.41c0,-2.434 1.976,-4.41 4.41,-4.41Zm59.818,0c2.434,0 4.411,1.976 4.411,4.41c0,2.434 -1.977,4.41 -4.411,4.41c-2.434,0 -4.41,-1.976 -4.41,-4.41c0,-2.434 1.976,-4.41 4.41,-4.41Zm-120.268,0c2.434,0 4.41,1.976 4.41,4.41c0,2.434 -1.976,4.41 -4.41,4.41c-2.434,0 -4.41,-1.976 -4.41,-4.41c0,-2.434 1.976,-4.41 4.41,-4.41Zm185.644,0c2.434,0 4.41,1.976 4.41,4.41c0,2.434 -1.976,4.41 -4.41,4.41c-2.435,0 -4.411,-1.976 -4.411,-4.41c0,-2.434 1.976,-4.41 4.411,-4.41Z" style="fill:#e77138;"/><path d="M237.804,162.916c4.127,0 7.478,3.351 7.478,7.479c0,4.127 -3.351,7.478 -7.478,7.478c-4.128,0 -7.479,-3.351 -7.479,-7.478c0,-4.128 3.351,-7.479 7.479,-7.479Zm0,3.069c2.434,0 4.41,1.976 4.41,4.41c0,2.434 -1.976,4.41 -4.41,4.41c-2.435,0 -4.411,-1.976 -4.411,-4.41c0,-2.434 1.976,-4.41 4.411,-4.41Z" style="fill:#510f27;"/></g><g><path d="M237.804,271.331c5.308,0 9.618,4.31 9.618,9.619c0,5.308 -4.31,9.618 -9.618,9.618l-193.895,0l0,-19.237l193.895,0Zm-125.194,5.208c2.434,0 4.41,1.977 4.41,4.411c0,2.434 -1.976,4.41 -4.41,4.41c-2.434,0 -4.41,-1.976 -4.41,-4.41c0,-2.434 1.976,-4.411 4.41,-4.411Zm59.818,0c2.434,0 4.411,1.977 4.411,4.411c0,2.434 -1.977,4.41 -4.411,4.41c-2.434,0 -4.41,-1.976 -4.41,-4.41c0,-2.434 1.976,-4.411 4.41,-4.411Zm-120.268,0c2.434,0 4.41,1.977 4.41,4.411c0,2.434 -1.976,4.41 -4.41,4.41c-2.434,0 -4.41,-1.976 -4.41,-4.41c0,-2.434 1.976,-4.411 4.41,-4.411Zm185.644,0c2.434,0 4.41,1.977 4.41,4.411c0,2.434 -1.976,4.41 -4.41,4.41c-2.435,0 -4.411,-1.976 -4.411,-4.41c0,-2.434 1.976,-4.411 4.411,-4.411Z" style="fill:#e77138;"/><path d="M237.804,273.471c4.127,0 7.478,3.351 7.478,7.479c0,4.127 -3.351,7.478 -7.478,7.478c-4.128,0 -7.479,-3.351 -7.479,-7.478c0,-4.128 3.351,-7.479 7.479,-7.479Zm0,3.068c2.434,0 4.41,1.977 4.41,4.411c0,2.434 -1.976,4.41 -4.41,4.41c-2.435,0 -4.411,-1.976 -4.411,-4.41c0,-2.434 1.976,-4.411 4.411,-4.411Z" style="fill:#510f27;"/></g><g><path d="M213.522,107.584c5.308,0 9.618,4.31 9.618,9.619c0,5.309 -4.31,9.619 -9.618,9.619l-169.613,0l0,-19.238l169.613,0Zm-101.228,5.209c2.434,0 4.411,1.976 4.411,4.41c0,2.434 -1.977,4.41 -4.411,4.41c-2.434,0 -4.41,-1.976 -4.41,-4.41c0,-2.434 1.976,-4.41 4.41,-4.41Zm59.819,0c2.434,0 4.41,1.976 4.41,4.41c0,2.434 -1.976,4.41 -4.41,4.41c-2.435,0 -4.411,-1.976 -4.411,-4.41c0,-2.434 1.976,-4.41 4.411,-4.41Zm-120.269,0c2.434,0 4.411,1.976 4.411,4.41c0,2.434 -1.977,4.41 -4.411,4.41c-2.434,0 -4.41,-1.976 -4.41,-4.41c0,-2.434 1.976,-4.41 4.41,-4.41Zm161.678,0c2.434,0 4.41,1.976 4.41,4.41c0,2.434 -1.976,4.41 -4.41,4.41c-2.434,0 -4.411,-1.976 -4.411,-4.41c0,-2.434 1.977,-4.41 4.411,-4.41Z" style="fill:#e77138;"/><path d="M213.522,109.725c4.127,0 7.478,3.351 7.478,7.478c0,4.128 -3.351,7.479 -7.478,7.479c-4.128,0 -7.479,-3.351 -7.479,-7.479c0,-4.127 3.351,-7.478 7.479,-7.478Zm0,3.068c2.434,0 4.41,1.976 4.41,4.41c0,2.434 -1.976,4.41 -4.41,4.41c-2.434,0 -4.411,-1.976 -4.411,-4.41c0,-2.434 1.977,-4.41 4.411,-4.41Z" style="fill:#510f27;"/></g><g><path d="M441.863,324.523c-5.309,0 -9.619,4.31 -9.619,9.618c0,5.309 4.31,9.619 9.619,9.619l126.516,0l0,-19.237l-126.516,0Zm62.854,5.329c-2.434,0 -4.41,1.976 -4.41,4.41c0,2.434 1.976,4.41 4.41,4.41c2.435,0 4.411,-1.976 4.411,-4.41c0,-2.434 -1.976,-4.41 -4.411,-4.41Zm-62.854,-0.121c-2.434,0 -4.41,1.976 -4.41,4.41c0,2.435 1.976,4.411 4.41,4.411c2.434,0 4.41,-1.976 4.41,-4.411c0,-2.434 -1.976,-4.41 -4.41,-4.41Z" style="fill:#e77138;"/><path d="M441.863,326.663c-4.127,0 -7.478,3.351 -7.478,7.478c0,4.128 3.351,7.479 7.478,7.479c4.128,0 7.479,-3.351 7.479,-7.479c0,-4.127 -3.351,-7.478 -7.479,-7.478Zm0,3.068c-2.434,0 -4.41,1.976 -4.41,4.41c0,2.435 1.976,4.411 4.41,4.411c2.434,0 4.41,-1.976 4.41,-4.411c0,-2.434 -1.976,-4.41 -4.41,-4.41Z" style="fill:#510f27;"/></g><g><path d="M213.522,217.022c5.308,0 9.618,4.31 9.618,9.619c0,5.309 -4.31,9.619 -9.618,9.619l-169.613,0l0,-19.238l169.613,0Zm-101.228,5.209c2.434,0 4.411,1.976 4.411,4.41c0,2.434 -1.977,4.41 -4.411,4.41c-2.434,0 -4.41,-1.976 -4.41,-4.41c0,-2.434 1.976,-4.41 4.41,-4.41Zm59.819,0c2.434,0 4.41,1.976 4.41,4.41c0,2.434 -1.976,4.41 -4.41,4.41c-2.435,0 -4.411,-1.976 -4.411,-4.41c0,-2.434 1.976,-4.41 4.411,-4.41Zm-120.269,0c2.434,0 4.411,1.976 4.411,4.41c0,2.434 -1.977,4.41 -4.411,4.41c-2.434,0 -4.41,-1.976 -4.41,-4.41c0,-2.434 1.976,-4.41 4.41,-4.41Zm161.678,0c2.434,0 4.41,1.976 4.41,4.41c0,2.434 -1.976,4.41 -4.41,4.41c-2.434,0 -4.411,-1.976 -4.411,-4.41c0,-2.434 1.977,-4.41 4.411,-4.41Z" style="fill:#e77138;"/><path d="M213.522,219.163c4.127,0 7.478,3.351 7.478,7.478c0,4.128 -3.351,7.479 -7.478,7.479c-4.128,0 -7.479,-3.351 -7.479,-7.479c0,-4.127 3.351,-7.478 7.479,-7.478Zm0,3.068c2.434,0 4.41,1.976 4.41,4.41c0,2.434 -1.976,4.41 -4.41,4.41c-2.434,0 -4.411,-1.976 -4.411,-4.41c0,-2.434 1.977,-4.41 4.411,-4.41Z" style="fill:#510f27;"/></g><g><path d="M213.522,324.523c5.308,0 9.618,4.31 9.618,9.618c0,5.309 -4.31,9.619 -9.618,9.619l-169.613,0l0,-19.237l169.613,0Zm-101.228,5.208c2.434,0 4.411,1.976 4.411,4.41c0,2.435 -1.977,4.411 -4.411,4.411c-2.434,0 -4.41,-1.976 -4.41,-4.411c0,-2.434 1.976,-4.41 4.41,-4.41Zm59.819,0c2.434,0 4.41,1.976 4.41,4.41c0,2.435 -1.976,4.411 -4.41,4.411c-2.435,0 -4.411,-1.976 -4.411,-4.411c0,-2.434 1.976,-4.41 4.411,-4.41Zm-120.269,0c2.434,0 4.411,1.976 4.411,4.41c0,2.435 -1.977,4.411 -4.411,4.411c-2.434,0 -4.41,-1.976 -4.41,-4.411c0,-2.434 1.976,-4.41 4.41,-4.41Zm161.678,0c2.434,0 4.41,1.976 4.41,4.41c0,2.435 -1.976,4.411 -4.41,4.411c-2.434,0 -4.411,-1.976 -4.411,-4.411c0,-2.434 1.977,-4.41 4.411,-4.41Z" style="fill:#e77138;"/><path d="M213.522,326.663c4.127,0 7.478,3.351 7.478,7.478c0,4.128 -3.351,7.479 -7.478,7.479c-4.128,0 -7.479,-3.351 -7.479,-7.479c0,-4.127 3.351,-7.478 7.479,-7.478Zm0,3.068c2.434,0 4.41,1.976 4.41,4.41c0,2.435 -1.976,4.411 -4.41,4.411c-2.434,0 -4.411,-1.976 -4.411,-4.411c0,-2.434 1.977,-4.41 4.411,-4.41Z" style="fill:#510f27;"/></g><g><path d="M625.596,193.928l-21.912,0l0,19.71l21.912,0l0,52.8l-30.378,0l0,-81.152l30.378,0l0,8.642Zm-19.06,36.356c2.115,0 3.832,1.717 3.832,3.832c0,2.115 -1.717,3.832 -3.832,3.832c-2.115,0 -3.832,-1.717 -3.832,-3.832c0,-2.115 1.717,-3.832 3.832,-3.832Z" style="fill:#f0293b;"/><path d="M607.834,197.019l-0.088,11.743l4.606,0.091l11.103,-12.04l-15.621,0.206Z" style="fill:#91325e;fill-opacity:0.501961;"/><path d="M616.591,208.853l9.005,-11.446l0,11.446l-9.005,0Z" style="fill:#91325e;fill-opacity:0.501961;"/></g><path d="M625.596,287.327l-43.044,0l0,55.502l43.044,0m-114.353,52.905l-0.334,-30.978l11.687,-19.816l47.116,-0.573l0.189,-60.097l-45.046,-0.082l0.001,-9.751l100.74,0l0,121.297l-114.353,0Zm98.906,-31.649c2.485,0 4.502,2.018 4.502,4.503c0,2.485 -2.017,4.502 -4.502,4.502c-2.485,0 -4.503,-2.017 -4.503,-4.502c0,-2.485 2.018,-4.503 4.503,-4.503Zm-33.201,5.472c1.986,-1.847 3.229,-4.482 3.229,-7.405c0,-5.58 -4.53,-10.109 -10.109,-10.109c-5.58,0 -10.11,4.529 -10.11,10.109c0,2.923 1.243,5.558 3.23,7.405l6.295,0l-7.956,-9.017l1.988,-1.755l9.505,10.772l3.928,0Zm-28.603,0c1.986,-1.847 3.229,-4.482 3.229,-7.405c0,-5.58 -4.53,-10.109 -10.109,-10.109c-5.58,0 -10.11,4.529 -10.11,10.109c0,2.923 1.243,5.558 3.23,7.405l5.218,0l4.547,-11.522l2.467,0.973l-4.163,10.549l5.691,0Zm61.804,-20.003c2.485,0 4.502,2.018 4.502,4.503c0,2.485 -2.017,4.503 -4.502,4.503c-2.485,0 -4.503,-2.018 -4.503,-4.503c0,-2.485 2.018,-4.503 4.503,-4.503Z" style="fill:#e77138;"/><g><g><path d="M591.739,300.778l15.571,0l-6.122,12.187l-9.449,0l0,-12.187Z" style="fill:#91325e;"/><path d="M624.596,312.965l-16.979,0l6.122,-12.187l10.857,0l0,12.187Z" style="fill:#91325e;"/><circle cx="595.641" cy="328.289" r="9.498" style="fill:#f0293b;"/><path d="M625.596,334.129c-1.7,2.233 -4.403,3.657 -7.436,3.657c-5.242,0 -9.497,-4.255 -9.497,-9.497c0,-5.242 4.255,-9.498 9.497,-9.498c3.033,0 5.736,1.425 7.436,3.657l0,11.681Z" style="fill:#f0293b;"/><path d="M594.945,317.791c5.364,0 9.719,4.256 9.719,9.498c0,5.242 -4.355,9.497 -9.719,9.497c-5.363,0 -9.718,-4.255 -9.718,-9.497c0,-5.242 4.355,-9.498 9.718,-9.498Zm30.651,24.038l-44.044,0l0,-55.502l44.044,0l0,12.583l-35.506,0l0,15.581l35.506,0l0,6.957c-1.74,-2.232 -4.505,-3.657 -7.609,-3.657c-5.363,0 -9.718,4.256 -9.718,9.498c0,5.242 4.355,9.497 9.718,9.497c3.104,0 5.869,-1.424 7.609,-3.657l0,8.7Z" style="fill:#91325e;fill-opacity:0.501961;"/></g><g><path d="M570.068,349.283c7.102,0 12.868,5.767 12.868,12.869c0,7.103 -5.766,12.869 -12.868,12.869c-7.103,0 -12.869,-5.766 -12.869,-12.869c0,-7.102 5.766,-12.869 12.869,-12.869Zm6.88,20.274c1.986,-1.847 3.229,-4.482 3.229,-7.405c0,-5.58 -4.53,-10.109 -10.109,-10.109c-5.58,0 -10.11,4.529 -10.11,10.109c0,2.923 1.243,5.558 3.23,7.405l6.295,0l-7.956,-9.017l1.988,-1.755l9.505,10.772l3.928,0Z"/><path d="M541.558,349.283c7.102,0 12.869,5.767 12.869,12.869c0,7.103 -5.767,12.869 -12.869,12.869c-7.103,0 -12.869,-5.766 -12.869,-12.869c0,-7.102 5.766,-12.869 12.869,-12.869Zm6.787,20.274c1.986,-1.847 3.229,-4.482 3.229,-7.405c0,-5.58 -4.53,-10.109 -10.109,-10.109c-5.58,0 -10.11,4.529 -10.11,10.109c0,2.923 1.243,5.558 3.23,7.405l5.218,0l4.547,-11.522l2.467,0.973l-4.163,10.549l5.691,0Z"/><circle cx="596.365" cy="354.057" r="4.503" style="fill:#f0293b;"/><circle cx="596.365" cy="368.588" r="4.503" style="fill:#91325e;"/><circle cx="596.365" cy="383.118" r="4.503" style="fill:#91325e;"/><circle cx="610.149" cy="383.118" r="4.503" style="fill:#f0293b;"/></g></g><path d="M625.596,395.734l-9.559,0c5.276,0 9.558,-4.283 9.559,-9.559l0,9.559Zm0,-395.734l0,9.559c0,-5.275 -4.283,-9.558 -9.559,-9.559l-606.478,0c-5.276,0.001 -9.559,4.284 -9.559,9.559l0,376.616c0,5.276 4.283,9.559 9.559,9.559l-9.559,0l0,-395.734l625.596,0Z"/><path d="M0,41.795l73.542,1.263l-0.119,11.766l-29.013,8.523l5.357,-8.69l-49.767,-0.259l0,-12.603" style="fill:#91325e;"/><path d="M41.092,346.119l124.022,0l0,12.83l22.966,-6.108l0,-6.722l13.593,0l0,49.615l-13.593,0l0,-4.837l-22.966,-8.119l0,12.956l-13.592,0l0,-39.617l-110.43,0l0,6.992l-41.092,0l0,-38.586l23.231,12.556l0,-62.205l-23.231,15.575l0,-18.999l23.231,-14.226l0.017,-4.98l-23.248,-14.989l0,-17.79l23.248,15.629l-0.017,-74.318l-23.231,10.935l0,-15.247l23.248,-11.105l0,-9.238l-23.248,-14.236l0,-14.301l23.231,12.215l0,-34.696l-23.231,-0.193l0,-28.163l41.092,0l0,289.372Zm154.594,43.586c-0.998,1.343 -2.898,1.623 -4.24,0.625c-1.343,-0.997 -1.623,-2.897 -0.626,-4.24c0.998,-1.342 2.898,-1.622 4.241,-0.625c1.342,0.998 1.622,2.898 0.625,4.24Zm-34.866,-9.635c-1.258,1.342 -3.369,1.411 -4.712,0.152c-1.343,-1.258 -1.411,-3.369 -0.153,-4.712c1.258,-1.343 3.37,-1.411 4.713,-0.153c1.342,1.258 1.411,3.37 0.152,4.713Zm4.294,-10.776l0,2.88l22.966,8.119l0,-17.107l-22.966,6.108Zm-4.294,-0.572c-1.258,1.343 -3.369,1.411 -4.712,0.153c-1.343,-1.258 -1.411,-3.37 -0.153,-4.712c1.258,-1.343 3.37,-1.411 4.713,-0.153c1.342,1.258 1.411,3.37 0.152,4.712Zm35.169,-9.487c-1.259,1.342 -3.37,1.411 -4.713,0.153c-1.342,-1.259 -1.411,-3.37 -0.153,-4.713c1.259,-1.342 3.37,-1.411 4.713,-0.153c1.342,1.259 1.411,3.37 0.153,4.713Zm-164.575,-10.004c2.309,0 4.183,1.875 4.183,4.183c0,2.309 -1.874,4.184 -4.183,4.184c-2.309,0 -4.183,-1.875 -4.183,-4.184c0,-2.308 1.874,-4.183 4.183,-4.183Zm0,-90.444c2.309,0 4.183,1.875 4.183,4.184c0,2.308 -1.874,4.183 -4.183,4.183c-2.309,0 -4.183,-1.875 -4.183,-4.183c0,-2.309 1.874,-4.184 4.183,-4.184Zm0,-15.108c2.309,0 4.183,1.875 4.183,4.183c0,2.309 -1.874,4.184 -4.183,4.184c-2.309,0 -4.183,-1.875 -4.183,-4.184c0,-2.308 1.874,-4.183 4.183,-4.183Zm0,-98.254c2.309,0 4.183,1.874 4.183,4.183c0,2.309 -1.874,4.183 -4.183,4.183c-2.309,0 -4.183,-1.874 -4.183,-4.183c0,-2.309 1.874,-4.183 4.183,-4.183Zm0,-15.108c2.309,0 4.183,1.874 4.183,4.183c0,2.309 -1.874,4.183 -4.183,4.183c-2.309,0 -4.183,-1.874 -4.183,-4.183c0,-2.309 1.874,-4.183 4.183,-4.183Zm2.851,-50.668c-1.109,1.148 -2.941,1.181 -4.09,0.072c-1.148,-1.109 -1.181,-2.941 -0.072,-4.089c1.109,-1.149 2.941,-1.181 4.09,-0.073c1.148,1.109 1.18,2.942 0.072,4.09Zm0,-14.973c-1.109,1.148 -2.941,1.18 -4.09,0.072c-1.148,-1.109 -1.181,-2.941 -0.072,-4.09c1.109,-1.148 2.941,-1.18 4.09,-0.072c1.148,1.109 1.18,2.941 0.072,4.09Z" style="fill:#91325e;"/><path d="M0,366.282l44.716,0.441l3.189,15.488l-0.043,13.523l-47.862,0l0,-29.452Z"/></g></svg>