<?xml version="1.0" encoding="UTF-8" standalone="no"?><!DOCTYPE svg PUBLIC "-//W3C//DTD SVG 1.1//EN" "http://www.w3.org/Graphics/SVG/1.1/DTD/svg11.dtd"><svg width="100%" height="100%" viewBox="0 0 626 396" version="1.1" xmlns="http://www.w3.org/2000/svg" xmlns:xlink="http://www.w3.org/1999/xlink" xml:space="preserve" style="fill-rule:evenodd;clip-rule:evenodd;stroke-linejoin:round;stroke-miterlimit:1.41421;"><g id="MW.-56.-M.-F"><path d="M31.959,372.312l-31.959,0l0,-46.296l20.538,0l0,-19.716l-20.538,0l0,-11.778l31.959,0l0,77.79Zm-11.25,-33.816c1.551,0 2.81,1.259 2.81,2.811c0,1.551 -1.259,2.81 -2.81,2.81c-1.552,0 -2.811,-1.259 -2.811,-2.81c0,-1.552 1.259,-2.811 2.811,-2.811Z" style="fill:#eb3b41;"/><path d="M19.058,308.419l-11.184,0l-5.368,13.938l16.552,0l0,-13.938Z" style="fill:#91325e;fill-opacity:0.501961;"/><path d="M625.596,395.734l-9.559,0c5.276,0 9.558,-4.283 9.559,-9.559l0,9.559Zm0,-395.734l0,9.559c0,-5.275 -4.283,-9.558 -9.559,-9.559l-606.478,0c-5.276,0.001 -9.559,4.284 -9.559,9.559l0,376.616c0,5.276 4.283,9.559 9.559,9.559l-9.559,0l0,-395.734l625.596,0Z"/><g><g><path d="M391.324,325.778c-5.309,0 -9.619,4.31 -9.619,9.619c0,5.309 4.31,9.619 9.619,9.619l197.883,0l0,-19.238l-197.883,0Zm121.169,5.209c-2.434,0 -4.41,1.976 -4.41,4.41c0,2.434 1.976,4.41 4.41,4.41c2.434,0 4.411,-1.976 4.411,-4.41c0,-2.434 -1.977,-4.41 -4.411,-4.41Zm-59.818,0c-2.434,0 -4.41,1.976 -4.41,4.41c0,2.434 1.976,4.41 4.41,4.41c2.434,0 4.41,-1.976 4.41,-4.41c0,-2.434 -1.976,-4.41 -4.41,-4.41Zm120.268,0c-2.434,0 -4.41,1.976 -4.41,4.41c0,2.434 1.976,4.41 4.41,4.41c2.434,0 4.41,-1.976 4.41,-4.41c0,-2.434 -1.976,-4.41 -4.41,-4.41Zm-181.619,0c-2.434,0 -4.41,1.976 -4.41,4.41c0,2.434 1.976,4.41 4.41,4.41c2.434,0 4.41,-1.976 4.41,-4.41c0,-2.434 -1.976,-4.41 -4.41,-4.41Z" style="fill:#e77138;"/><path d="M391.324,327.919c-4.128,0 -7.479,3.351 -7.479,7.478c0,4.128 3.351,7.479 7.479,7.479c4.127,0 7.478,-3.351 7.478,-7.479c0,-4.127 -3.351,-7.478 -7.478,-7.478Zm0,3.068c-2.434,0 -4.41,1.976 -4.41,4.41c0,2.434 1.976,4.41 4.41,4.41c2.434,0 4.41,-1.976 4.41,-4.41c0,-2.434 -1.976,-4.41 -4.41,-4.41Z" style="fill:#510f27;"/></g><g><path d="M391.324,217.708c-5.309,0.001 -9.619,4.311 -9.619,9.619c0,5.309 4.31,9.619 9.619,9.619l197.883,0l0,-19.238l-197.883,0Zm121.169,5.209c-2.434,0 -4.41,1.976 -4.41,4.41c0,2.434 1.976,4.411 4.41,4.411c2.434,0 4.411,-1.977 4.411,-4.411c0,-2.434 -1.977,-4.41 -4.411,-4.41Zm-59.818,0c-2.434,0 -4.41,1.976 -4.41,4.41c0,2.434 1.976,4.411 4.41,4.411c2.434,0 4.41,-1.977 4.41,-4.411c0,-2.434 -1.976,-4.41 -4.41,-4.41Zm120.268,0c-2.434,0 -4.41,1.976 -4.41,4.41c0,2.434 1.976,4.411 4.41,4.411c2.434,0 4.41,-1.977 4.41,-4.411c0,-2.434 -1.976,-4.41 -4.41,-4.41Zm-181.619,0c-2.434,0 -4.41,1.976 -4.41,4.41c0,2.434 1.976,4.411 4.41,4.411c2.434,0 4.41,-1.977 4.41,-4.411c0,-2.434 -1.976,-4.41 -4.41,-4.41Z" style="fill:#e77138;"/><path d="M391.324,219.849c-4.128,0 -7.479,3.351 -7.479,7.478c0,4.128 3.351,7.479 7.479,7.479c4.127,0 7.478,-3.351 7.478,-7.479c0,-4.127 -3.351,-7.478 -7.478,-7.478Zm0,3.068c-2.434,0 -4.41,1.976 -4.41,4.41c0,2.434 1.976,4.411 4.41,4.411c2.434,0 4.41,-1.977 4.41,-4.411c0,-2.434 -1.976,-4.41 -4.41,-4.41Z" style="fill:#510f27;"/></g><g><path d="M391.324,106.595c-5.309,0 -9.619,4.31 -9.619,9.619c0,5.309 4.31,9.619 9.619,9.619l197.883,0l0,-19.238l-197.883,0Zm121.169,5.209c-2.434,0 -4.41,1.976 -4.41,4.41c0,2.434 1.976,4.41 4.41,4.41c2.434,0 4.411,-1.976 4.411,-4.41c0,-2.434 -1.977,-4.41 -4.411,-4.41Zm-59.818,0c-2.434,0 -4.41,1.976 -4.41,4.41c0,2.434 1.976,4.41 4.41,4.41c2.434,0 4.41,-1.976 4.41,-4.41c0,-2.434 -1.976,-4.41 -4.41,-4.41Zm120.268,0c-2.434,0 -4.41,1.976 -4.41,4.41c0,2.434 1.976,4.41 4.41,4.41c2.434,0 4.41,-1.976 4.41,-4.41c0,-2.434 -1.976,-4.41 -4.41,-4.41Zm-181.619,0c-2.434,0 -4.41,1.976 -4.41,4.41c0,2.434 1.976,4.41 4.41,4.41c2.434,0 4.41,-1.976 4.41,-4.41c0,-2.434 -1.976,-4.41 -4.41,-4.41Z" style="fill:#e77138;"/><path d="M391.324,108.735c-4.128,0 -7.479,3.351 -7.479,7.479c0,4.127 3.351,7.478 7.479,7.478c4.127,0 7.478,-3.351 7.478,-7.478c0,-4.128 -3.351,-7.479 -7.478,-7.479Zm0,3.069c-2.434,0 -4.41,1.976 -4.41,4.41c0,2.434 1.976,4.41 4.41,4.41c2.434,0 4.41,-1.976 4.41,-4.41c0,-2.434 -1.976,-4.41 -4.41,-4.41Z" style="fill:#510f27;"/></g><g><path d="M415.606,269.967c-5.309,0 -9.619,4.31 -9.619,9.619c0,5.309 4.31,9.619 9.619,9.619l173.601,0l0,-19.238l-173.601,0Zm96.179,5.209c-2.435,0 -4.411,1.976 -4.411,4.41c0,2.434 1.976,4.41 4.411,4.41c2.434,0 4.41,-1.976 4.41,-4.41c0,-2.434 -1.976,-4.41 -4.41,-4.41Zm-59.819,0c-2.434,0 -4.41,1.976 -4.41,4.41c0,2.434 1.976,4.41 4.41,4.41c2.434,0 4.411,-1.976 4.411,-4.41c0,-2.434 -1.977,-4.41 -4.411,-4.41Zm120.268,0c-2.434,0 -4.41,1.976 -4.41,4.41c0,2.434 1.976,4.41 4.41,4.41c2.435,0 4.411,-1.976 4.411,-4.41c0,-2.434 -1.976,-4.41 -4.411,-4.41Zm-156.628,0c-2.434,0 -4.41,1.976 -4.41,4.41c0,2.434 1.976,4.41 4.41,4.41c2.434,0 4.41,-1.976 4.41,-4.41c0,-2.434 -1.976,-4.41 -4.41,-4.41Z" style="fill:#e77138;"/><path d="M415.606,272.108c-4.128,0 -7.479,3.351 -7.479,7.478c0,4.128 3.351,7.479 7.479,7.479c4.127,0 7.478,-3.351 7.478,-7.479c0,-4.127 -3.351,-7.478 -7.478,-7.478Zm0,3.068c-2.434,0 -4.41,1.976 -4.41,4.41c0,2.434 1.976,4.41 4.41,4.41c2.434,0 4.41,-1.976 4.41,-4.41c0,-2.434 -1.976,-4.41 -4.41,-4.41Z" style="fill:#510f27;"/></g><g><path d="M415.606,162.141c-5.309,0.001 -9.619,4.311 -9.619,9.619c0,5.309 4.31,9.619 9.619,9.619l173.601,0l0,-19.238l-173.601,0Zm96.179,5.209c-2.435,0 -4.411,1.976 -4.411,4.41c0,2.434 1.976,4.411 4.411,4.411c2.434,0 4.41,-1.977 4.41,-4.411c0,-2.434 -1.976,-4.41 -4.41,-4.41Zm-59.819,0c-2.434,0 -4.41,1.976 -4.41,4.41c0,2.434 1.976,4.411 4.41,4.411c2.434,0 4.411,-1.977 4.411,-4.411c0,-2.434 -1.977,-4.41 -4.411,-4.41Zm120.268,0c-2.434,0 -4.41,1.976 -4.41,4.41c0,2.434 1.976,4.411 4.41,4.411c2.435,0 4.411,-1.977 4.411,-4.411c0,-2.434 -1.976,-4.41 -4.411,-4.41Zm-156.628,0c-2.434,0 -4.41,1.976 -4.41,4.41c0,2.434 1.976,4.411 4.41,4.411c2.434,0 4.41,-1.977 4.41,-4.411c0,-2.434 -1.976,-4.41 -4.41,-4.41Z" style="fill:#e77138;"/><path d="M415.606,164.282c-4.128,0 -7.479,3.351 -7.479,7.478c0,4.128 3.351,7.479 7.479,7.479c4.127,0 7.478,-3.351 7.478,-7.479c0,-4.127 -3.351,-7.478 -7.478,-7.478Zm0,3.068c-2.434,0 -4.41,1.976 -4.41,4.41c0,2.434 1.976,4.411 4.41,4.411c2.434,0 4.41,-1.977 4.41,-4.411c0,-2.434 -1.976,-4.41 -4.41,-4.41Z" style="fill:#510f27;"/></g></g><path d="M0,232.074l253.668,0l0,-110.384l-18.923,0l0,-15.095l96.884,0l0,15.095l-61.159,0l0,96.46l61.159,0l0,17.02l-61.159,0l0,11.999l-270.47,0l0,-15.095Z" style="fill:#91325e;"/><rect x="183.805" y="325.778" width="146.549" height="16.173" style="fill:#91325e;"/><path d="M32.584,64.576l-18.422,0l0,166.22l-14.162,0l0,-179.069l32.584,0l0,12.849Z" style="fill:#eb3b41;"/><path d="M279.062,395.734l-28.582,0l0,-50.64l12.618,0l0,5.612l26.521,7.523l0,-13.135l10.107,0l0,50.64l-10.107,0l0,-17.303l-26.521,10.568l0,1.038l15.964,5.697Zm-22.454,-13.54c1.775,0 3.216,1.441 3.216,3.215c0,1.775 -1.441,3.216 -3.216,3.216c-1.775,0 -3.216,-1.441 -3.216,-3.216c0,-1.774 1.441,-3.215 3.216,-3.215Zm6.49,-4.135l25.281,-10.074l-25.281,-7.172l0,17.246Zm31.518,-8.171c1.775,0 3.216,1.441 3.216,3.216c0,1.775 -1.441,3.216 -3.216,3.216c-1.775,0 -3.216,-1.441 -3.216,-3.216c0,-1.775 1.441,-3.216 3.216,-3.216Zm0,-8.482c1.775,0 3.216,1.441 3.216,3.216c0,1.775 -1.441,3.216 -3.216,3.216c-1.775,0 -3.216,-1.441 -3.216,-3.216c0,-1.775 1.441,-3.216 3.216,-3.216Zm-38.008,-10.519c1.775,0 3.216,1.441 3.216,3.216c0,1.775 -1.441,3.216 -3.216,3.216c-1.775,0 -3.216,-1.441 -3.216,-3.216c0,-1.775 1.441,-3.216 3.216,-3.216Z" style="fill:#91325e;"/><path d="M442.029,395.734l-21.552,0l0,-49.179l21.552,0l0,11.425l24.411,-8.955l0,-2.47l126.365,0l0,-291.517l32.791,0l0,26.375l-16.695,0l0,8.192l16.714,13.985l-0.008,15.596l-16.706,-13.078l0,67.285l16.99,-11.252l-0.298,66.532l-16.692,-10.965l0,66.324l16.692,-14.065l0.003,16.589l-16.695,14.071l0,8.995l16.706,13.208l0.008,17.713l-16.714,-14.059l0,18.61l16.695,0l0,17.216l-32.791,0l0,-6.728l-114.752,0l0,40.152l-11.613,0l0,-4.65l-24.411,-8.934l0,13.584Zm29.923,-12.176c1.775,0 3.216,1.441 3.216,3.216c0,1.775 -1.441,3.216 -3.216,3.216c-1.774,0 -3.215,-1.441 -3.215,-3.216c0,-1.775 1.441,-3.216 3.215,-3.216Zm-29.923,-15.05l0,3.116l24.411,8.934l0,-21.004l-24.411,8.954Zm-6.898,4.562c1.775,0 3.216,1.441 3.216,3.216c0,1.774 -1.441,3.215 -3.216,3.215c-1.775,0 -3.216,-1.441 -3.216,-3.215c0,-1.775 1.441,-3.216 3.216,-3.216Zm0,-12.462c1.775,0 3.216,1.441 3.216,3.216c0,1.775 -1.441,3.215 -3.216,3.215c-1.775,0 -3.216,-1.44 -3.216,-3.215c0,-1.775 1.441,-3.216 3.216,-3.216Zm36.821,-10.201c1.775,0 3.216,1.44 3.216,3.215c0,1.775 -1.441,3.216 -3.216,3.216c-1.774,0 -3.215,-1.441 -3.215,-3.216c0,-1.775 1.441,-3.215 3.215,-3.215Zm128.477,-2.694c2.303,0 4.174,1.87 4.174,4.174c0,2.303 -1.871,4.173 -4.174,4.173c-2.304,0 -4.174,-1.87 -4.174,-4.173c0,-2.304 1.87,-4.174 4.174,-4.174Zm0,-37.174c2.303,0 4.174,1.87 4.174,4.173c0,2.304 -1.871,4.174 -4.174,4.174c-2.304,0 -4.174,-1.87 -4.174,-4.174c0,-2.303 1.87,-4.173 4.174,-4.173Zm0,-19.144c2.303,0 4.174,1.87 4.174,4.173c0,2.304 -1.871,4.174 -4.174,4.174c-2.304,0 -4.174,-1.87 -4.174,-4.174c0,-2.303 1.87,-4.173 4.174,-4.173Zm0,-91.427c2.303,0 4.174,1.87 4.174,4.174c0,2.303 -1.871,4.173 -4.174,4.173c-2.304,0 -4.174,-1.87 -4.174,-4.173c0,-2.304 1.87,-4.174 4.174,-4.174Zm0,-19.144c2.303,0 4.174,1.87 4.174,4.174c0,2.303 -1.871,4.173 -4.174,4.173c-2.304,0 -4.174,-1.87 -4.174,-4.173c0,-2.304 1.87,-4.174 4.174,-4.174Zm0,-89.107c2.303,0 4.174,1.87 4.174,4.174c0,2.303 -1.871,4.173 -4.174,4.173c-2.304,0 -4.174,-1.87 -4.174,-4.173c0,-2.304 1.87,-4.174 4.174,-4.174Zm-0.754,-16.91c1.014,0 1.836,0.823 1.836,1.836c0,1.013 -0.822,1.836 -1.836,1.836c-1.013,0 -1.836,-0.823 -1.836,-1.836c0,-1.013 0.823,-1.836 1.836,-1.836Zm0,-15.242c1.014,0 1.836,0.823 1.836,1.836c0,1.013 -0.822,1.836 -1.836,1.836c-1.013,0 -1.836,-0.823 -1.836,-1.836c0,-1.013 0.823,-1.836 1.836,-1.836Z" style="fill:#91325e;"/><path d="M625.596,365.854l-40.829,0l-3.885,15.706l0,14.174l44.714,0l0,-29.88Z"/><path d="M625.596,52.254l-41.52,0l6.068,10.753l-29.991,-10.753l-0.815,0l0,-12.136l66.258,0l0,12.136Z" style="fill:#91325e;"/></g></svg>