<?xml version="1.0" encoding="UTF-8" standalone="no"?><!DOCTYPE svg PUBLIC "-//W3C//DTD SVG 1.1//EN" "http://www.w3.org/Graphics/SVG/1.1/DTD/svg11.dtd"><svg width="100%" height="100%" viewBox="0 0 626 396" version="1.1" xmlns="http://www.w3.org/2000/svg" xmlns:xlink="http://www.w3.org/1999/xlink" xml:space="preserve" style="fill-rule:evenodd;clip-rule:evenodd;stroke-linejoin:round;stroke-miterlimit:1.41421;"><g id="MW.-56.-M.-B"><path d="M305.106,191.452l-4.519,0l0,-11.504l-24.498,0l0,11.504l-4.882,0l0,-76.417l4.882,0l0,17.639l24.498,0l0,-17.639l4.519,0l0,76.417Zm-4.519,-16.207l0,-15.74l-24.498,0l0,15.74l24.498,0Zm0,-20.447l0,-15.741l-24.498,0l0,15.741l24.498,0Z" style="fill:#c5d4dd;"/><path d="M305.106,281.288l-4.519,0l0,-12.473l-24.498,0l0,12.473l-4.882,0l0,-51.257l4.882,0l0,14.371l24.498,0l0,-14.371l4.519,0l0,51.257Zm-4.519,-17.772l0,-13.815l-24.498,0l0,13.815l24.498,0Z" style="fill:#c5d4dd;"/><path d="M0,395.734l0,-13.406l172.344,-1.005l0.01,-11.697l16.003,0.11l0.172,-12.563l14.957,-0.126l0.148,-11.061l31.952,-0.285l-0.047,8.933l-20.58,-0.226l-0.05,12.261l-14.707,0.115l-0.073,13.06l-15.59,-0.089l-0.191,15.979l-184.348,0Zm303.261,-9.319l106.154,0l0,9.319l-106.154,0l0,-9.319Z" style="fill:#414f79;"/><path d="M97.267,22.731l0,26.877l-79.109,0l0,-26.877l79.109,0Zm-57.429,4.061l0,3.282l-7.949,-0.103l-0.011,3.741l4.523,0.02l0.076,4.057l-4.516,0.048l0.028,3.294l7.849,0.047l-0.028,3.883l-13.559,-0.103l-0.033,-18.166l13.62,0Zm21.581,18.269l-6.263,-9.725l6.263,-8.544l-4.679,0l-3.603,4.977l-3.353,-4.977l-5.87,0l6.129,9.658l-6.245,8.611l4.467,0l3.993,-6.186l3.813,6.186l5.348,0Zm8.723,0l0.138,-18.269l-5.301,0l0,18.269l5.163,0Zm20.972,-15.032l0.057,-3.237l-16.014,0l-0.043,3.237l5.67,0l-0.07,15.032l5.346,0l-0.083,-15.032l5.137,0Z" style="fill:#05c9f2;"/><path d="M625.596,395.734l-9.559,0c5.276,0 9.558,-4.283 9.559,-9.559l0,9.559Zm0,-395.734l0,9.559c0,-5.275 -4.283,-9.558 -9.559,-9.559l-606.478,0c-5.276,0.001 -9.559,4.284 -9.559,9.559l0,376.616c0,5.276 4.283,9.559 9.559,9.559l-9.559,0l0,-395.734l625.596,0Z"/></g></svg>